<?xml version="1.0" encoding="UTF-8"?>
<svg version="1.1" xmlns="http://www.w3.org/2000/svg" width="1098" height="1552">
<path d="M0 0 C1.06342682 0.87805885 2.12725264 1.75563462 3.19140625 2.6328125 C11.54154845 9.60628749 19.31292357 17.12450662 27 24.8125 C27.49463745 25.30623108 27.9892749 25.79996216 28.49890137 26.30865479 C56.61910803 54.43470375 78.75678251 87.32888196 98 122 C98.47131348 122.84336914 98.94262695 123.68673828 99.42822266 124.55566406 C127.58734292 175.24837776 144.45251897 232.1769473 158.29014587 288.20715332 C159.6939581 293.86165581 161.23595999 299.44633062 163 305 C164.50528656 309.83019197 165.96423692 314.63083926 167.03515625 319.578125 C176.75349023 364.30513899 201.86998234 408.93592418 230.1015625 444.42578125 C232 447 232 447 233 450 C233.66 450 234.32 450 235 450 C236.7265625 451.6796875 236.7265625 451.6796875 238.625 453.875 C239.25664063 454.59429688 239.88828125 455.31359375 240.5390625 456.0546875 C242 458 242 458 242 460 C242.680625 460.185625 243.36125 460.37125 244.0625 460.5625 C251.94321466 464.41901994 256.69559694 471.96294408 259.75 479.96484375 C263.00649795 491.02336803 260.95345656 502.56189974 255.8125 512.6875 C250.56385083 521.39371628 243.75722809 527.09375601 234 530 C230.64586978 530.61502204 227.27535924 531.03240969 223.890625 531.44140625 C222.8884343 531.56720062 221.88624359 531.692995 220.85368347 531.82260132 C210.59348162 533.09052247 200.3147461 534.19264101 190.03564453 535.29443359 C103.48893165 544.57438742 17.17402369 556.91662186 -276.17851257 637.38502502 C-281.94351531 639.77701637 -287.70046908 642.03888644 -293.625 644 C-337.31216365 658.67307043 -378.85916806 682.4144878 -413.50195312 712.70166016 C-414.71063629 713.74921183 -415.93841933 714.77470229 -417.171875 715.79296875 C-456.2152277 748.24567003 -478.57929855 798.8094059 -483.53540039 848.54956055 C-488.33408304 907.94186092 -472.60601041 963.77621011 -434 1009.25 C-425.14999048 1019.4855296 -415.68227807 1028.67519019 -405 1037 C-403.48986328 1038.20076172 -403.48986328 1038.20076172 -401.94921875 1039.42578125 C-375.36960854 1060.40256537 -344.9393112 1076.00861192 -314.05273438 1089.58837891 C-311.17837314 1090.91751811 -308.43795662 1092.37887919 -305.671875 1093.91796875 C-297.78201325 1098.03095466 -291.94783041 1099.94482617 -283.17578125 1097.3515625 C-277.02704319 1095.14100539 -271.14125261 1092.4571491 -265.2734375 1089.59082031 C-262.35533367 1088.17268453 -259.42271644 1086.85487271 -256.4375 1085.5859375 C-244.96519862 1080.68947799 -233.94234097 1074.97429568 -223 1069 C-222.39027344 1068.67209473 -221.78054688 1068.34418945 -221.15234375 1068.00634766 C-201.8868603 1057.62207654 -183.37555349 1044.91700806 -167.26953125 1030.0859375 C-165.1723995 1028.15845324 -163.03623645 1026.29238643 -160.875 1024.4375 C-129.88865161 997.30115883 -109.4238216 958.2934981 -100.75 918.375 C-100.59877686 917.6845459 -100.44755371 916.9940918 -100.29174805 916.28271484 C-97.55266204 902.76205426 -96.66663626 889.23412884 -96.73925781 875.47094727 C-96.74998009 873.06696283 -96.73928058 870.66372778 -96.7265625 868.25976562 C-96.71321588 854.08961796 -97.85760865 840.02051725 -100.75 826.125 C-100.91773926 825.30749268 -101.08547852 824.48998535 -101.25830078 823.64770508 C-108.60448992 789.25716728 -124.18152408 758.82669609 -147.57250977 732.61865234 C-149.11185864 730.87316183 -150.60981804 729.09614667 -152.109375 727.31640625 C-154.23933639 724.82461676 -156.40758808 722.59667119 -158.9375 720.5 C-161.47416577 718.34883128 -163.84109961 716.16621703 -166.125 713.75 C-177.76463368 701.95200395 -192.56992878 692.28382405 -206.578125 683.5390625 C-209.81538495 681.48183601 -212.90753903 679.26780471 -216 677 C-214.25723916 673.51447833 -209.97966604 673.01472965 -206.45703125 671.81640625 C-205.56691849 671.50981583 -204.67680573 671.2032254 -203.75971985 670.88734436 C-193.87570624 667.53687563 -183.86294645 664.64939544 -173.81958008 661.82006836 C-170.69877129 660.94067606 -167.58067181 660.05216942 -164.46289062 659.16210938 C-154.08868914 656.21064085 -143.69316239 653.33841512 -133.26953125 650.56640625 C-132.30979904 650.30697739 -131.35006683 650.04754852 -130.36125183 649.78025818 C-129.46707047 649.54541214 -128.5728891 649.3105661 -127.65161133 649.06860352 C-126.48122063 648.75778587 -126.48122063 648.75778587 -125.28718567 648.44068909 C-122.76689124 647.9550852 -120.56038453 647.80404083 -118 648 C-115.5 649.828125 -115.5 649.828125 -113 652.25 C-110.51681998 654.6245409 -108.08950231 656.92914959 -105.39453125 659.0625 C-103.20041036 660.83784088 -101.48719423 662.58858062 -99.6875 664.75 C-97.27643882 667.57765923 -94.79450665 670.22790807 -92.125 672.8125 C-87.33444139 677.54788903 -83.18549697 682.73087922 -79 688 C-78.11243112 689.09672008 -77.22439559 690.19306265 -76.3359375 691.2890625 C-60.75454255 710.64014977 -47.78522279 732.15329535 -38 755 C-37.6380957 755.84191895 -37.27619141 756.68383789 -36.90332031 757.55126953 C-30.494787 772.67114672 -25.77476095 788.02590964 -22 804 C-21.68506592 805.33248779 -21.68506592 805.33248779 -21.36376953 806.69189453 C-4.34004524 881.15093506 -16.86750698 964.08247074 -57 1029 C-63.67107361 1039.49482102 -71.13094934 1049.38042487 -79 1059 C-79.44359863 1059.5480127 -79.88719727 1060.09602539 -80.34423828 1060.66064453 C-92.3894951 1075.46509029 -105.92630441 1089.28384097 -121 1101 C-122.85710546 1102.57988537 -124.71109329 1104.1634403 -126.5625 1105.75 C-172.12313716 1143.6489639 -227.44880986 1167.87585844 -282.78125 1187.71484375 C-324.51834143 1202.74708368 -365.19869885 1222.15983746 -400 1250 C-401.39992188 1251.10408203 -401.39992188 1251.10408203 -402.828125 1252.23046875 C-446.75334562 1287.72488089 -474.75324471 1335.29770375 -481.68603516 1391.77929688 C-482.34182235 1398.50647005 -482.47287359 1405.25417721 -482.64916992 1412.00756836 C-483.05083334 1425.78957845 -485.11147763 1437.0238162 -494.375 1447.75 C-495.24125 1448.4925 -496.1075 1449.235 -497 1450 C-497.55042969 1450.49113281 -498.10085938 1450.98226563 -498.66796875 1451.48828125 C-506.7816758 1458.23018628 -516.24301585 1460.76710061 -526.69921875 1460.37890625 C-536.74461661 1459.2257659 -544.68190499 1455.99152688 -552 1449 C-552.84498047 1448.19755859 -552.84498047 1448.19755859 -553.70703125 1447.37890625 C-566.31047834 1434.07349501 -564.49513654 1416.004535 -564.13183594 1399.06591797 C-563.06323046 1360.90415706 -552.35839114 1321.01941461 -535 1287 C-534.43877441 1285.89591797 -534.43877441 1285.89591797 -533.86621094 1284.76953125 C-522.94055014 1263.60164067 -509.16350881 1243.7387939 -493.03125 1226.21484375 C-491.22158012 1224.24160756 -489.48160109 1222.22892187 -487.75 1220.1875 C-480.1795773 1211.5053369 -471.81078485 1203.41017949 -463 1196 C-461.66001953 1194.82630859 -461.66001953 1194.82630859 -460.29296875 1193.62890625 C-439.40885357 1175.43799144 -416.01857534 1160.6594188 -392 1147 C-394.65653896 1144.9490039 -397.34452749 1143.13171502 -400.23828125 1141.43359375 C-401.05047119 1140.9535791 -401.86266113 1140.47356445 -402.69946289 1139.97900391 C-403.99291626 1139.21595947 -403.99291626 1139.21595947 -405.3125 1138.4375 C-425.5488254 1126.37245258 -444.92618341 1112.98485162 -462.54199219 1097.29492188 C-463.82183277 1096.15823828 -465.11678908 1095.0386217 -466.4140625 1093.921875 C-479.23110005 1082.73449514 -491.70885381 1070.56644769 -502 1057 C-503.02062598 1055.70583942 -504.04290076 1054.41297823 -505.06640625 1053.12109375 C-512.39979801 1043.79461733 -519.00613393 1034.23657826 -525 1024 C-525.40814941 1023.3085791 -525.81629883 1022.6171582 -526.23681641 1021.90478516 C-566.58931902 953.05519719 -573.73657018 868.48822656 -554.203125 791.87451172 C-543.66509209 752.56997352 -523.68726514 716.56454941 -497 686 C-496.36191406 685.26136719 -495.72382813 684.52273438 -495.06640625 683.76171875 C-493.39000402 681.82979101 -491.69815647 679.91282185 -490 678 C-489.31550781 677.22269531 -488.63101562 676.44539062 -487.92578125 675.64453125 C-480.13904198 666.87935354 -472.01031167 658.51343731 -463 651 C-462.46697266 650.55317871 -461.93394531 650.10635742 -461.38476562 649.64599609 C-445.7216077 636.5609093 -429.23871343 624.90603439 -412 614 C-410.83035111 613.25449907 -409.66105722 612.50844074 -408.4921875 611.76171875 C-405.99763322 610.16992516 -403.50051772 608.58240106 -401 607 C-406.31257145 604.94259879 -411.59876348 603.16186505 -417.08984375 601.65234375 C-418.23620049 601.33342163 -418.23620049 601.33342163 -419.40571594 601.00805664 C-421.91490903 600.31266622 -424.42592182 599.62422356 -426.9375 598.9375 C-427.81313599 598.69734161 -428.68877197 598.45718323 -429.59094238 598.20974731 C-448.76394307 592.96300272 -468.03650451 588.17762011 -487.38330078 583.61785889 C-489.99982749 583.00004073 -492.61523319 582.37765331 -495.23046875 581.75439453 C-593.05600816 558.4952985 -693.36303947 544.68381634 -793.39746094 535.24121094 C-807.33443182 533.90636193 -819.5486904 531.95293414 -829.39453125 521.0546875 C-837.72548802 510.39268443 -838.54082736 499.93175639 -837.39746094 486.69628906 C-835.79692125 475.83857388 -829.04643502 467.62374443 -820.54296875 461.12109375 C-817.97266951 458.9772036 -816.02143244 456.80144994 -813.9375 454.1875 C-812.77154297 452.72763672 -812.77154297 452.72763672 -811.58203125 451.23828125 C-811.16646973 450.71443848 -810.7509082 450.1905957 -810.32275391 449.65087891 C-808.94580433 447.93236044 -807.5440075 446.23670932 -806.13671875 444.54296875 C-798.65678852 435.47723947 -792.14296742 426.0141613 -786 416 C-785.58540527 415.32775391 -785.17081055 414.65550781 -784.74365234 413.96289062 C-772.40901301 393.84026855 -762.10373712 372.7582198 -753 351 C-752.62359375 350.11666992 -752.2471875 349.23333984 -751.859375 348.32324219 C-745.85073736 334.11259647 -742.20618644 319.58528027 -738.80712891 304.56005859 C-717.63366497 211.16881508 -684.80721961 117.04923628 -613.2421875 36.453125 C-611.00128404 34.09602834 -611.00128404 34.09602834 -609.3203125 31.671875 C-608.88460937 31.12015625 -608.44890625 30.5684375 -608 30 C-607.34 30 -606.68 30 -606 30 C-605.6596875 29.1646875 -605.6596875 29.1646875 -605.3125 28.3125 C-575.23009631 -24.68983031 -484.38475666 -58.5773023 -430.19140625 -73.96875 C-395.16291378 -83.55823079 -359.2158043 -88.87204608 -323 -91 C-322.09411133 -91.05784668 -321.18822266 -91.11569336 -320.25488281 -91.17529297 C-234.40885398 -96.62763215 -145.09602843 -83.6879694 0 0 Z M-543 287 C-543.81210937 287.58523438 -544.62421875 288.17046875 -545.4609375 288.7734375 C-553.20553983 295.56485801 -559.30470831 306.73375437 -560.16699219 316.98535156 C-561.09064687 331.80968173 -558.55625628 343.25014852 -549 355 C-541.23812064 363.7569921 -530.97962664 370.51324277 -519.09375 371.23828125 C-503.99085288 371.60596095 -492.75659119 368.72732443 -481.22265625 358.41015625 C-479.78163671 357.05921546 -479.78163671 357.05921546 -480 355 C-479.34 355 -478.68 355 -478 355 C-469.57866858 343.55510622 -466.61219388 331.0495878 -468 317 C-470.46463594 304.78821628 -476.1055725 293.78340143 -486 286 C-504.35199215 274.2222025 -525.2196606 273.10910984 -543 287 Z M-100.02734375 294.3671875 C-107.38931115 304.1928628 -111.35168361 316.7034338 -110 329 C-107.7543969 342.90402584 -101.02954578 354.69036771 -90.03125 363.59375 C-88.07423541 364.90912047 -86.12161592 365.97240334 -84 367 C-83.24847656 367.39058594 -82.49695313 367.78117187 -81.72265625 368.18359375 C-71.61969515 372.682447 -58.26328037 372.88354769 -47.8125 369.3125 C-46.18520691 368.59176988 -44.57756823 367.82390121 -43 367 C-41.93265625 366.45666016 -41.93265625 366.45666016 -40.84375 365.90234375 C-29.74087004 359.60359454 -22.12597178 349.1543784 -18.5234375 337.01171875 C-15.16744524 324.11368881 -17.10565894 311.15407858 -23.44140625 299.44140625 C-30.64415899 288.15889883 -41.04011707 280.4492737 -54.16015625 277.4375 C-72.03389244 274.68391203 -88.35729772 280.57718601 -100.02734375 294.3671875 Z " fill="#FFFFFF" transform="translate(837,92)"/>
<path d="M0 0 C3.91701902 1.65175501 6.89158055 4.30366866 10.0625 7.0625 C14.06199696 10.50868478 18.09123368 13.87059021 22.25 17.125 C27.38756496 21.30304915 32.06678597 25.88433036 36.75 30.5625 C37.81395996 31.62525146 37.81395996 31.62525146 38.89941406 32.70947266 C43.45890527 37.31701471 47.79036231 42.07199624 52 47 C52.74564209 47.86153687 52.74564209 47.86153687 53.50634766 48.74047852 C96.47775594 98.73951751 119.05654668 162.28676974 120.93261719 227.86523438 C120.99374381 229.80179651 121.09239806 231.73708355 121.1953125 233.671875 C121.6110798 245.25792387 118.59780428 256.08524298 111 265 C105.69313617 270.60725235 100.33972704 274.54914709 93 277 C92.30390625 277.23589844 91.6078125 277.47179688 90.890625 277.71484375 C81.09063452 280.45097248 70.9792258 278.84304796 61.85546875 274.63671875 C51.68270167 268.80581669 44.82634876 260.2807273 41.3984375 249.12890625 C39.73079127 242.74881109 39.41273546 236.43421122 39.14880371 229.86636353 C37.1614467 182.57106147 22.18571918 139.04436383 -9 103 C-9.6703125 102.21882813 -10.340625 101.43765625 -11.03125 100.6328125 C-21.44376477 88.78274904 -32.51466679 77.78916768 -45.17578125 68.36669922 C-47.10282103 66.92296679 -49.00522715 65.45044842 -50.90625 63.97265625 C-60.09590381 56.88084711 -69.58887122 50.20556439 -80 45 C-79 42 -79 42 -76.16210938 40.39697266 C-74.89409293 39.80893878 -73.62084051 39.23212004 -72.34375 38.6640625 C-71.3153878 38.19077011 -71.3153878 38.19077011 -70.26625061 37.70791626 C-68.78684462 37.02754462 -67.30543953 36.3515068 -65.82229614 35.67932129 C-61.9099501 33.90311814 -58.01598209 32.08752758 -54.12109375 30.2734375 C-53.33975571 29.91016357 -52.55841766 29.54688965 -51.75340271 29.17260742 C-24.12450711 17.2881785 -24.12450711 17.2881785 0 0 Z " fill="#FFFFFF" transform="translate(704,1272)"/>
<path d="M0 0 C4.59928963 0.03574324 9.19821038 0.00249169 13.79751778 -0.01940632 C21.51792653 -0.04479298 29.23645324 -0.01153981 36.95657539 0.05536175 C45.85017798 0.13154835 54.73928674 0.10686192 63.63278055 0.02979207 C71.30324516 -0.03398818 78.97236619 -0.04258767 86.64301062 -0.00606656 C91.20920246 0.01562862 95.77329019 0.01904912 100.33934212 -0.0275774 C131.68420945 -0.30435328 131.68420945 -0.30435328 139.60224342 6.71368313 C141.73033849 9.04055043 143.5342176 11.4133665 145.19082832 14.09485912 C147.02659992 16.99961521 149.28877694 19.51007246 151.50686836 22.13055706 C159.60203667 32.8931826 166.49594095 44.47302438 172.00686836 56.75555706 C172.34605293 57.51054485 172.6852375 58.26553265 173.03470039 59.04339886 C174.56149911 62.59257882 175.31936836 64.96298356 175.31936836 68.88055706 C91.82936836 68.88055706 8.33936836 68.88055706 -77.68063164 68.88055706 C-76.88734497 63.32755041 -75.86968374 59.28106321 -73.61813164 54.31805706 C-73.14851006 53.27488323 -73.14851006 53.27488323 -72.66940117 52.21063519 C-67.9808455 41.99204782 -62.59309948 32.66406736 -55.55563164 23.88055706 C-55.08431816 23.28887737 -54.61300468 22.69719769 -54.12740898 22.08758831 C-53.07972581 20.82241056 -51.98571434 19.59469821 -50.85738945 18.40088177 C-49.14449228 16.41763079 -47.90739973 14.65728342 -46.54943657 12.45617962 C-35.79948033 -3.00419572 -16.79975459 -0.17155174 0 0 Z " fill="#FFFFFF" transform="translate(500.68063163757324,1399.1194429397583)"/>
<path d="M0 0 C4.59928963 0.03574324 9.19821038 0.00249169 13.79751778 -0.01940632 C21.51792653 -0.04479298 29.23645324 -0.01153981 36.95657539 0.05536175 C45.85017798 0.13154835 54.73928674 0.10686192 63.63278055 0.02979207 C71.30324516 -0.03398818 78.97236619 -0.04258767 86.64301062 -0.00606656 C91.20920246 0.01562862 95.77329019 0.01904912 100.33934212 -0.0275774 C131.68420945 -0.30435328 131.68420945 -0.30435328 139.60224342 6.71368313 C141.73032997 9.04054112 143.53420516 11.41334911 145.19081306 14.09482861 C147.02660214 16.99962272 149.28866102 19.51011791 151.50686836 22.13055706 C161.6813346 35.90290199 172.46189121 51.73569415 175.31936836 68.88055706 C91.82936836 68.88055706 8.33936836 68.88055706 -77.68063164 68.88055706 C-76.88734497 63.32755041 -75.86968374 59.28106321 -73.61813164 54.31805706 C-73.14851006 53.27488323 -73.14851006 53.27488323 -72.66940117 52.21063519 C-67.9808455 41.99204782 -62.59309948 32.66406736 -55.55563164 23.88055706 C-55.08431816 23.28887737 -54.61300468 22.69719769 -54.12740898 22.08758831 C-53.07972581 20.82241056 -51.98571434 19.59469821 -50.85738945 18.40088177 C-49.14449228 16.41763079 -47.90739973 14.65728342 -46.54943657 12.45617962 C-35.79948033 -3.00419572 -16.79975459 -0.17155174 0 0 Z " fill="#FFFFFF" transform="translate(500.68063163757324,853.1194429397583)"/>
<path d="M0 0 C83.49 0 166.98 0 253 0 C243.79404377 26.08354265 232.26069291 43.86336952 213 63 C212.42797474 63.69881696 211.85594948 64.39763391 211.26659012 65.11762714 C208.1943135 67.66911189 206.2738677 67.51030391 202.30877686 67.52812195 C201.30143789 67.54065694 201.30143789 67.54065694 200.27374864 67.55344516 C198.02432199 67.57641729 195.77589072 67.57080963 193.52636719 67.56518555 C191.91315108 67.57551772 190.29994485 67.5875064 188.68675232 67.60102844 C184.30428316 67.63210578 179.92214265 67.63735187 175.53957653 67.63609672 C171.87921027 67.63692687 168.21891542 67.64916788 164.5585711 67.66104633 C155.91969856 67.68843494 147.28099663 67.69374553 138.64208984 67.6862793 C129.73729238 67.67904333 120.83328759 67.71242328 111.92866206 67.76533669 C104.27921871 67.80914704 96.6300311 67.82583057 88.98046422 67.8213008 C84.41369142 67.8189804 79.84755851 67.82726183 75.28090668 67.86237144 C70.9828162 67.89438041 66.68603456 67.8924775 62.3879261 67.86492729 C60.81418904 67.86047999 59.24036504 67.8678827 57.66675377 67.88827133 C44.31684615 68.04946278 44.31684615 68.04946278 39.20758057 63.66902161 C38.10001567 62.48065238 37.02806513 61.2577772 36 60 C34.89646996 58.81190837 33.79237979 57.62433652 32.6875 56.4375 C31.44685705 54.96794571 30.21930287 53.48730805 29 52 C28.59378418 51.51144531 28.18756836 51.02289062 27.76904297 50.51953125 C17.47867076 38.08831013 0 16.8007591 0 0 Z " fill="#FFFFFF" transform="translate(421,1015)"/>
</svg>
