<svg xmlns="http://www.w3.org/2000/svg" width="683" height="769" viewBox="0 0 683 769" version="1.1"><path d="M 327 157.055 C 245.970 161.977, 172.731 211.091, 136.955 284.500 C 119.893 319.507, 113.176 351.109, 114.262 391.249 C 115.683 443.720, 133.434 490.076, 167.799 531.058 C 203.169 573.241, 253.382 600.994, 310 609.654 C 333.661 613.273, 367.797 611.752, 392.602 605.974 C 450.639 592.456, 502.699 555.525, 533.991 505.674 C 537.609 499.910, 538.060 498.646, 536.888 497.552 C 536.125 496.840, 517.725 485.994, 496 473.451 C 474.275 460.908, 452.847 448.530, 448.382 445.944 L 440.264 441.244 435.957 447.872 C 426.401 462.579, 406.802 479.258, 389.335 487.546 C 361.086 500.952, 325.459 501.385, 296.141 488.681 C 279.382 481.418, 260.883 466.722, 250.103 452.105 C 240.184 438.658, 232.233 419.549, 229.471 402.523 C 223.739 367.180, 234.643 332.103, 259.406 306.224 C 280.871 283.792, 305.744 272.548, 336.657 271.301 C 362.290 270.268, 383.071 275.941, 404.500 289.821 C 413.137 295.416, 431.282 313.515, 436 321.242 C 437.925 324.395, 439.847 326.980, 440.271 326.987 C 440.830 326.997, 536.880 271.907, 538.773 270.492 C 539.209 270.165, 527.153 252.066, 522.125 245.500 C 507.808 226.804, 487.961 208.368, 467.674 194.920 C 425.476 166.948, 377.354 153.995, 327 157.055 M 518.780 358.719 L 518.500 371.500 505.750 371.780 L 493 372.060 493 384.530 L 493 397 506 397 L 519 397 519 409.500 L 519 422 531.500 422 L 544 422 544 409.500 L 544 397 556.500 397 L 569 397 569 384.500 L 569 372 556.530 372 L 544.060 372 543.780 359.250 L 543.500 346.500 531.280 346.219 L 519.060 345.939 518.780 358.719 M 613.780 358.719 L 613.500 371.500 600.750 371.780 L 588 372.060 588 384.530 L 588 397 601 397 L 614 397 614 409.500 L 614 422 626.500 422 L 639 422 639 409.500 L 639 397 651.500 397 L 664 397 664 384.500 L 664 372 651.530 372 L 639.060 372 638.780 359.250 L 638.500 346.500 626.280 346.219 L 614.060 345.939 613.780 358.719" stroke="none" fill="#fbfbfb" fill-rule="evenodd"/><path d="M 325.294 1.478 C 322.430 2.280, 318.586 3.564, 316.751 4.331 C 311.047 6.714, 28.779 169.983, 23.682 173.847 C 17.675 178.402, 9.859 188.414, 6.002 196.495 C -0.387 209.883, 0 197.773, 0 384.267 C 0 505.050, 0.320 555.470, 1.108 558.807 C 1.717 561.388, 4.226 567.711, 6.683 572.858 C 10.336 580.511, 12.548 583.608, 18.825 589.858 C 26.383 597.383, 28.701 598.769, 170.496 680.500 C 262.614 733.598, 317.015 764.386, 321.496 765.959 C 327.553 768.086, 330.257 768.418, 341.500 768.418 C 352.743 768.418, 355.447 768.086, 361.504 765.959 C 365.985 764.386, 420.386 733.598, 512.504 680.500 C 654.299 598.769, 656.617 597.383, 664.175 589.858 C 670.407 583.653, 672.699 580.456, 676.365 572.858 C 678.848 567.711, 681.182 561.808, 681.553 559.739 C 681.924 557.670, 682.626 555.731, 683.113 555.430 C 683.623 555.115, 684 481.973, 684 383.274 C 684 288.890, 683.688 211.979, 683.307 212.360 C 682.926 212.741, 682.009 210.679, 681.269 207.776 C 678.269 196, 668.390 180.746, 659.285 173.829 C 651.607 167.998, 370.162 5.870, 363 3.153 C 357.567 1.092, 354.365 0.633, 343.500 0.354 C 334.261 0.116, 328.994 0.442, 325.294 1.478 M 327 157.055 C 245.970 161.977, 172.731 211.091, 136.955 284.500 C 119.893 319.507, 113.176 351.109, 114.262 391.249 C 115.683 443.720, 133.434 490.076, 167.799 531.058 C 203.169 573.241, 253.382 600.994, 310 609.654 C 333.661 613.273, 367.797 611.752, 392.602 605.974 C 450.639 592.456, 502.699 555.525, 533.991 505.674 C 537.609 499.910, 538.060 498.646, 536.888 497.552 C 536.125 496.840, 517.725 485.994, 496 473.451 C 474.275 460.908, 452.847 448.530, 448.382 445.944 L 440.264 441.244 435.957 447.872 C 426.401 462.579, 406.802 479.258, 389.335 487.546 C 361.086 500.952, 325.459 501.385, 296.141 488.681 C 279.382 481.418, 260.883 466.722, 250.103 452.105 C 240.184 438.658, 232.233 419.549, 229.471 402.523 C 223.739 367.180, 234.643 332.103, 259.406 306.224 C 280.871 283.792, 305.744 272.548, 336.657 271.301 C 362.290 270.268, 383.071 275.941, 404.500 289.821 C 413.137 295.416, 431.282 313.515, 436 321.242 C 437.925 324.395, 439.847 326.980, 440.271 326.987 C 440.830 326.997, 536.880 271.907, 538.773 270.492 C 539.209 270.165, 527.153 252.066, 522.125 245.500 C 507.808 226.804, 487.961 208.368, 467.674 194.920 C 425.476 166.948, 377.354 153.995, 327 157.055 M 0.489 384.500 C 0.489 479.100, 0.606 517.652, 0.750 470.171 C 0.894 422.690, 0.894 345.290, 0.750 298.171 C 0.606 251.052, 0.489 289.900, 0.489 384.500 M 518.780 358.719 L 518.500 371.500 505.750 371.780 L 493 372.060 493 384.530 L 493 397 506 397 L 519 397 519 409.500 L 519 422 531.500 422 L 544 422 544 409.500 L 544 397 556.500 397 L 569 397 569 384.500 L 569 372 556.530 372 L 544.060 372 543.780 359.250 L 543.500 346.500 531.280 346.219 L 519.060 345.939 518.780 358.719 M 613.780 358.719 L 613.500 371.500 600.750 371.780 L 588 372.060 588 384.530 L 588 397 601 397 L 614 397 614 409.500 L 614 422 626.500 422 L 639 422 639 409.500 L 639 397 651.500 397 L 664 397 664 384.500 L 664 372 651.530 372 L 639.060 372 638.780 359.250 L 638.500 346.500 626.280 346.219 L 614.060 345.939 613.780 358.719" stroke="none" fill="#3172af" fill-rule="evenodd"/></svg>