<?xml version="1.0" encoding="UTF-8"?>
<svg version="1.1" xmlns="http://www.w3.org/2000/svg" width="2048" height="2048">
<path d="M0 0 C1.6340284 -0.00702057 3.26805651 -0.01410741 4.90208435 -0.02125549 C10.10399767 -0.04068418 15.30586657 -0.04569042 20.5078125 -0.046875 C21.83726206 -0.04753778 21.83726206 -0.04753778 23.19356918 -0.04821396 C49.30091696 -0.05504196 75.27139846 0.138755 101.25585938 2.94665527 C103.77013062 3.21794142 106.28535122 3.47894821 108.80078125 3.73925781 C176.48890109 10.82399673 242.92592575 25.11769049 307.6328125 46.203125 C308.46447937 46.47382812 309.29614624 46.74453125 310.15301514 47.0234375 C355.55358933 61.83924262 399.41223525 79.9244438 442.6328125 100.203125 C443.57479492 100.64253418 444.51677734 101.08194336 445.48730469 101.53466797 C457.12235513 106.96559201 468.57163384 112.66317009 479.88574219 118.73388672 C482.98589582 120.39196747 486.09435041 122.03392341 489.203125 123.67578125 C504.56993785 131.8162349 519.68603488 140.30976582 534.6328125 149.203125 C536.35408851 150.22018436 538.07544022 151.23711563 539.796875 152.25390625 C569.55761675 169.90014532 598.46904954 189.11139014 626.6328125 209.203125 C627.3944873 209.74485352 628.15616211 210.28658203 628.94091797 210.84472656 C640.0183393 218.73478769 650.87856835 226.87921851 661.6328125 235.203125 C662.37031738 235.7717627 663.10782227 236.34040039 663.86767578 236.92626953 C673.99486837 244.73469024 684.00303126 252.67262583 693.89306641 260.77929688 C695.45229577 262.05538804 697.0168235 263.32499881 698.58203125 264.59375 C705.43820281 270.15875932 712.14194179 275.89033468 718.83007812 281.65478516 C720.60767163 283.18153191 722.39233265 284.69954208 724.1796875 286.21484375 C730.68257238 291.73689184 737.06533783 297.35287055 743.28344727 303.1953125 C744.72222308 304.54310314 746.17714197 305.87359924 747.6328125 307.203125 C748.39160737 307.90619467 749.15040224 308.60926434 749.9321909 309.33363914 C753.14708485 311.55912633 754.80762562 311.70464254 758.68260193 311.70864868 C759.8977095 311.71967117 761.11281708 311.73069366 762.36474609 311.74205017 C763.70337127 311.73414775 765.04199433 311.72588051 766.38061523 311.71728516 C767.7970506 311.72274839 769.21348004 311.72999122 770.62989807 311.73887634 C773.67741887 311.75420554 776.72460303 311.75701847 779.77215385 311.75011063 C784.60304208 311.73930103 789.43358083 311.7567375 794.26441956 311.77792358 C801.91868948 311.80818965 809.57285575 311.81987751 817.22718054 311.82350004 C830.89821226 311.83013436 844.56916993 311.85943927 858.24011379 311.9085964 C863.02903735 311.92497366 867.81781016 311.93053437 872.60675895 311.92700601 C875.60658365 311.92656445 878.60635301 311.93420052 881.60616112 311.94368172 C883.63114621 311.94758189 885.65614306 311.94164631 887.68112183 311.93525696 C910.04987502 312.03232173 928.61210342 317.14448406 945.21484375 332.69140625 C958.7799027 346.78241256 965.98222791 364.05686123 965.64299011 383.65634155 C965.62711341 384.73294664 965.62711341 384.73294664 965.61091596 385.83130133 C965.58738632 387.39457622 965.56142884 388.95781606 965.53331184 390.52101517 C965.45537149 394.87836604 965.39640657 399.23599754 965.33427429 403.59359741 C965.32054004 404.52196435 965.30680579 405.45033128 965.29265535 406.40683055 C965.11974482 418.37815726 965.05218696 430.35034599 964.98416173 442.32265735 C964.91803365 453.94801026 964.81817987 465.57023944 964.60083008 477.19384766 C964.42795838 486.4486616 964.33614017 495.70048608 964.334503 504.95696509 C964.33086283 509.83863535 964.29074619 514.71286689 964.15212059 519.59272385 C963.3987968 547.32654596 968.55003104 564.37123579 986.11203957 586.03311539 C989.32139383 590.00745365 992.07474765 594.23616543 994.7578125 598.578125 C995.57387291 599.85392017 996.39133554 601.12882086 997.2109375 602.40234375 C997.60216797 603.0164209 997.99339844 603.63049805 998.39648438 604.26318359 C999.27056598 605.63471843 1000.14710967 607.00468563 1001.02539062 608.37353516 C1009.21124053 621.13463206 1017.00039595 634.10456708 1024.6328125 647.203125 C1025.23528809 648.2338916 1025.83776367 649.2646582 1026.45849609 650.32666016 C1038.80064928 671.46303978 1050.47945391 692.9096781 1061.73828125 714.640625 C1063.59230722 718.2162023 1065.46815571 721.77834781 1067.37109375 725.328125 C1074.38866536 738.45593301 1080.71937926 751.86067129 1086.89404297 765.40185547 C1088.35614866 768.60490237 1089.83497282 771.79992798 1091.31855774 774.99307251 C1106.99357137 808.75193677 1120.84062205 843.25593746 1133.6328125 878.203125 C1133.9071814 878.95233215 1134.18155029 879.70153931 1134.4642334 880.47344971 C1165.38840964 965.10335688 1187.38755647 1053.49962041 1200.3828125 1153.328125 C1200.47791107 1154.09535889 1200.57300964 1154.86259277 1200.67098999 1155.65307617 C1201.25975625 1160.45453408 1201.7926041 1165.26022976 1202.3011198 1170.07079697 C1202.53047547 1172.2367089 1202.7633556 1174.40224947 1202.99907398 1176.56747818 C1205.2869792 1197.92318895 1206.09993165 1219.03862056 1206.06872058 1240.50758553 C1206.06555036 1243.90034996 1206.07180562 1247.29307564 1206.07775933 1250.68583441 C1206.09163946 1258.72385973 1206.09038611 1266.76177846 1206.07885742 1274.79980469 C1206.06867897 1282.05446236 1206.0757479 1289.30885086 1206.09936523 1296.56347656 C1206.34295625 1373.21513322 1206.34295625 1373.21513322 1201.6328125 1407.203125 C1201.36912714 1409.33931413 1201.10938641 1411.47599622 1200.85473633 1413.61328125 C1200.25100853 1418.57213737 1199.55894964 1423.51277494 1198.8203125 1428.453125 C1198.6975293 1429.29415771 1198.57474609 1430.13519043 1198.44824219 1431.00170898 C1194.84116077 1455.6599915 1190.34790398 1480.19541993 1184.41015625 1504.40429688 C1184.17554688 1505.36916016 1183.9409375 1506.33402344 1183.69921875 1507.328125 C1183.49240479 1508.15570312 1183.28559082 1508.98328125 1183.07250977 1509.8359375 C1182.40616965 1513.42329661 1182.01016331 1516.1622221 1183.91796875 1519.3515625 C1184.50449219 1520.08632812 1185.09101562 1520.82109375 1185.6953125 1521.578125 C1196.97300542 1536.96509874 1201.7834551 1555.14824366 1201.77998352 1574.02217102 C1201.78366021 1575.10167674 1201.7873369 1576.18118245 1201.791125 1577.29340047 C1201.80212558 1580.90564749 1201.80599957 1584.51786571 1201.80981445 1588.13012695 C1201.81608197 1590.72261139 1201.82272902 1593.31509494 1201.82972717 1595.90757751 C1201.84944059 1603.6838249 1201.85955211 1611.46007349 1201.86845496 1619.2363396 C1201.872847 1622.90648929 1201.87821149 1626.57663755 1201.88344383 1630.24678612 C1201.90045237 1642.4617562 1201.91494327 1654.67672542 1201.92219257 1666.89170551 C1201.92410219 1670.05776788 1201.92602256 1673.22383024 1201.92797852 1676.38989258 C1201.92846226 1677.17671601 1201.928946 1677.96353944 1201.9294444 1678.77420601 C1201.93773256 1691.50070309 1201.96305059 1704.22710581 1201.99555919 1716.95356176 C1202.02872796 1730.04619582 1202.04665024 1743.1387821 1202.04983681 1756.23145837 C1202.05199305 1763.57164026 1202.06061057 1770.91168463 1202.08629799 1778.25182533 C1202.11043811 1785.16544117 1202.11376947 1792.07880703 1202.10353661 1798.99245644 C1202.10304366 1801.51823753 1202.10929212 1804.04403119 1202.12309265 1806.56977463 C1202.28916835 1838.78945372 1195.2365478 1862.21525227 1172.328125 1885.55078125 C1153.70520326 1903.34940973 1130.4008914 1908.59417569 1105.41186523 1908.29980469 C1103.58726257 1908.28616109 1101.76265135 1908.27362351 1099.93803406 1908.26210022 C1096.02634842 1908.23643813 1092.11474599 1908.20573048 1088.20312309 1908.17186737 C1082.00141365 1908.12098928 1075.7998031 1908.09856751 1069.59791565 1908.08306885 C1068.54753079 1908.08035154 1067.49714594 1908.07763423 1066.41493124 1908.07483459 C1064.26791342 1908.06940207 1062.12089536 1908.06406688 1059.97387707 1908.05882692 C1045.55166164 1908.02320102 1031.13034141 1907.97235905 1016.70874023 1907.82958984 C1006.95801048 1907.73326898 997.2084451 1907.68723245 987.45722729 1907.69819379 C982.30917951 1907.70204464 977.16401787 1907.6812606 972.01656914 1907.59883881 C945.23395176 1906.10850532 945.23395176 1906.10850532 922.40294552 1917.90934372 C921.28799113 1919.1027048 920.19493752 1920.31709897 919.13023472 1921.55550194 C916.86239908 1924.05081572 914.30392744 1925.76827615 911.51171875 1927.6484375 C910.63008057 1928.26348145 909.74844238 1928.87852539 908.84008789 1929.51220703 C907.96731201 1930.11145996 907.09453613 1930.71071289 906.1953125 1931.328125 C905.22779053 1931.99569824 904.26026855 1932.66327148 903.26342773 1933.35107422 C825.88008264 1986.41357647 737.52401261 2021.91892984 612.5703125 2044.015625 C611.85661499 2044.11517487 611.14291748 2044.21472473 610.40759277 2044.31729126 C606.24662155 2044.89071581 602.08191303 2045.42030198 597.91208458 2045.92490673 C596.46391483 2046.10167689 595.01622168 2046.28243239 593.5692234 2046.46854877 C578.02370932 2048.44139143 562.49737108 2048.54754613 546.84971285 2048.57057071 C544.64011842 2048.57427194 542.43054491 2048.58054065 540.22095871 2048.5875721 C532.42610473 2048.61195692 524.6313159 2048.62508828 516.83642578 2048.62866211 C510.49707804 2048.63186341 504.15808443 2048.65284861 497.81884766 2048.69018555 C462.21065051 2048.89519718 427.11478304 2048.65953248 391.78688812 2043.51485062 C388.59384299 2043.05277122 385.39642131 2042.62311618 382.19970703 2042.18725586 C376.40978092 2041.37164565 370.64574354 2040.43983063 364.8828125 2039.453125 C363.89492737 2039.28804443 362.90704224 2039.12296387 361.88922119 2038.95288086 C306.55784107 2029.69475705 252.6841369 2015.10858404 199.66485596 1996.90045166 C197.75249892 1996.24419722 195.83893489 1995.59146306 193.92529297 1994.93896484 C163.89552213 1984.65687232 134.435164 1972.528738 105.6328125 1959.203125 C104.93540955 1958.88063782 104.23800659 1958.55815063 103.51947021 1958.22589111 C73.84839955 1944.48569462 44.615709 1930.07868986 16.28417969 1913.72802734 C13.64988947 1912.21294661 11.00645444 1910.71526305 8.359375 1909.22265625 C-17.51255434 1894.60893616 -42.77397553 1878.87942894 -67.3671875 1862.203125 C-68.08938477 1861.71521484 -68.81158203 1861.22730469 -69.55566406 1860.72460938 C-81.32109307 1852.76870244 -92.90796246 1844.5935256 -104.3671875 1836.203125 C-105.15125977 1835.62916992 -105.93533203 1835.05521484 -106.74316406 1834.46386719 C-111.53992368 1830.9483141 -116.3266412 1827.41945284 -121.10498047 1823.87890625 C-122.56918219 1822.79426556 -124.03429288 1821.7108504 -125.50048828 1820.62890625 C-135.09274269 1813.54679576 -144.41598349 1806.19256188 -153.62939453 1798.625 C-155.96399859 1796.71480978 -158.31986743 1794.83203387 -160.6796875 1792.953125 C-168.97412821 1786.32861329 -177.14137491 1779.57648922 -185.17700195 1772.64111328 C-188.66828453 1769.63469134 -192.20536346 1766.70544496 -195.8046875 1763.828125 C-201.78512087 1758.98008138 -207.33554946 1753.69956008 -212.93359375 1748.421875 C-215.4111256 1746.088827 -217.91484592 1743.80128645 -220.4921875 1741.578125 C-225.59000504 1737.1789377 -230.50642454 1732.58301319 -235.43659973 1727.99827576 C-236.68737721 1726.83524439 -237.93879188 1725.67289777 -239.19096375 1724.5113678 C-250.63014058 1713.88675034 -261.75634119 1702.97037519 -272.78222656 1691.91845703 C-275.52033082 1689.1749259 -278.2638313 1686.43687068 -281.0078125 1683.69921875 C-282.77636287 1681.93000853 -284.54460352 1680.16048863 -286.3125 1678.390625 C-287.11986603 1677.5852832 -287.92723206 1676.77994141 -288.75906372 1675.95019531 C-292.9814382 1671.71043292 -297.04766788 1667.39492166 -300.94064331 1662.84985352 C-302.65811488 1660.86729354 -304.48064732 1659.02461207 -306.3671875 1657.203125 C-309.51639631 1654.09598578 -312.44695717 1650.87822196 -315.328125 1647.5234375 C-317.40275499 1645.16265164 -319.53214622 1642.8636015 -321.67700195 1640.56689453 C-326.70281556 1635.18439005 -331.47786096 1629.69543238 -336.08984375 1623.94921875 C-338.58546385 1620.93992041 -341.20506269 1618.06395694 -343.8671875 1615.203125 C-348.12252026 1610.62384925 -352.14041673 1605.91026201 -356.0625 1601.0390625 C-358.5751356 1597.9472431 -361.1538088 1594.91888266 -363.7421875 1591.890625 C-368.99775535 1585.71753483 -374.01335441 1579.374136 -378.98779297 1572.97363281 C-380.83010313 1570.60895435 -382.68618069 1568.25526175 -384.54223633 1565.90136719 C-399.66487967 1546.71000633 -414.13358582 1527.06104169 -428.3671875 1507.203125 C-428.85364746 1506.52636719 -429.34010742 1505.84960938 -429.84130859 1505.15234375 C-443.63721099 1485.93045742 -456.57099055 1466.10007793 -469.3671875 1446.203125 C-469.85074707 1445.45353516 -470.33430664 1444.70394531 -470.83251953 1443.93164062 C-487.29526917 1418.36124611 -502.33030455 1391.89248734 -517.1171875 1365.328125 C-517.71926025 1364.24724609 -518.32133301 1363.16636719 -518.94165039 1362.05273438 C-522.21220674 1356.15848592 -525.42870356 1350.2394786 -528.59472656 1344.28857422 C-528.95986359 1343.60306992 -529.32500061 1342.91756561 -529.70120239 1342.21128845 C-530.59023622 1340.54209878 -531.47876517 1338.87264022 -532.3671875 1337.203125 C-533.31857511 1337.20073665 -534.26996271 1337.19834829 -535.25018024 1337.19588757 C-558.47326673 1337.13691285 -581.69625097 1337.06092019 -604.91922474 1336.96741009 C-616.14999766 1336.92257599 -627.38073974 1336.88313321 -638.61157227 1336.85668945 C-648.40821068 1336.83360859 -658.20475048 1336.80009927 -668.00131053 1336.75442344 C-673.18138251 1336.73062642 -678.36135766 1336.71180955 -683.54148293 1336.70551109 C-688.43265851 1336.69939841 -693.32358676 1336.67917993 -698.21467018 1336.64884949 C-699.99499789 1336.64016711 -701.77535805 1336.6363259 -703.55570602 1336.63811684 C-741.64456391 1336.66429814 -776.83659902 1324.25765419 -804.375 1297.328125 C-809.56597109 1292.0329985 -814.06102113 1286.22809025 -818.3671875 1280.203125 C-818.97022705 1279.36442871 -818.97022705 1279.36442871 -819.58544922 1278.50878906 C-836.09447214 1255.18511379 -842.69549773 1228.54816472 -842.62788391 1200.28425598 C-842.63090867 1198.48347573 -842.63479977 1196.68269676 -842.63947648 1194.88192004 C-842.64972359 1189.95934257 -842.64758305 1185.0368382 -842.64329588 1180.11425483 C-842.64082264 1174.79506457 -842.64985031 1169.47589163 -842.65733337 1164.15670776 C-842.67006632 1153.74519156 -842.67187577 1143.33370116 -842.66953311 1132.92217848 C-842.66774802 1124.45578807 -842.66950369 1115.98940546 -842.67375755 1107.52301598 C-842.67435274 1106.31671728 -842.67494793 1105.11041859 -842.67556116 1103.86756539 C-842.67677295 1101.41671223 -842.67798708 1098.96585907 -842.67920353 1096.51500591 C-842.69007391 1073.54297405 -842.6879191 1050.57095687 -842.68181869 1027.59892418 C-842.67665144 1006.60464196 -842.68790081 985.61040617 -842.70691691 964.61613313 C-842.72631129 943.03807996 -842.7345484 921.46004874 -842.73079365 899.8819868 C-842.72888386 887.77609936 -842.7313475 875.67025142 -842.74550819 863.56437111 C-842.75744345 853.2569902 -842.75880293 842.9496731 -842.74671803 832.64229129 C-842.74084407 827.38854407 -842.73968869 822.13491343 -842.75172043 816.88117409 C-842.76262916 812.06157089 -842.75941697 807.24218091 -842.74545874 802.42258748 C-842.74282546 800.68914248 -842.74513476 798.95568049 -842.75319461 797.22225223 C-842.81784618 782.26664902 -841.15903031 767.92194666 -836.2421875 753.703125 C-835.9428833 752.82712646 -835.6435791 751.95112793 -835.33520508 751.04858398 C-824.73565671 721.19828578 -803.03408624 695.56661381 -775.3671875 680.203125 C-774.76567871 679.86684082 -774.16416992 679.53055664 -773.54443359 679.18408203 C-765.95235389 674.99555192 -758.24168853 671.5733757 -749.9921875 668.890625 C-749.29915527 668.66036621 -748.60612305 668.43010742 -747.89208984 668.19287109 C-731.17915598 663.07498099 -714.56639882 662.8092917 -697.2421875 663.015625 C-695.0117279 663.03071541 -692.78125829 663.04439602 -690.55078125 663.05664062 C-685.15602696 663.08926307 -679.76165601 663.13910905 -674.3671875 663.203125 C-674.31965332 662.38827637 -674.27211914 661.57342773 -674.22314453 660.73388672 C-673.61117813 651.2008697 -672.53752594 641.78903372 -671.2421875 632.328125 C-671.13425873 631.5368924 -671.02632996 630.74565979 -670.91513062 629.93045044 C-659.38177339 545.99595673 -636.67756728 464.82167026 -572.3671875 333.203125 C-571.53670898 331.76694824 -571.53670898 331.76694824 -570.68945312 330.30175781 C-564.31974311 319.30457554 -557.8079631 308.46401596 -550.59863281 297.99511719 C-549.32124079 296.1362636 -548.05823217 294.26820287 -546.796875 292.3984375 C-536.28214371 276.87577056 -525.11188381 261.81625549 -513.3671875 247.203125 C-512.62210938 246.275 -511.87703125 245.346875 -511.109375 244.390625 C-501.74303869 232.84216733 -492.00410275 221.66630406 -481.85400391 210.80322266 C-480.38322971 209.22038947 -478.92595802 207.62622161 -477.47265625 206.02734375 C-467.98585642 195.60874777 -458.29107628 185.15794858 -447.5078125 176.0625 C-445.07676792 173.95086273 -442.73611845 171.75625276 -440.38964844 169.55151367 C-434.87121365 164.36861969 -429.29418897 159.35722617 -423.37890625 154.625 C-421.08820851 152.78293437 -418.82542488 150.92054561 -416.57421875 149.03125 C-350.88963799 94.0261417 -272.56205538 54.18723931 -33.3671875 1.203125 C-31.58380981 1.07213158 -31.58380981 1.07213158 -29.7644043 0.93849182 C-19.83425192 0.26228769 -9.95132115 0.02653947 0 0 Z M-51.3671875 247.203125 C-52.21829102 247.63077148 -53.06939453 248.05841797 -53.94628906 248.49902344 C-86.38569976 264.90437188 -116.52073146 285.91842076 -144.3671875 309.203125 C-144.95806152 309.69490234 -145.54893555 310.18667969 -146.15771484 310.69335938 C-159.71354462 322.00939894 -172.42362242 334.18282813 -184.9296875 346.640625 C-185.76258301 347.46884766 -186.59547852 348.29707031 -187.45361328 349.15039062 C-192.2977618 354.00725858 -196.91474696 358.98631109 -201.3671875 364.203125 C-202.3404038 365.32095897 -203.31433282 366.43817292 -204.2890625 367.5546875 C-211.24015526 375.57881655 -217.91720573 383.77149789 -224.3671875 392.203125 C-224.95435547 392.96963379 -225.54152344 393.73614258 -226.14648438 394.52587891 C-234.27732055 405.17190409 -242.18641462 415.89098541 -249.3671875 427.203125 C-250.10485352 428.36400635 -250.10485352 428.36400635 -250.85742188 429.54833984 C-291.90772836 494.44367368 -319.91482107 564.65183736 -335.8671875 639.703125 C-336.04535004 640.53630249 -336.22351257 641.36947998 -336.40707397 642.22790527 C-336.91194969 644.60352082 -337.40715766 646.98091456 -337.8984375 649.359375 C-338.12277214 650.41677887 -338.12277214 650.41677887 -338.35163879 651.49554443 C-339.1547715 655.4592312 -339.51502303 659.16123866 -339.3671875 663.203125 C-338.79328278 663.20899124 -338.21937805 663.21485748 -337.62808228 663.22090149 C-331.55872402 663.2857177 -325.48985379 663.37034106 -319.42089844 663.46557617 C-317.1673839 663.49847068 -314.91379397 663.52660805 -312.66015625 663.54956055 C-270.51237741 663.99016233 -235.0259832 676.06870645 -205.05688477 706.41040039 C-178.75139781 734.3198341 -170.19504194 770.0859786 -170.23347473 807.31838989 C-170.23160402 809.04405958 -170.22930229 810.76972885 -170.22660941 812.49539745 C-170.22051707 817.21498846 -170.22062197 821.93456169 -170.22180378 826.65415573 C-170.22200844 831.75317912 -170.21648281 836.8521969 -170.21174622 841.95121765 C-170.20345307 851.93306512 -170.20069197 861.91490669 -170.20013384 871.89675732 C-170.19965802 880.01419928 -170.1976 888.13163931 -170.19443321 896.24908066 C-170.18563011 919.28440014 -170.18101327 942.31971498 -170.18176369 965.35503615 C-170.18180364 966.59590157 -170.1818436 967.83676698 -170.18188477 969.11523438 C-170.18192565 970.35762217 -170.18196653 971.60000997 -170.18200865 972.88004588 C-170.18241497 993.00786663 -170.17284803 1013.13566867 -170.1587464 1033.26348402 C-170.14436746 1053.9510527 -170.13747706 1074.63861226 -170.13834018 1095.32618606 C-170.13867163 1106.93241217 -170.13594712 1118.53861865 -170.12516212 1130.14484024 C-170.11603712 1140.02769863 -170.11389826 1149.91052849 -170.12067155 1159.79338928 C-170.12392672 1164.83040452 -170.12402983 1169.8673651 -170.1153183 1174.90437508 C-170.10740781 1179.52598188 -170.10893073 1184.14749109 -170.11760243 1188.76909564 C-170.11912747 1190.43056616 -170.11735938 1192.09204412 -170.11174235 1193.75350584 C-170.06711622 1207.90399067 -170.75882816 1222.13141873 -174.6171875 1235.828125 C-174.83262207 1236.61461426 -175.04805664 1237.40110352 -175.27001953 1238.21142578 C-181.12790634 1258.9087342 -191.52346669 1276.87147572 -205.3671875 1293.203125 C-203.63219948 1298.27541351 -200.81198269 1302.61832825 -197.9921875 1307.140625 C-197.43200928 1308.04159912 -196.87183105 1308.94257324 -196.29467773 1309.87084961 C-172.14871104 1348.37875353 -145.60074099 1385.3158819 -116.79101562 1420.46337891 C-115.51492446 1422.02260827 -114.24531369 1423.587136 -112.9765625 1425.15234375 C-104.71438954 1435.33145972 -96.18125588 1445.27586002 -87.37109375 1454.984375 C-85.55406768 1456.99620893 -83.76774358 1459.02972934 -81.9921875 1461.078125 C-77.72113497 1465.97325827 -73.32810619 1470.75526757 -68.91699219 1475.52392578 C-67.89930976 1476.62657539 -66.88424553 1477.73164837 -65.87207031 1478.83935547 C-56.66301515 1488.91635672 -47.07158845 1498.60553972 -37.4296875 1508.265625 C-36.79581116 1508.90208954 -36.16193481 1509.53855408 -35.5088501 1510.19430542 C-26.49376925 1519.2814781 -26.49376925 1519.2814781 -16.96459961 1527.82006836 C-15.17622998 1529.36845808 -13.52312429 1531.0145891 -11.8671875 1532.703125 C-8.87846413 1535.73907425 -5.75012271 1538.54821159 -2.5234375 1541.328125 C-0.16755792 1543.37671594 2.1378871 1545.47515502 4.4453125 1547.578125 C8.71591401 1551.43334886 13.12054919 1555.07895015 17.59375 1558.6953125 C21.10339861 1561.59144927 24.52285842 1564.58008326 27.9453125 1567.578125 C34.37524995 1573.18951502 40.97463653 1578.5207169 47.73144531 1583.73144531 C49.77633741 1585.3142149 51.8106557 1586.90992024 53.84375 1588.5078125 C70.67240556 1601.71309108 87.88462741 1614.26303069 105.6328125 1626.203125 C106.75985596 1626.96471924 106.75985596 1626.96471924 107.90966797 1627.74169922 C179.55001236 1676.12885307 257.41147389 1714.82230901 661.98925781 1762.92578125 C723.42926521 1753.45121373 723.42926521 1753.45121373 776.6328125 1727.203125 C776.73533662 1725.13825702 776.76636632 1723.06983296 776.77084351 1721.00242615 C776.77366479 1720.34724174 776.77648607 1719.69205733 776.77939284 1719.01701885 C776.78777566 1716.80487258 776.7890803 1714.59277613 776.79052734 1712.38061523 C776.79519343 1710.80053566 776.80033665 1709.22045744 776.80592346 1707.64038086 C776.81722962 1704.22675642 776.82565214 1700.81314083 776.83204269 1697.39950371 C776.84271805 1691.98880131 776.86296709 1686.5781616 776.88516235 1681.16749573 C776.9470846 1665.77713939 777.00092978 1650.38678476 777.03417969 1634.99633789 C777.05260701 1626.50424628 777.081654 1618.01225788 777.1221844 1609.52024227 C777.14313954 1605.03052752 777.15869501 1600.54094228 777.16099167 1596.05117607 C777.16316156 1591.81333048 777.17926536 1587.57575331 777.20538139 1583.33798981 C777.21249098 1581.79505717 777.21471672 1580.25209169 777.21127892 1578.7091465 C777.16114531 1551.89366843 785.44353716 1527.50392987 804.6328125 1508.203125 C824.76796275 1489.30645922 850.42820856 1483.91761492 877.26489258 1483.88427734 C879.00078284 1483.87495883 880.73666871 1483.86478737 882.47254944 1483.85383606 C887.14517503 1483.82673853 891.81777083 1483.81144732 896.49045396 1483.79840803 C901.38850173 1483.78268805 906.28648943 1483.7559265 911.18449402 1483.7303772 C920.44177217 1483.68374544 929.69906182 1483.64692621 938.95639676 1483.61370432 C949.5030887 1483.57537215 960.04972007 1483.52599134 970.5963608 1483.47572017 C992.27513321 1483.37263261 1013.95394403 1483.28329743 1035.6328125 1483.203125 C1037.42100968 1479.64242497 1039.20746227 1476.0808554 1040.99239063 1472.51851559 C1041.89414046 1470.71968645 1042.79721987 1468.92152402 1043.70032501 1467.12337494 C1047.63994017 1459.25802836 1051.42031059 1451.38111342 1054.8203125 1443.265625 C1055.30677246 1442.11489502 1055.79323242 1440.96416504 1056.29443359 1439.77856445 C1084.50984724 1372.31072052 1101.21473216 1300.09846629 1106.6328125 1227.203125 C1106.68395203 1226.52815979 1106.73509155 1225.85319458 1106.78778076 1225.15777588 C1113.18320186 1140.08848435 1105.18179382 1054.75887806 1032.6328125 802.203125 C1032.35822205 801.5529541 1032.08363159 800.9027832 1031.80072021 800.23291016 C1023.0317582 779.49129838 1013.4908208 759.17558198 1003.51367188 738.99023438 C1002.21080693 736.34694963 1000.92252986 733.69659405 999.6328125 731.046875 C993.59140375 718.70757244 986.9731988 706.75748685 980.13476562 694.84423828 C978.37837311 691.75570541 976.67668384 688.64000825 974.98022461 685.51831055 C965.45371302 668.04334769 954.65029408 651.28543906 943.9453125 634.515625 C942.95700439 632.96669556 942.95700439 632.96669556 941.94873047 631.38647461 C938.63578028 626.22448571 935.25419956 621.15396965 931.6328125 616.203125 C926.54891411 617.03793488 922.10770936 618.97233891 917.375 620.94921875 C906.58251456 624.56548997 895.73623348 624.50109802 884.48779297 624.49365234 C882.67140937 624.49964656 880.8550283 624.50645414 879.03865051 624.51400757 C874.13127838 624.53158595 869.22397611 624.53635955 864.31657553 624.53763914 C861.24207056 624.53906618 858.16758304 624.54334625 855.09308243 624.54863358 C844.34264256 624.56710837 833.5922521 624.57530758 822.84179688 624.57373047 C812.86083291 624.57253046 802.88008566 624.59361182 792.89917648 624.6252178 C784.29747605 624.65147416 775.69584598 624.66209382 767.09410584 624.66081965 C761.97120726 624.66031267 756.8485014 624.6658482 751.72564316 624.68717575 C746.90080428 624.7067161 742.07633883 624.70657603 737.25148582 624.69214249 C735.49447386 624.69007257 733.73743754 624.69464487 731.98046684 624.7068634 C709.10336244 624.85547902 689.3282399 619.49703799 672.48828125 603.1171875 C655.84706081 585.48958497 653.48592996 564.94887374 653.47167969 541.8359375 C653.4670446 540.07896319 653.46201902 538.32198987 653.45663452 536.5650177 C653.44357308 531.81042896 653.43707757 527.05585431 653.43262386 522.30125046 C653.42968235 519.32291224 653.42557551 516.34457777 653.42111969 513.36624146 C653.4074598 504.02502747 653.39778638 494.68382219 653.3939178 485.34259892 C653.38944386 474.60208748 653.37192045 463.86170372 653.3429172 453.12123108 C653.32121346 444.79133856 653.31120886 436.46148174 653.30987668 428.13156128 C653.30883465 423.16962762 653.30305651 418.20781423 653.28505707 413.24591064 C653.2684258 408.57053608 653.26649289 403.89537026 653.27519608 399.21997643 C653.27595853 397.517793 653.27173027 395.81559764 653.26173782 394.11344337 C653.1704805 377.57938406 654.43138925 360.95639125 663.2890625 346.5 C664.80113445 344.35892373 664.80113445 344.35892373 664.6328125 342.203125 C663.26137865 340.9850797 663.26137865 340.9850797 661.41772461 339.81152344 C660.71032639 339.3358342 660.00292816 338.86014496 659.27409363 338.37004089 C658.49399429 337.8560524 657.71389496 337.3420639 656.91015625 336.8125 C656.10649124 336.27583206 655.30282623 335.73916412 654.47480774 335.18623352 C651.84505008 333.43408773 649.20818274 331.69302911 646.5703125 329.953125 C644.76594554 328.75708759 642.96158357 327.56104266 641.15722656 326.36499023 C628.49782789 317.9955566 615.73260109 309.86943372 602.6328125 302.203125 C601.83149902 301.72955566 601.03018555 301.25598633 600.20458984 300.76806641 C587.5165775 293.27072172 574.62094691 286.16536149 561.6328125 279.203125 C560.68229004 278.69023926 559.73176758 278.17735352 558.75244141 277.64892578 C540.75918157 267.96906479 522.32802106 259.41858337 503.6328125 251.203125 C502.98699219 250.91846375 502.34117187 250.63380249 501.67578125 250.34051514 C428.90092281 218.29920716 350.80390371 197.07207867 -51.3671875 247.203125 Z " fill="#FE7E29" transform="translate(842.3671875,-0.203125)"/>
<path d="M0 0 C1.78462318 -0.00346655 3.56924421 -0.00823775 5.35386086 -0.01418173 C10.20398106 -0.02658446 15.0539218 -0.02057084 19.90404224 -0.01122308 C25.15566472 -0.00438845 30.40725799 -0.01493553 35.65887451 -0.02316284 C45.92553778 -0.0364556 56.19213501 -0.03364238 66.45880079 -0.02492492 C74.80776477 -0.01813116 83.15671032 -0.01723895 91.50567627 -0.02049637 C92.69699649 -0.02095607 93.88831672 -0.02141577 95.11573756 -0.0218894 C97.53639079 -0.02284864 99.95704401 -0.02382128 102.37769723 -0.02480717 C125.04029188 -0.03334801 147.70285004 -0.02354746 170.3654387 -0.00740607 C189.7825438 0.00599591 209.19959509 0.00366745 228.61669922 -0.01016235 C251.20193809 -0.02624128 273.78714504 -0.03252415 296.37238884 -0.02332556 C298.78380203 -0.02236998 301.19521522 -0.02142687 303.60662842 -0.02049637 C305.38600798 -0.01980213 305.38600798 -0.01980213 307.2013346 -0.01909386 C315.53374669 -0.01651091 323.86613842 -0.02085995 332.19854736 -0.02793503 C342.36229566 -0.03637596 352.5259745 -0.03401557 362.68971491 -0.0180928 C367.86869024 -0.01024488 373.04755005 -0.00705868 378.22652435 -0.01704025 C382.97871444 -0.0260603 387.73068328 -0.02093555 392.48285365 -0.0051076 C394.19056316 -0.00179044 395.89829184 -0.00338356 397.60598874 -0.01073496 C434.19943044 -0.15602788 466.65487179 12.66528559 493.55615234 37.38095093 C494.29091797 38.03321655 495.02568359 38.68548218 495.78271484 39.35751343 C519.8434332 61.83398696 532.51261812 95.05411362 534.55615234 127.38095093 C534.6989797 133.08630653 534.69575595 138.78937067 534.68986511 144.49621582 C534.69173582 146.22188551 534.69403756 147.94755477 534.69673043 149.67322338 C534.70282278 154.39281439 534.70271787 159.11238762 534.70153606 163.83198166 C534.7013314 168.93100505 534.70685704 174.03002283 534.71159363 179.12904358 C534.71988677 189.11089105 534.72264787 199.09273262 534.72320601 209.07458325 C534.72368182 217.19202521 534.72573985 225.30946524 534.72890663 233.42690659 C534.73770974 256.46222607 534.74232657 279.4975409 534.74157616 302.53286208 C534.74151622 304.3941602 534.74151622 304.3941602 534.74145508 306.2930603 C534.74139376 308.156642 534.74139376 308.156642 534.7413312 310.0578718 C534.74092488 330.18569256 534.75049182 350.3134946 534.76459344 370.44130994 C534.77897239 391.12887863 534.78586279 411.81643819 534.78499967 432.50401199 C534.78466821 444.11023809 534.78739273 455.71644458 534.79817772 467.32266617 C534.80730272 477.20552455 534.80944158 487.08835442 534.8026683 496.9712152 C534.79941312 502.00823044 534.79931002 507.04519103 534.80802155 512.082201 C534.81593203 516.7038078 534.81440911 521.32531702 534.80573741 525.94692157 C534.80421237 527.60839209 534.80598046 529.26987005 534.81159749 530.93133177 C534.85622362 545.0818166 534.16451168 559.30924466 530.30615234 573.00595093 C530.09071777 573.79244019 529.8752832 574.57892944 529.65332031 575.38925171 C522.95736563 599.04765341 510.47104362 621.43433975 491.55615234 637.38095093 C490.69119141 638.14536499 489.82623047 638.90977905 488.93505859 639.69735718 C474.17255088 652.496872 457.44894479 661.82370291 438.80615234 667.63095093 C438.06977539 667.86523804 437.33339844 668.09952515 436.57470703 668.34091187 C421.75519455 672.69738601 406.58469924 673.82914178 391.2265625 673.76190186 C389.46653772 673.76536947 387.70651513 673.77014136 385.94649696 673.77608359 C381.16897515 673.78847179 376.39163581 673.78247952 371.61411381 673.77312493 C366.43883666 673.7662842 361.26358899 673.77684035 356.08831787 673.7850647 C345.9731893 673.79835104 335.85812781 673.79554713 325.74299669 673.78682677 C317.51658615 673.78003047 309.29019429 673.7791419 301.06378174 673.78239822 C299.88953789 673.78285792 298.71529405 673.78331762 297.50546706 673.78379125 C295.11944309 673.7847505 292.73341913 673.78572314 290.34739518 673.78670903 C268.01382177 673.79524798 245.68028541 673.78545228 223.34671807 673.76930793 C204.21533908 673.75590612 185.08401472 673.75823463 165.95263672 673.77206421 C143.6947941 673.78814647 121.43698389 673.79442415 99.17913628 673.78522742 C96.80226517 673.78427185 94.42539406 673.78332873 92.04852295 673.78239822 C90.87929027 673.7819354 89.71005759 673.78147257 88.50539362 673.78099572 C80.29616998 673.77841376 72.08696702 673.78275963 63.87774658 673.78983688 C53.8630038 673.79828154 43.84833149 673.79590968 33.83359671 673.77999465 C28.73145008 673.7721517 23.62942064 673.7689519 18.52727509 673.77894211 C13.84415394 673.78797265 9.16125705 673.78282069 4.47815585 673.76700945 C2.79670325 673.76369664 1.11523115 673.76527525 -0.5662086 673.77263682 C-38.23656051 673.92473042 -73.29210143 661.06501404 -100.45166016 634.50595093 C-105.64263124 629.21082443 -110.13768129 623.40591618 -114.44384766 617.38095093 C-114.84587402 616.82182007 -115.24790039 616.26268921 -115.66210938 615.68661499 C-132.1711323 592.36293972 -138.77215788 565.72599065 -138.70454407 537.46208191 C-138.70756883 535.66130166 -138.71145993 533.86052269 -138.71613663 532.05974597 C-138.72638374 527.1371685 -138.7242432 522.21466413 -138.71995604 517.29208076 C-138.7174828 511.97289049 -138.72651047 506.65371756 -138.73399353 501.33453369 C-138.74672647 490.92301749 -138.74853593 480.51152709 -138.74619327 470.10000441 C-138.74440818 461.63361399 -138.74616385 453.16723139 -138.75041771 444.7008419 C-138.7510129 443.49454321 -138.75160809 442.28824452 -138.75222131 441.04539132 C-138.7534331 438.59453816 -138.75464724 436.143685 -138.75586369 433.69283184 C-138.76673407 410.72079997 -138.76457926 387.7487828 -138.75847884 364.77675011 C-138.7533116 343.78246789 -138.76456096 322.7882321 -138.78357706 301.79395906 C-138.80297145 280.21590589 -138.81120856 258.63787466 -138.80745381 237.05981272 C-138.80554401 224.95392529 -138.80800766 212.84807735 -138.82216835 200.74219704 C-138.8341036 190.43481613 -138.83546309 180.12749903 -138.82337818 169.82011721 C-138.81750423 164.56636999 -138.81634885 159.31273935 -138.82838058 154.05900002 C-138.83928931 149.23939682 -138.83607713 144.42000684 -138.8221189 139.6004134 C-138.81948561 137.8669684 -138.82179491 136.13350642 -138.82985476 134.40007816 C-138.89450633 119.44447495 -137.23569047 105.09977259 -132.31884766 90.88095093 C-132.01954346 90.00495239 -131.72023926 89.12895386 -131.41186523 88.22640991 C-120.81231687 58.37611171 -99.1107464 32.74443974 -71.44384766 17.38095093 C-70.84233887 17.04466675 -70.24083008 16.70838257 -69.62109375 16.36190796 C-62.02901405 12.17337785 -54.31834869 8.75120162 -46.06884766 6.06845093 C-45.37581543 5.83819214 -44.6827832 5.60793335 -43.96875 5.37069702 C-29.57176332 0.96200395 -14.94665393 -0.06434325 0 0 Z " fill="#FE7E29" transform="translate(138.44384765625,662.6190490722656)"/>
<path d="M0 0 C3.71037247 4.3491866 6.5560345 9.06069842 9.5 13.9375 C33.74810699 53.57594182 61.13246915 91.33931262 90.57617188 127.26025391 C91.85226304 128.81948327 93.12187381 130.384011 94.390625 131.94921875 C102.65279796 142.12833472 111.18593162 152.07273502 119.99609375 161.78125 C121.81311982 163.79308393 123.59944392 165.82660434 125.375 167.875 C129.64468444 172.76856527 134.03615421 177.54922077 138.44580078 182.31640625 C139.47015458 183.42604241 140.4920292 184.53797312 141.51123047 185.65234375 C150.56146492 195.54505821 159.9675982 205.07405891 169.4375 214.5625 C170.04745819 215.17504639 170.65741638 215.78759277 171.28585815 216.41870117 C180.0864636 225.27457461 180.0864636 225.27457461 189.38500977 233.59936523 C191.17832426 235.15465552 192.83829534 236.8055439 194.5 238.5 C197.48872337 241.53594925 200.61706479 244.34508659 203.84375 247.125 C206.19962958 249.17359094 208.5050746 251.27203002 210.8125 253.375 C215.08310151 257.23022386 219.48773669 260.87582515 223.9609375 264.4921875 C227.47058611 267.38832427 230.89004592 270.37695826 234.3125 273.375 C240.74243745 278.98639002 247.34182403 284.3175919 254.09863281 289.52832031 C256.14352491 291.1110899 258.1778432 292.70679524 260.2109375 294.3046875 C277.03959306 307.50996608 294.25181491 320.05990569 312 332 C312.7513623 332.50772949 313.50272461 333.01545898 314.27685547 333.53857422 C385.91719986 381.92572807 463.77866139 420.61918401 868.35644531 468.72265625 C906.75283384 461.10718385 944.23536547 450.18532302 980.21362305 434.66748047 C982 434 982 434 984 434 C984.00808685 435.26374451 984.01617371 436.52748901 984.02450562 437.82952881 C984.10219984 449.7753881 984.18999687 461.72113676 984.28752708 473.66685104 C984.33734038 479.80733763 984.38367119 485.94780825 984.421875 492.08837891 C984.45891751 498.02124744 984.5053277 503.95397732 984.55806351 509.88672638 C984.57650711 512.14314578 984.59165152 514.39959478 984.60334396 516.65605927 C984.74838994 543.69498138 989.49118854 565.13378398 1008 586 C1008.61488281 586.71027344 1009.22976563 587.42054688 1009.86328125 588.15234375 C1024.93735836 604.45300529 1048.01777864 613.26048778 1069.84729004 614.15821838 C1071.19305445 614.17847048 1072.53889678 614.19396258 1073.88476562 614.20532227 C1074.99842499 614.22017166 1074.99842499 614.22017166 1076.13458252 614.23532104 C1078.55844062 614.26659673 1080.98231824 614.29155734 1083.40625 614.31640625 C1085.0987597 614.33700519 1086.7912646 614.35800238 1088.48376465 614.37937927 C1092.91581303 614.43429659 1097.34790547 614.48383831 1101.7800293 614.53222656 C1106.31172559 614.58266461 1110.84335873 614.63823369 1115.375 614.69335938 C1124.24994591 614.80056924 1133.1249469 614.9020951 1142 615 C1116.05084147 641.16491558 1079.18023034 660.69037368 1047 678 C1045.74630615 678.6811084 1045.74630615 678.6811084 1044.46728516 679.37597656 C972.08200775 718.5841162 891.04599865 741.8060999 793 754 C791.8660667 754.12355976 791.8660667 754.12355976 790.70922565 754.24961567 C783.33896454 754.99336679 776.03382873 755.16652698 768.62963867 755.19287109 C767.33642197 755.20104858 766.04320526 755.20922607 764.71080017 755.21765137 C760.44654358 755.24365293 756.18227852 755.25919587 751.91796875 755.2734375 C750.42599296 755.27881337 748.93401718 755.28419084 747.4420414 755.28956985 C741.20094106 755.31120081 734.95984298 755.32990763 728.71871471 755.34119225 C720.70579066 755.35579444 712.69319528 755.3797676 704.68041992 755.43212891 C668.90606498 755.66083628 633.64223186 755.50106204 598.15005875 750.31217194 C594.95921846 749.84888655 591.76382173 749.41941499 588.5690918 748.98388672 C582.77837481 748.16859454 577.01365772 747.23683005 571.25 746.25 C570.26211487 746.08491943 569.27422974 745.91983887 568.25640869 745.74975586 C512.92502857 736.49163205 459.0513244 721.90545904 406.03204346 703.69732666 C404.11968642 703.04107222 402.20612239 702.38833806 400.29248047 701.73583984 C370.26270963 691.45374732 340.8023515 679.325613 312 666 C311.30259705 665.67751282 310.60519409 665.35502563 309.88665771 665.02276611 C280.21558705 651.28256962 250.9828965 636.87556486 222.65136719 620.52490234 C220.01707697 619.00982161 217.37364194 617.51213805 214.7265625 616.01953125 C188.85463316 601.40581116 163.59321197 585.67630394 139 569 C138.27780273 568.51208984 137.55560547 568.02417969 136.81152344 567.52148438 C125.04609443 559.56557744 113.45922504 551.3904006 102 543 C101.21592773 542.42604492 100.43185547 541.85208984 99.62402344 541.26074219 C94.82726382 537.7451891 90.0405463 534.21632784 85.26220703 530.67578125 C83.79800531 529.59114056 82.33289462 528.5077254 80.86669922 527.42578125 C71.27444481 520.34367076 61.95120401 512.98943688 52.73779297 505.421875 C50.40318891 503.51168478 48.04732007 501.62890887 45.6875 499.75 C37.39305929 493.12548829 29.22581259 486.37336422 21.19018555 479.43798828 C17.69890297 476.43156634 14.16182404 473.50231996 10.5625 470.625 C4.58206663 465.77695638 -0.96836196 460.49643508 -6.56640625 455.21875 C-9.0439381 452.885702 -11.54765842 450.59816145 -14.125 448.375 C-19.22281754 443.9758127 -24.13923704 439.37988819 -29.06941223 434.79515076 C-30.32018971 433.63211939 -31.57160438 432.46977277 -32.82377625 431.3082428 C-44.26295308 420.68362534 -55.38915369 409.76725019 -66.41503906 398.71533203 C-69.15314332 395.9718009 -71.8966438 393.23374568 -74.640625 390.49609375 C-76.40917537 388.72688353 -78.17741602 386.95736363 -79.9453125 385.1875 C-80.75267853 384.3821582 -81.56004456 383.57681641 -82.39187622 382.74707031 C-86.6142507 378.50730792 -90.68048038 374.19179666 -94.57345581 369.64672852 C-96.29092738 367.66416854 -98.11345982 365.82148707 -100 364 C-103.14920881 360.89286078 -106.07976967 357.67509696 -108.9609375 354.3203125 C-111.03556749 351.95952664 -113.16495872 349.6604765 -115.30981445 347.36376953 C-120.33562806 341.98126505 -125.11067346 336.49230738 -129.72265625 330.74609375 C-132.21827635 327.73679541 -134.83787519 324.86083194 -137.5 322 C-141.75533276 317.42072425 -145.77322923 312.70713701 -149.6953125 307.8359375 C-152.2079481 304.7441181 -154.7866213 301.71575766 -157.375 298.6875 C-162.63056785 292.51440983 -167.64616691 286.171011 -172.62060547 279.77050781 C-174.46291563 277.40582935 -176.31899319 275.05213675 -178.17504883 272.69824219 C-193.29769217 253.50688133 -207.76639832 233.85791669 -222 214 C-222.48645996 213.32324219 -222.97291992 212.64648438 -223.47412109 211.94921875 C-237.27002349 192.72733242 -250.20380305 172.89695293 -263 153 C-263.48355957 152.25041016 -263.96711914 151.50082031 -264.46533203 150.72851562 C-278.05823149 129.61565118 -290.68657522 107.87922585 -303 86 C-303.91144775 84.38230713 -303.91144775 84.38230713 -304.84130859 82.73193359 C-306.49048114 79.799567 -308.13586718 76.86518789 -309.77682495 73.92822266 C-310.70746546 72.26358173 -311.64089783 70.60050255 -312.57446289 68.9375 C-315.94266164 62.88570699 -319.14674557 56.78143224 -322.22753906 50.5793457 C-322.59267609 49.84658669 -322.95781311 49.11382767 -323.33401489 48.35886383 C-324.22369637 46.57308358 -325.11199358 44.78661379 -326 43 C-324.18638867 42.99641747 -324.18638867 42.99641747 -322.33613873 42.99276257 C-293.56099469 42.93526025 -264.78591628 42.86242946 -236.01086093 42.77101372 C-232.46028459 42.7597471 -228.90970785 42.7486084 -225.35913086 42.73754883 C-224.29895723 42.7342433 -224.29895723 42.7342433 -223.21736596 42.730871 C-211.81032733 42.69560911 -200.40328876 42.67068252 -188.99621602 42.64965298 C-177.26994237 42.62780199 -165.54373872 42.59466449 -153.81752473 42.55129844 C-147.24017179 42.5274541 -140.66289583 42.50866786 -134.08550072 42.50238609 C-127.88110701 42.49629533 -121.67691006 42.4761527 -115.47258949 42.44572449 C-113.20849097 42.43700782 -110.94436667 42.43320828 -108.68025208 42.43499184 C-91.74571759 42.44411132 -75.14297034 41.45439526 -58.875 36.3125 C-58.05717041 36.05976318 -57.23934082 35.80702637 -56.39672852 35.54663086 C-34.69540445 28.56738435 -16.08327526 16.08327526 0 0 Z " fill="#1197C4" transform="translate(636,1293)"/>
<path d="M0 0 C1.6340284 -0.00702057 3.26805651 -0.01410741 4.90208435 -0.02125549 C10.10399767 -0.04068418 15.30586657 -0.04569042 20.5078125 -0.046875 C21.83726206 -0.04753778 21.83726206 -0.04753778 23.19356918 -0.04821396 C49.30091696 -0.05504196 75.27139846 0.138755 101.25585938 2.94665527 C103.77013062 3.21794142 106.28535122 3.47894821 108.80078125 3.73925781 C176.48890109 10.82399673 242.92592575 25.11769049 307.6328125 46.203125 C308.46447937 46.47382812 309.29614624 46.74453125 310.15301514 47.0234375 C355.55358933 61.83924262 399.41223525 79.9244438 442.6328125 100.203125 C443.57479492 100.64253418 444.51677734 101.08194336 445.48730469 101.53466797 C457.12235513 106.96559201 468.57163384 112.66317009 479.88574219 118.73388672 C482.98589582 120.39196747 486.09435041 122.03392341 489.203125 123.67578125 C504.56993785 131.8162349 519.68603488 140.30976582 534.6328125 149.203125 C536.35408851 150.22018436 538.07544022 151.23711563 539.796875 152.25390625 C569.55761675 169.90014532 598.46904954 189.11139014 626.6328125 209.203125 C627.3944873 209.74485352 628.15616211 210.28658203 628.94091797 210.84472656 C640.0183393 218.73478769 650.87856835 226.87921851 661.6328125 235.203125 C662.37031738 235.7717627 663.10782227 236.34040039 663.86767578 236.92626953 C673.99486837 244.73469024 684.00303126 252.67262583 693.89306641 260.77929688 C695.45229577 262.05538804 697.0168235 263.32499881 698.58203125 264.59375 C705.43820281 270.15875932 712.14194179 275.89033468 718.83007812 281.65478516 C720.60767163 283.18153191 722.39233265 284.69954208 724.1796875 286.21484375 C730.68257238 291.73689184 737.06533783 297.35287055 743.28344727 303.1953125 C745.62361921 305.38749686 747.96482924 307.45970392 750.50390625 309.421875 C751.20644531 310.0096875 751.90898438 310.5975 752.6328125 311.203125 C752.6328125 311.863125 752.6328125 312.523125 752.6328125 313.203125 C751.53517578 313.2124707 750.43753906 313.22181641 749.30664062 313.23144531 C745.15375179 313.27193948 741.00155864 313.33784742 736.84912109 313.41064453 C735.06698686 313.43851541 733.28473679 313.45989449 731.50244141 313.47412109 C709.66993788 313.65862112 691.14433318 317.86321387 674.6328125 333.203125 C671.52320459 336.44732788 668.5397286 339.7766152 665.6328125 343.203125 C660.78003454 340.49533691 656.13452611 337.61347557 651.5390625 334.4921875 C650.17676847 333.5743682 648.81429391 332.65681681 647.45166016 331.73950195 C646.74680481 331.26404938 646.04194946 330.7885968 645.31573486 330.29873657 C631.31436832 320.86616489 617.18711111 311.7659649 602.6328125 303.203125 C601.82279785 302.72375488 601.0127832 302.24438477 600.17822266 301.75048828 C587.4988992 294.25945012 574.61150409 287.16029971 561.6328125 280.203125 C560.20702881 279.43379639 560.20702881 279.43379639 558.75244141 278.64892578 C540.75918157 268.96906479 522.32802106 260.41858337 503.6328125 252.203125 C502.98699219 251.91846375 502.34117188 251.63380249 501.67578125 251.34051514 C428.90092281 219.29920716 350.80390371 198.07207867 1.66796875 224.234375 C-16.44908413 231.32390038 -34.00294523 239.44033052 -51.3671875 248.203125 C-52.64384277 248.84459473 -52.64384277 248.84459473 -53.94628906 249.49902344 C-86.38569976 265.90437188 -116.52073146 286.91842076 -144.3671875 310.203125 C-144.95806152 310.69490234 -145.54893555 311.18667969 -146.15771484 311.69335938 C-159.53089325 322.85692653 -172.09060927 334.85186634 -184.4296875 347.140625 C-185.21496826 347.92123291 -186.00024902 348.70184082 -186.80932617 349.50610352 C-191.53388954 354.24381737 -196.02033127 359.11821087 -200.3671875 364.203125 C-201.34049765 365.32087725 -202.31442866 366.43808926 -203.2890625 367.5546875 C-210.24015526 375.57881655 -216.91720573 383.77149789 -223.3671875 392.203125 C-223.95435547 392.96963379 -224.54152344 393.73614258 -225.14648438 394.52587891 C-233.27732055 405.17190409 -241.18641462 415.89098541 -248.3671875 427.203125 C-248.85896484 427.9770459 -249.35074219 428.7509668 -249.85742188 429.54833984 C-292.86484213 497.53762261 -320.70247832 570.70634419 -336.80078125 649.359375 C-336.94517639 650.06431091 -337.08957153 650.76924683 -337.23834229 651.49554443 C-338.02727816 655.39135063 -338.71325439 659.27952635 -339.3671875 663.203125 C-449.9171875 663.203125 -560.4671875 663.203125 -674.3671875 663.203125 C-673.23807317 647.39552443 -673.23807317 647.39552443 -672.421875 641.1484375 C-672.28657631 640.11080009 -672.28657631 640.11080009 -672.14854431 639.05220032 C-671.85292623 636.8099125 -671.54898408 634.56890959 -671.2421875 632.328125 C-671.08029434 631.14127609 -671.08029434 631.14127609 -670.91513062 629.93045044 C-659.38177339 545.99595673 -636.67756728 464.82167026 -572.3671875 333.203125 C-571.53670898 331.76694824 -571.53670898 331.76694824 -570.68945312 330.30175781 C-564.31974311 319.30457554 -557.8079631 308.46401596 -550.59863281 297.99511719 C-549.32124079 296.1362636 -548.05823217 294.26820287 -546.796875 292.3984375 C-536.28214371 276.87577056 -525.11188381 261.81625549 -513.3671875 247.203125 C-512.62210938 246.275 -511.87703125 245.346875 -511.109375 244.390625 C-501.74303869 232.84216733 -492.00410275 221.66630406 -481.85400391 210.80322266 C-480.38322971 209.22038947 -478.92595802 207.62622161 -477.47265625 206.02734375 C-467.98585642 195.60874777 -458.29107628 185.15794858 -447.5078125 176.0625 C-445.07676792 173.95086273 -442.73611845 171.75625276 -440.38964844 169.55151367 C-434.87121365 164.36861969 -429.29418897 159.35722617 -423.37890625 154.625 C-421.08820851 152.78293437 -418.82542488 150.92054561 -416.57421875 149.03125 C-350.88963799 94.0261417 -272.56205538 54.18723931 -33.3671875 1.203125 C-31.58380981 1.07213158 -31.58380981 1.07213158 -29.7644043 0.93849182 C-19.83425192 0.26228769 -9.95132115 0.02653947 0 0 Z " fill="#3FB4D5" transform="translate(842.3671875,-0.203125)"/>
<path d="M0 0 C1.78462318 -0.00346655 3.56924421 -0.00823775 5.35386086 -0.01418173 C10.20398106 -0.02658446 15.0539218 -0.02057084 19.90404224 -0.01122308 C25.15566472 -0.00438845 30.40725799 -0.01493553 35.65887451 -0.02316284 C45.92553778 -0.0364556 56.19213501 -0.03364238 66.45880079 -0.02492492 C74.80776477 -0.01813116 83.15671032 -0.01723895 91.50567627 -0.02049637 C92.69699649 -0.02095607 93.88831672 -0.02141577 95.11573756 -0.0218894 C97.53639079 -0.02284864 99.95704401 -0.02382128 102.37769723 -0.02480717 C125.04029188 -0.03334801 147.70285004 -0.02354746 170.3654387 -0.00740607 C189.7825438 0.00599591 209.19959509 0.00366745 228.61669922 -0.01016235 C251.20193809 -0.02624128 273.78714504 -0.03252415 296.37238884 -0.02332556 C298.78380203 -0.02236998 301.19521522 -0.02142687 303.60662842 -0.02049637 C305.38600798 -0.01980213 305.38600798 -0.01980213 307.2013346 -0.01909386 C315.53374669 -0.01651091 323.86613842 -0.02085995 332.19854736 -0.02793503 C342.36229566 -0.03637596 352.5259745 -0.03401557 362.68971491 -0.0180928 C367.86869024 -0.01024488 373.04755005 -0.00705868 378.22652435 -0.01704025 C382.97871444 -0.0260603 387.73068328 -0.02093555 392.48285365 -0.0051076 C394.19056316 -0.00179044 395.89829184 -0.00338356 397.60598874 -0.01073496 C434.19943044 -0.15602788 466.65487179 12.66528559 493.55615234 37.38095093 C494.29091797 38.03321655 495.02568359 38.68548218 495.78271484 39.35751343 C519.8434332 61.83398696 532.51261812 95.05411362 534.55615234 127.38095093 C534.6989797 133.08630653 534.69575595 138.78937067 534.68986511 144.49621582 C534.69173582 146.22188551 534.69403756 147.94755477 534.69673043 149.67322338 C534.70282278 154.39281439 534.70271787 159.11238762 534.70153606 163.83198166 C534.7013314 168.93100505 534.70685704 174.03002283 534.71159363 179.12904358 C534.71988677 189.11089105 534.72264787 199.09273262 534.72320601 209.07458325 C534.72368182 217.19202521 534.72573985 225.30946524 534.72890663 233.42690659 C534.73770974 256.46222607 534.74232657 279.4975409 534.74157616 302.53286208 C534.74151622 304.3941602 534.74151622 304.3941602 534.74145508 306.2930603 C534.74139376 308.156642 534.74139376 308.156642 534.7413312 310.0578718 C534.74092488 330.18569256 534.75049182 350.3134946 534.76459344 370.44130994 C534.77897239 391.12887863 534.78586279 411.81643819 534.78499967 432.50401199 C534.78466821 444.11023809 534.78739273 455.71644458 534.79817772 467.32266617 C534.80730272 477.20552455 534.80944158 487.08835442 534.8026683 496.9712152 C534.79941312 502.00823044 534.79931002 507.04519103 534.80802155 512.082201 C534.81593203 516.7038078 534.81440911 521.32531702 534.80573741 525.94692157 C534.80421237 527.60839209 534.80598046 529.26987005 534.81159749 530.93133177 C534.85622362 545.0818166 534.16451168 559.30924466 530.30615234 573.00595093 C530.09071777 573.79244019 529.8752832 574.57892944 529.65332031 575.38925171 C522.95736563 599.04765341 510.47104362 621.43433975 491.55615234 637.38095093 C490.69119141 638.14536499 489.82623047 638.90977905 488.93505859 639.69735718 C474.17255088 652.496872 457.44894479 661.82370291 438.80615234 667.63095093 C438.06977539 667.86523804 437.33339844 668.09952515 436.57470703 668.34091187 C421.75519455 672.69738601 406.58469924 673.82914178 391.2265625 673.76190186 C389.46653772 673.76536947 387.70651513 673.77014136 385.94649696 673.77608359 C381.16897515 673.78847179 376.39163581 673.78247952 371.61411381 673.77312493 C366.43883666 673.7662842 361.26358899 673.77684035 356.08831787 673.7850647 C345.9731893 673.79835104 335.85812781 673.79554713 325.74299669 673.78682677 C317.51658615 673.78003047 309.29019429 673.7791419 301.06378174 673.78239822 C299.88953789 673.78285792 298.71529405 673.78331762 297.50546706 673.78379125 C295.11944309 673.7847505 292.73341913 673.78572314 290.34739518 673.78670903 C268.01382177 673.79524798 245.68028541 673.78545228 223.34671807 673.76930793 C204.21533908 673.75590612 185.08401472 673.75823463 165.95263672 673.77206421 C143.6947941 673.78814647 121.43698389 673.79442415 99.17913628 673.78522742 C96.80226517 673.78427185 94.42539406 673.78332873 92.04852295 673.78239822 C90.87929027 673.7819354 89.71005759 673.78147257 88.50539362 673.78099572 C80.29616998 673.77841376 72.08696702 673.78275963 63.87774658 673.78983688 C53.8630038 673.79828154 43.84833149 673.79590968 33.83359671 673.77999465 C28.73145008 673.7721517 23.62942064 673.7689519 18.52727509 673.77894211 C13.84415394 673.78797265 9.16125705 673.78282069 4.47815585 673.76700945 C2.79670325 673.76369664 1.11523115 673.76527525 -0.5662086 673.77263682 C-38.23656051 673.92473042 -73.29210143 661.06501404 -100.45166016 634.50595093 C-105.64263124 629.21082443 -110.13768129 623.40591618 -114.44384766 617.38095093 C-114.84587402 616.82182007 -115.24790039 616.26268921 -115.66210938 615.68661499 C-132.1711323 592.36293972 -138.77215788 565.72599065 -138.70454407 537.46208191 C-138.70756883 535.66130166 -138.71145993 533.86052269 -138.71613663 532.05974597 C-138.72638374 527.1371685 -138.7242432 522.21466413 -138.71995604 517.29208076 C-138.7174828 511.97289049 -138.72651047 506.65371756 -138.73399353 501.33453369 C-138.74672647 490.92301749 -138.74853593 480.51152709 -138.74619327 470.10000441 C-138.74440818 461.63361399 -138.74616385 453.16723139 -138.75041771 444.7008419 C-138.7510129 443.49454321 -138.75160809 442.28824452 -138.75222131 441.04539132 C-138.7534331 438.59453816 -138.75464724 436.143685 -138.75586369 433.69283184 C-138.76673407 410.72079997 -138.76457926 387.7487828 -138.75847884 364.77675011 C-138.7533116 343.78246789 -138.76456096 322.7882321 -138.78357706 301.79395906 C-138.80297145 280.21590589 -138.81120856 258.63787466 -138.80745381 237.05981272 C-138.80554401 224.95392529 -138.80800766 212.84807735 -138.82216835 200.74219704 C-138.8341036 190.43481613 -138.83546309 180.12749903 -138.82337818 169.82011721 C-138.81750423 164.56636999 -138.81634885 159.31273935 -138.82838058 154.05900002 C-138.83928931 149.23939682 -138.83607713 144.42000684 -138.8221189 139.6004134 C-138.81948561 137.8669684 -138.82179491 136.13350642 -138.82985476 134.40007816 C-138.89450633 119.44447495 -137.23569047 105.09977259 -132.31884766 90.88095093 C-132.01954346 90.00495239 -131.72023926 89.12895386 -131.41186523 88.22640991 C-120.81231687 58.37611171 -99.1107464 32.74443974 -71.44384766 17.38095093 C-70.84233887 17.04466675 -70.24083008 16.70838257 -69.62109375 16.36190796 C-62.02901405 12.17337785 -54.31834869 8.75120162 -46.06884766 6.06845093 C-45.37581543 5.83819214 -44.6827832 5.60793335 -43.96875 5.37069702 C-29.57176332 0.96200395 -14.94665393 -0.06434325 0 0 Z M-71.99072266 76.27157593 C-80.74408811 86.81791883 -87.15283314 99.05910451 -90.44384766 112.38095093 C-90.94861886 113.9507092 -90.94861886 113.9507092 -91.46358746 115.55217975 C-92.47962789 119.52070394 -92.69560064 122.86000517 -92.69832325 126.94988346 C-92.70152973 127.68314345 -92.70473621 128.41640344 -92.70803985 129.17188343 C-92.71632871 131.62430776 -92.71041948 134.07648716 -92.70454407 136.52891541 C-92.70756528 138.30689448 -92.71145461 140.08487226 -92.71613663 141.86284775 C-92.72642972 146.74550598 -92.72423144 151.6280909 -92.71995604 156.51075518 C-92.71749111 161.77816921 -92.72650024 167.04556548 -92.73399353 172.31297302 C-92.74675034 182.63259304 -92.74853289 192.95218706 -92.74619327 203.27181364 C-92.74441057 211.6620718 -92.74615873 220.05232206 -92.75041771 228.44257927 C-92.7510129 229.63654477 -92.75160809 230.83051028 -92.75222131 232.06065656 C-92.75343307 234.48622958 -92.7546472 236.91180261 -92.75586369 239.33737563 C-92.76674361 262.09230823 -92.76457496 284.847226 -92.75847884 307.60215943 C-92.75331278 328.40802387 -92.76455614 349.21384144 -92.78357706 370.0196966 C-92.80296264 391.38852474 -92.81120997 412.75733072 -92.80745381 434.12616771 C-92.80554241 446.12081025 -92.8080231 458.11541293 -92.82216835 470.11004829 C-92.83409248 480.32467796 -92.83547565 490.53924326 -92.82337818 500.75387383 C-92.81749597 505.9626591 -92.81637182 511.17132669 -92.82838058 516.38010406 C-92.8392615 521.15534049 -92.83610975 525.9303613 -92.8221189 530.70558774 C-92.81947798 532.42634289 -92.82181934 534.14711506 -92.82985476 535.86785347 C-92.94145431 561.56507929 -85.37432832 582.61048379 -67.44384766 601.38095093 C-66.63367188 602.30327515 -66.63367188 602.30327515 -65.80712891 603.24423218 C-52.58442166 617.73258899 -31.65404673 626.09149464 -12.44384766 627.38095093 C-6.71549751 627.53021869 -0.98901344 627.52910771 4.74098206 627.52812195 C6.48641301 627.5314258 8.23184321 627.53515246 9.97727245 627.53926343 C14.75612698 627.54923171 19.53496896 627.55299182 24.3138324 627.55565274 C29.47490792 627.55957105 34.63597363 627.56914805 39.79704285 627.5778656 C52.2498654 627.59758371 64.70268872 627.60768885 77.15552297 627.61659339 C83.02639611 627.62098263 88.89726836 627.62634767 94.76814079 627.63158226 C114.29371357 627.64858745 133.8192858 627.66308155 153.34486485 627.670331 C158.40626082 627.67224073 163.46765678 627.67416109 168.52905273 627.67611694 C169.78695911 627.67660068 171.04486548 627.67708442 172.34089022 627.67758282 C192.71775589 627.68588307 213.09456285 627.71122312 233.47140289 627.74369762 C254.41206253 627.77679761 275.35269236 627.79478229 296.29337829 627.79797524 C308.04273018 627.80013726 319.79199638 627.8088412 331.54132271 627.83443642 C341.54682779 627.8561833 351.55222634 627.86417408 361.55775238 627.85446963 C366.65760729 627.84993696 371.75724257 627.85175111 376.85706711 627.87123108 C381.5361683 627.88894888 386.21489102 627.88779573 390.89399671 627.87233379 C392.57636255 627.86997077 394.25875522 627.87421249 395.94108028 627.88616244 C410.28985119 627.98167815 424.45252214 626.21227746 437.43115234 619.63095093 C438.47891846 619.11879028 438.47891846 619.11879028 439.54785156 618.59628296 C445.70819344 615.49267517 451.19947074 611.7252013 456.55615234 607.38095093 C457.16201172 606.93751343 457.76787109 606.49407593 458.39208984 606.03720093 C474.73166566 593.45649467 484.59161605 571.5787839 488.12091184 551.77807343 C488.99912953 544.92344237 488.83768822 538.01952378 488.82357788 531.12055969 C488.82731921 529.379102 488.83192265 527.63764599 488.83730853 525.89619261 C488.84949446 521.13291135 488.84928327 516.36970056 488.84691978 511.60640728 C488.84651049 506.46032141 488.8575615 501.31425779 488.86703491 496.16818237 C488.88362215 486.09375332 488.88914345 476.01934768 488.89025967 465.94490611 C488.89121131 457.75166928 488.8953274 449.55844015 488.90166092 441.36520576 C488.91926783 418.11359891 488.92850076 394.86201049 488.92699997 371.61039691 C488.92692006 370.35784624 488.92684015 369.10529557 488.92675781 367.81478882 C488.92667605 366.56070087 488.92659429 365.30661293 488.92651005 364.01452232 C488.92569751 343.69982402 488.94482858 323.38519992 488.97303455 303.07052308 C489.00179674 282.1897135 489.01557297 261.30894007 489.01384699 240.42811018 C489.0131842 228.71395804 489.01862778 216.99988368 489.04020309 205.28574944 C489.05845889 195.31030141 489.06272623 185.33496641 489.04918425 175.35950886 C489.04267654 170.27572941 489.04245754 165.19216652 489.05989075 160.10840797 C489.07572439 155.44285702 489.0726539 150.7776925 489.05532248 146.11215038 C489.05227505 144.43585599 489.05579842 142.75953201 489.06704263 141.08327257 C489.23426216 114.35702311 480.90977493 90.7118593 462.37646484 71.04501343 C446.6320131 56.17283048 425.87344409 46.27061234 404.04968929 46.24952316 C403.3231828 46.24747053 402.5966763 46.2454179 401.84815446 46.24330306 C399.41876683 46.23765795 396.98943634 46.23908722 394.56004333 46.24050903 C392.79856443 46.23792397 391.03708611 46.23491041 389.2756086 46.23150563 C384.4385761 46.22344897 379.60155846 46.2216468 374.76452005 46.22090816 C369.54619028 46.21905528 364.32786817 46.21150675 359.10954285 46.20477295 C347.70029135 46.19119847 336.29104338 46.18516626 324.88178515 46.18076229 C317.75560669 46.17799831 310.62942958 46.17376067 303.50325203 46.16925812 C283.76676614 46.15706649 264.03028134 46.14676704 244.29379177 46.14338303 C243.03092187 46.14316346 241.76805197 46.14294389 240.46691329 46.14271767 C239.20104868 46.1424994 237.93518407 46.14228112 236.63095993 46.14205623 C234.06590362 46.14161276 231.50084732 46.1411662 228.93579102 46.14071655 C227.66343875 46.14049512 226.39108648 46.14027369 225.08017809 46.14004555 C204.46831182 46.13609841 183.85648092 46.11864645 163.2446283 46.09535703 C142.07468537 46.07163042 120.90476018 46.05918057 99.73480374 46.05801511 C87.85193999 46.05709907 75.96912232 46.05136477 64.08627129 46.0331955 C53.96680012 46.01777685 43.84738929 46.01268447 33.7279086 46.0209336 C28.5677261 46.02483386 23.40766503 46.02394098 18.24749756 46.00987625 C13.5166757 45.99710005 8.78606606 45.99836741 4.05524433 46.01046696 C2.35063768 46.01241753 0.6460158 46.00937538 -1.0585695 46.0006226 C-28.55277226 45.86846751 -53.54316631 55.33416535 -71.99072266 76.27157593 Z " fill="#D35500" transform="translate(138.44384765625,662.6190490722656)"/>
<path d="M0 0 C6.73209461 -0.00034655 13.46413752 -0.01200795 20.19621581 -0.02593333 C26.77976 -0.03905353 33.36328129 -0.04437215 39.94683844 -0.04373425 C43.84123975 -0.04348192 47.73557752 -0.04618863 51.62996542 -0.0569123 C55.27070641 -0.06667809 58.91132365 -0.06661532 62.55206931 -0.05939567 C64.49563263 -0.0578759 66.43919623 -0.06612336 68.38274062 -0.07483566 C90.59088078 0.00335442 109.07567773 5.25723301 125.53877699 20.67339432 C139.22507124 34.89033649 146.05169877 51.99804937 146.09718764 71.6878444 C146.10164432 72.77208269 146.10164432 72.77208269 146.10619104 73.87822479 C146.11481394 76.28351139 146.11638087 78.68874783 146.11787856 81.09404862 C146.1225116 82.82615621 146.12753692 84.55826279 146.13292372 86.2903682 C146.14601059 90.98742739 146.15248647 95.6844723 146.15693438 100.38154685 C146.15987363 103.32472067 146.16398021 106.26789067 146.16843855 109.21106255 C146.18210927 118.44390057 146.19177566 127.67672976 146.19564044 136.90957719 C146.20010776 147.5204683 146.21759556 158.13122974 146.24664104 168.74208146 C146.26837525 176.97176909 146.27835109 185.20142057 146.27968156 193.43113655 C146.28072206 198.33227473 146.28646565 203.23329096 146.30450118 208.13439858 C146.32118408 212.75804771 146.32304122 217.38148592 146.31436217 222.00515473 C146.31360222 223.68511317 146.31779323 225.36508391 146.32782042 227.04501259 C146.3786887 236.11300196 145.91469371 244.92347758 144.60634291 253.90564835 C144.48792139 254.72866651 144.36949986 255.55168466 144.24748981 256.39964277 C143.08096434 263.71793116 140.65891899 269.73475448 136.95674574 276.18511307 C136.44240981 277.12483963 135.92807387 278.0645662 135.39815199 279.03276932 C129.90614838 288.39683304 122.27906135 296.54988442 112.95674574 302.18511307 C112.29674574 302.18511307 111.63674574 302.18511307 110.95674574 302.18511307 C110.95674574 302.84511307 110.95674574 303.50511307 110.95674574 304.18511307 C99.12135733 309.87779989 88.37889888 313.33579546 75.13011611 313.33228409 C74.37250546 313.33596078 73.61489481 313.33963747 72.83432627 313.34342557 C70.31148639 313.35438336 67.7886878 313.35829277 65.26582778 313.36211503 C63.45003566 313.36838585 61.63424481 313.37503319 59.81845534 313.38202775 C53.86716528 313.40300391 47.91587517 313.41342685 41.96455824 313.42339432 C39.90854691 313.42744484 37.85253571 313.43156185 35.79652464 313.4357444 C26.13067307 313.45478507 16.46482906 313.46901622 6.79896235 313.47735637 C-4.32194713 313.48711279 -15.44265674 313.51339535 -26.56349587 313.55385727 C-35.18209206 313.58412783 -43.80063131 313.59883573 -52.41927958 313.60213739 C-57.55566433 313.60447614 -62.6918353 313.61328194 -67.82816255 313.63859856 C-72.66934722 313.66207538 -77.51018032 313.66603468 -82.35140741 313.65583718 C-84.11487255 313.65534637 -85.87835618 313.66153001 -87.64176691 313.67539322 C-110.69892766 313.84631448 -130.47216403 308.39553275 -147.41044176 291.87651932 C-164.53075001 273.86272696 -167.18973439 253.58354513 -167.20438707 229.81792557 C-167.20902216 228.06095126 -167.21404774 226.30397795 -167.21943223 224.54700577 C-167.23249368 219.79241704 -167.23898919 215.03784238 -167.24344289 210.28323853 C-167.2463844 207.30490031 -167.25049124 204.32656584 -167.25494707 201.34822953 C-167.26860696 192.00701555 -167.27828038 182.66581026 -167.28214896 173.32458699 C-167.2866229 162.58407555 -167.3041463 151.8436918 -167.33314955 141.10321915 C-167.35485329 132.77332663 -167.36485789 124.44346981 -167.36619008 116.11354935 C-167.36723211 111.1516157 -167.37301025 106.18980231 -167.39100969 101.22789872 C-167.40764096 96.55252415 -167.40957387 91.87735833 -167.40087068 87.2019645 C-167.40010822 85.49978107 -167.40433648 83.79758571 -167.41432893 82.09543145 C-167.51841456 63.23713132 -165.84643176 44.06369149 -153.04325426 29.18511307 C-152.39614488 28.39491776 -151.74903551 27.60472245 -151.08231676 26.79058182 C-138.45549447 11.95292604 -122.02772796 2.70138068 -102.53011644 0.85186112 C-98.48225388 0.66209887 -94.44238489 0.56732553 -90.39091051 0.50933182 C-88.7416581 0.47649387 -87.09241216 0.44333056 -85.44317186 0.40989029 C-56.96877654 -0.11045821 -28.47807144 -0.00216722 0 0 Z " fill="#FE7E29" transform="translate(1662.0432542562485,311.8148869276047)"/>
<path d="M0 0 C3.98360937 3.59080091 6.72271136 7.81230163 9.65625 12.25390625 C10.19922729 13.06883041 10.74220459 13.88375458 11.30163574 14.72337341 C12.45360486 16.45434568 13.60333242 18.18681152 14.75097656 19.9206543 C16.46166341 22.50459376 18.17936262 25.08374505 19.8984375 27.66210938 C30.35231775 43.37583026 40.45678377 59.30377282 50.25 75.4375 C50.60106812 76.01584595 50.95213623 76.59419189 51.31384277 77.19006348 C67.59006451 104.04138526 82.66252321 131.56097251 97.10546875 159.4375 C98.95949472 163.0130773 100.83534321 166.57522281 102.73828125 170.125 C109.75585286 183.25280801 116.08656676 196.65754629 122.26123047 210.19873047 C123.72333616 213.40177737 125.20216032 216.59680298 126.68574524 219.78994751 C142.36075887 253.54881177 156.20780955 288.05281246 169 323 C169.2743689 323.74920715 169.54873779 324.49841431 169.8314209 325.27032471 C200.75559714 409.90023188 222.75474397 498.29649541 235.75 598.125 C235.84509857 598.89223389 235.94019714 599.65946777 236.03817749 600.44995117 C236.62694375 605.25140908 237.1597916 610.05710476 237.6683073 614.86767197 C237.89766297 617.0335839 238.1305431 619.19912447 238.36626148 621.36435318 C240.6541667 642.72006395 241.46711915 663.83549556 241.43590808 685.30446053 C241.43273786 688.69722496 241.43899312 692.08995064 241.44494683 695.48270941 C241.45882696 703.52073473 241.45757361 711.55865346 241.44604492 719.59667969 C241.43586647 726.85133736 241.4429354 734.10572586 241.46655273 741.36035156 C241.71014375 818.01200822 241.71014375 818.01200822 237 852 C236.73631464 854.13618913 236.47657391 856.27287122 236.22192383 858.41015625 C235.61818268 863.36900985 234.92636704 868.30968255 234.1875 873.25 C234.00282669 874.51354309 234.00282669 874.51354309 233.81442261 875.8026123 C229.61097391 904.50103747 223.90853873 932.83588369 217 961 C216.34 961 215.68 961 215 961 C213.625 959.53125 213.625 959.53125 212 957.5 C198.3256792 941.51373218 177.75538846 931.96809577 157 930 C150.31425517 929.61320469 143.61274705 929.62784522 136.91796875 929.5859375 C135.00839943 929.56718905 133.09883808 929.54761302 131.18928528 929.5272522 C126.20658096 929.47631292 121.22384988 929.43648481 116.24102783 929.39910889 C111.13913567 929.3588273 106.03735107 929.3078462 100.93554688 929.2578125 C90.95710724 929.16150667 80.97860631 929.07695941 71 929 C71.64551287 925.54212312 72.43524126 922.79839538 74.08203125 919.68359375 C74.51330322 918.85190674 74.9445752 918.02021973 75.38891602 917.16333008 C75.85869873 916.26380615 76.32848145 915.36428223 76.8125 914.4375 C114.73523587 840.04939218 134.83197522 754.98516147 141 672 C141.07670929 670.98755219 141.07670929 670.98755219 141.15496826 669.95465088 C147.55038936 584.88535935 139.54898132 499.55575306 67 247 C66.72540955 246.3498291 66.45081909 245.6996582 66.16790771 245.02978516 C57.3989457 224.28817338 47.8580083 203.97245698 37.88085938 183.78710938 C36.57799443 181.14382463 35.28971736 178.49346905 34 175.84375 C27.95859125 163.50444744 21.3403863 151.55436185 14.50195312 139.64111328 C12.74556061 136.55258041 11.04387134 133.43688325 9.34741211 130.31518555 C-0.17909948 112.84022269 -10.98251842 96.08231406 -21.6875 79.3125 C-22.67580811 77.76357056 -22.67580811 77.76357056 -23.68408203 76.18334961 C-26.35406087 72.02319013 -29.0309492 67.90322887 -31.95703125 63.91796875 C-34 61 -34 61 -34 59 C-32.56473708 57.91830916 -31.07361804 56.91041161 -29.5625 55.9375 C-14.97191198 45.94253504 -4.98869114 31.1511389 -1.55029297 13.72021484 C-0.82447184 9.16329527 -0.35474513 4.59945405 0 0 Z " fill="#52C1DC" transform="translate(1807,555)"/>
<path d="M0 0 C1.59634987 -0.00107631 3.19269935 -0.00302014 4.78904724 -0.00575256 C9.11213472 -0.01057708 13.43511786 -0.00295197 17.75819278 0.00720048 C22.38640603 0.01613293 27.0146174 0.01421991 31.64283752 0.01383972 C39.49009877 0.01477677 47.33732146 0.02342662 55.18457031 0.03710938 C63.04427864 0.0507717 70.90395149 0.05813784 78.76367188 0.05761719 C119.84383062 0.055343 160.92307065 0.1655483 202.00142097 0.57413292 C205.76628483 0.61157752 209.53114954 0.64514705 213.29607964 0.67518044 C217.68494463 0.71069371 222.07361031 0.75578921 226.46230388 0.80830407 C228.05745568 0.8260322 229.65264486 0.84072854 231.24785542 0.85198951 C244.27908316 0.94802313 256.64580669 1.78003073 268.79516602 6.86791992 C270.0840271 7.4001416 270.0840271 7.4001416 271.39892578 7.94311523 C283.99457964 13.31124882 294.32196683 21.37686432 303.73266602 31.24291992 C303.73266602 31.90291992 303.73266602 32.56291992 303.73266602 33.24291992 C304.32305664 33.47366211 304.91344727 33.7044043 305.52172852 33.94213867 C315.91509641 40.05696466 320.96102602 59.10798087 323.97094727 69.95385742 C325.61054691 77.03356461 325.88116649 83.83411376 325.87983704 91.06196594 C325.88351372 92.14147166 325.88719041 93.22097738 325.89097852 94.33319539 C325.90197909 97.94544241 325.90585308 101.55766063 325.90966797 105.16992188 C325.91593548 107.76240632 325.92258254 110.35488986 325.92958069 112.94737244 C325.94929411 120.72361982 325.95940562 128.49986841 325.96830848 136.27613452 C325.97270052 139.94628421 325.97806501 143.61643247 325.98329735 147.28658104 C326.00030589 159.50155112 326.01479679 171.71652034 326.02204609 183.93150043 C326.02395571 187.0975628 326.02587608 190.26362516 326.02783203 193.4296875 C326.02831577 194.21651093 326.02879951 195.00333436 326.02929791 195.81400093 C326.03758608 208.54049801 326.06290411 221.26690074 326.09541271 233.99335668 C326.12858148 247.08599075 326.14650375 260.17857702 326.14969033 273.27125329 C326.15184657 280.61143519 326.16046408 287.95147956 326.1861515 295.29162025 C326.21029162 302.2052361 326.21362298 309.11860195 326.20339012 316.03225136 C326.20289718 318.55803245 326.20914564 321.08382611 326.22294617 323.60956955 C326.38902187 355.82924864 319.33640131 379.25504719 296.42797852 402.59057617 C280.31452627 417.99081004 258.56460863 425.58839142 236.50180054 425.50361633 C234.88860772 425.50935465 234.88860772 425.50935465 233.24282515 425.5152089 C229.66826157 425.5254607 226.09386098 425.52156162 222.51928711 425.51757812 C219.94429375 425.52192901 217.36930168 425.52711342 214.79431152 425.5330658 C208.54229174 425.54577011 202.29031499 425.54761171 196.03828447 425.54526553 C190.95049194 425.54347684 185.86271239 425.54524379 180.77492142 425.54948997 C180.04862473 425.55008516 179.32232804 425.55068035 178.57402236 425.55129358 C177.09812866 425.55250544 175.62223497 425.55371957 174.14634128 425.55493595 C160.32541062 425.56579579 146.50450439 425.56365683 132.68357237 425.55755111 C120.07306576 425.55238757 107.46263654 425.56362529 94.85214524 425.58264933 C81.87125517 425.60208032 68.8904016 425.61027427 55.9094969 425.60652608 C48.63483294 425.60462145 41.36023474 425.60702873 34.08558273 425.62124062 C27.23841979 425.63448298 20.39141321 425.63182328 13.54425049 425.61882973 C11.04224214 425.61647599 8.54022278 425.61915507 6.03822708 425.62745285 C-11.30244905 425.68078018 -28.11964835 425.37117754 -44.26733398 418.24291992 C-45.70979492 417.61256836 -45.70979492 417.61256836 -47.18139648 416.96948242 C-68.68118868 406.91402406 -84.66646806 389.21708347 -93.26733398 367.24291992 C-96.51895339 358.00915455 -98.38986661 349.39599892 -98.47265625 339.57983398 C-98.48254452 338.8325727 -98.49243279 338.08531141 -98.5026207 337.31540585 C-98.53444743 334.79648415 -98.55927265 332.27754821 -98.58374023 329.75854492 C-98.6047108 327.90545931 -98.62589192 326.05237608 -98.64726257 324.19929504 C-98.71658068 317.96390996 -98.77364041 311.72843489 -98.82983398 305.49291992 C-98.83987961 304.41646587 -98.84992523 303.34001183 -98.86027527 302.23093796 C-99.28476539 256.69203666 -99.43639499 211.15133663 -99.50253099 165.61066735 C-99.5125874 159.1569647 -99.5302575 152.70330992 -99.55105591 146.24963379 C-99.57651036 138.28129751 -99.5906932 130.31303114 -99.59117264 122.34465283 C-99.59165791 118.22463253 -99.59682196 114.10476503 -99.61493492 109.98478127 C-99.63152316 106.16127321 -99.63356458 102.33801942 -99.624915 98.51448774 C-99.62383249 96.48731677 -99.63739371 94.46015369 -99.65171146 92.43303299 C-99.53417915 66.18351585 -89.82214996 42.89900536 -71.26733398 24.24291992 C-51.61852182 5.76588249 -26.31072987 -0.10432525 0 0 Z M-43.66967773 62.23510742 C-51.6384698 72.2496774 -53.57900388 82.51890576 -53.52130127 94.98339844 C-53.52442125 96.03012757 -53.52754123 97.07685671 -53.53075576 98.15530491 C-53.53869936 101.64420351 -53.53242626 105.13292643 -53.52612305 108.62182617 C-53.52883452 111.13068747 -53.53239633 113.63954798 -53.53674316 116.14840698 C-53.54490589 122.24428797 -53.54372527 128.34010447 -53.53791788 134.43598628 C-53.53339247 139.39231568 -53.53279229 144.34863128 -53.53496552 149.30496216 C-53.53527198 150.01163672 -53.53557845 150.71831128 -53.5358942 151.44640023 C-53.53653368 152.88220684 -53.53718211 154.31801345 -53.53783938 155.75382006 C-53.54353605 169.20252584 -53.53699521 182.65120431 -53.52623865 196.09990561 C-53.51730374 207.62773395 -53.51885597 219.155522 -53.52807617 230.68334961 C-53.53879053 244.0854798 -53.54298679 257.48758609 -53.53685164 270.88971996 C-53.53621458 272.32010587 -53.53558584 273.75049177 -53.53496552 275.18087769 C-53.53465696 275.88456862 -53.53434841 276.58825955 -53.53403051 277.31327444 C-53.53230707 282.260949 -53.5352111 287.20860832 -53.53992462 292.15628052 C-53.54613479 298.82115793 -53.54168363 305.48594773 -53.53013611 312.15082169 C-53.52749464 314.59490966 -53.52824584 317.03900404 -53.53266144 319.48308945 C-53.53813847 322.82295937 -53.53125636 326.16258686 -53.52130127 329.50244141 C-53.52576271 330.46616952 -53.53022416 331.42989763 -53.5348208 332.42282963 C-53.45607165 346.07418202 -49.12295321 358.15841307 -39.60717773 368.20385742 C-29.83703874 376.7180687 -20.12213885 379.54767088 -7.52853394 379.51707458 C-6.45775105 379.52231126 -5.38696816 379.52754794 -4.2837373 379.53294331 C-0.70124589 379.54792639 2.88110247 379.5486481 6.46362305 379.54931641 C9.03466533 379.55693909 11.60570533 379.56536678 14.17674255 379.57453918 C21.15838264 379.59734456 28.13999224 379.60530512 35.12166452 379.61036563 C39.48593883 379.61362814 43.85020438 379.620154 48.21447372 379.62736702 C60.31193062 379.64692789 72.40937938 379.66333485 84.5068531 379.66624355 C85.66705151 379.66652491 85.66705151 379.66652491 86.85068827 379.66681195 C88.4185094 379.66717818 89.98633054 379.66754188 91.55415167 379.66790306 C92.72146158 379.66817727 92.72146158 379.66817727 93.91235352 379.66845703 C94.69151665 379.66863758 95.47067979 379.66881813 96.27345394 379.66900415 C108.89019619 379.67254354 121.50676752 379.69955343 134.12345053 379.73695492 C147.09515639 379.77509923 160.06677757 379.79440148 173.03854072 379.79470307 C180.31431414 379.79528629 187.58988369 379.80369092 194.8656044 379.83270073 C201.71277477 379.85987739 208.5595363 379.8610675 215.40674019 379.84504509 C217.91365883 379.84323319 220.4206008 379.84989769 222.92746925 379.8658638 C241.24521906 379.97537438 254.70241768 378.88775984 268.43969727 365.59057617 C277.44391532 355.90249345 280.04295568 344.34426739 279.99336243 331.51553345 C279.99718797 330.45811365 280.00101352 329.40069384 280.00495499 328.31123102 C280.01524553 324.7801088 280.0113003 321.24915039 280.00732422 317.71801758 C280.01167287 315.18136953 280.01685653 312.64472279 280.02281189 310.108078 C280.03480729 303.94020674 280.03735527 297.77239551 280.03501163 291.60451485 C280.03322588 286.58905412 280.03498361 281.57360658 280.03923607 276.55814743 C280.04012885 275.48587631 280.04012885 275.48587631 280.04103967 274.39194315 C280.04225147 272.93954973 280.04346561 271.48715632 280.04468205 270.0347629 C280.05554932 256.42532109 280.05339896 242.81590408 280.0472972 229.20646088 C280.04212891 216.76886369 280.05338261 204.33134484 280.07239542 191.89376314 C280.09178919 179.10849387 280.10002711 166.32326164 280.09627217 153.53797758 C280.09436244 146.36577296 280.09682537 139.193635 280.11098671 132.02144241 C280.12417095 125.27611159 280.12161962 118.5309627 280.10857582 111.78562355 C280.10621078 109.31292861 280.10894209 106.84022264 280.11719894 104.36754036 C280.12767386 100.98627019 280.11955916 97.60552522 280.10688782 94.22427368 C280.1142621 93.25110345 280.12163639 92.27793321 280.12923414 91.27527297 C280.04409338 80.43941339 276.6986522 72.16790729 270.73266602 63.24291992 C269.86641602 61.91260742 269.86641602 61.91260742 268.98266602 60.55541992 C261.7669705 53.13928842 251.15765734 46.74912318 240.58896446 46.11411875 C239.42082931 46.1114359 239.42082931 46.1114359 238.22909546 46.10869884 C237.3263322 46.104241 236.42356894 46.09978316 235.49344921 46.09519023 C234.50553041 46.09537459 233.5176116 46.09555895 232.49975586 46.0957489 C231.44716489 46.09207221 230.39457392 46.08839553 229.31008625 46.08460742 C225.77125377 46.07356518 222.23245065 46.06972578 218.69360352 46.06591797 C216.16079108 46.05965365 213.62797957 46.05300688 211.09516907 46.04600525 C203.48529341 46.02677382 195.87542291 46.01617556 188.26552916 46.00727746 C184.67877841 46.00289133 181.09202913 45.99752528 177.50527954 45.99228859 C165.57607836 45.97527621 153.64687808 45.96078382 141.71766663 45.95353985 C138.62289427 45.95163006 135.52812193 45.94970971 132.43334961 45.94775391 C131.66419011 45.94727017 130.89503062 45.94678643 130.10256326 45.94628803 C117.65311503 45.93799438 105.20376308 45.9126688 92.75435686 45.88017323 C79.96242998 45.8470569 67.17055196 45.82908688 54.378582 45.82589561 C47.20063048 45.82373451 40.0228193 45.81504505 32.84490967 45.78943443 C26.08811051 45.76538163 19.33160687 45.76193038 12.57475853 45.77219582 C10.09967396 45.77269072 7.62457687 45.76638381 5.14953041 45.75263977 C-14.53231242 45.64949358 -29.39347781 47.18266022 -43.66967773 62.23510742 Z " fill="#D45500" transform="translate(1718.267333984375,1482.757080078125)"/>
<path d="M0 0 C6.73209461 -0.00034655 13.46413752 -0.01200795 20.19621581 -0.02593333 C26.77976 -0.03905353 33.36328129 -0.04437215 39.94683844 -0.04373425 C43.84123975 -0.04348192 47.73557752 -0.04618863 51.62996542 -0.0569123 C55.27070641 -0.06667809 58.91132365 -0.06661532 62.55206931 -0.05939567 C64.49563263 -0.0578759 66.43919623 -0.06612336 68.38274062 -0.07483566 C90.59088078 0.00335442 109.07567773 5.25723301 125.53877699 20.67339432 C139.22507124 34.89033649 146.05169877 51.99804937 146.09718764 71.6878444 C146.10164432 72.77208269 146.10164432 72.77208269 146.10619104 73.87822479 C146.11481394 76.28351139 146.11638087 78.68874783 146.11787856 81.09404862 C146.1225116 82.82615621 146.12753692 84.55826279 146.13292372 86.2903682 C146.14601059 90.98742739 146.15248647 95.6844723 146.15693438 100.38154685 C146.15987363 103.32472067 146.16398021 106.26789067 146.16843855 109.21106255 C146.18210927 118.44390057 146.19177566 127.67672976 146.19564044 136.90957719 C146.20010776 147.5204683 146.21759556 158.13122974 146.24664104 168.74208146 C146.26837525 176.97176909 146.27835109 185.20142057 146.27968156 193.43113655 C146.28072206 198.33227473 146.28646565 203.23329096 146.30450118 208.13439858 C146.32118408 212.75804771 146.32304122 217.38148592 146.31436217 222.00515473 C146.31360222 223.68511317 146.31779323 225.36508391 146.32782042 227.04501259 C146.3786887 236.11300196 145.91469371 244.92347758 144.60634291 253.90564835 C144.48792139 254.72866651 144.36949986 255.55168466 144.24748981 256.39964277 C143.08096434 263.71793116 140.65891899 269.73475448 136.95674574 276.18511307 C136.44240981 277.12483963 135.92807387 278.0645662 135.39815199 279.03276932 C129.90614838 288.39683304 122.27906135 296.54988442 112.95674574 302.18511307 C112.29674574 302.18511307 111.63674574 302.18511307 110.95674574 302.18511307 C110.95674574 302.84511307 110.95674574 303.50511307 110.95674574 304.18511307 C99.12135733 309.87779989 88.37889888 313.33579546 75.13011611 313.33228409 C74.37250546 313.33596078 73.61489481 313.33963747 72.83432627 313.34342557 C70.31148639 313.35438336 67.7886878 313.35829277 65.26582778 313.36211503 C63.45003566 313.36838585 61.63424481 313.37503319 59.81845534 313.38202775 C53.86716528 313.40300391 47.91587517 313.41342685 41.96455824 313.42339432 C39.90854691 313.42744484 37.85253571 313.43156185 35.79652464 313.4357444 C26.13067307 313.45478507 16.46482906 313.46901622 6.79896235 313.47735637 C-4.32194713 313.48711279 -15.44265674 313.51339535 -26.56349587 313.55385727 C-35.18209206 313.58412783 -43.80063131 313.59883573 -52.41927958 313.60213739 C-57.55566433 313.60447614 -62.6918353 313.61328194 -67.82816255 313.63859856 C-72.66934722 313.66207538 -77.51018032 313.66603468 -82.35140741 313.65583718 C-84.11487255 313.65534637 -85.87835618 313.66153001 -87.64176691 313.67539322 C-110.69892766 313.84631448 -130.47216403 308.39553275 -147.41044176 291.87651932 C-164.53075001 273.86272696 -167.18973439 253.58354513 -167.20438707 229.81792557 C-167.20902216 228.06095126 -167.21404774 226.30397795 -167.21943223 224.54700577 C-167.23249368 219.79241704 -167.23898919 215.03784238 -167.24344289 210.28323853 C-167.2463844 207.30490031 -167.25049124 204.32656584 -167.25494707 201.34822953 C-167.26860696 192.00701555 -167.27828038 182.66581026 -167.28214896 173.32458699 C-167.2866229 162.58407555 -167.3041463 151.8436918 -167.33314955 141.10321915 C-167.35485329 132.77332663 -167.36485789 124.44346981 -167.36619008 116.11354935 C-167.36723211 111.1516157 -167.37301025 106.18980231 -167.39100969 101.22789872 C-167.40764096 96.55252415 -167.40957387 91.87735833 -167.40087068 87.2019645 C-167.40010822 85.49978107 -167.40433648 83.79758571 -167.41432893 82.09543145 C-167.51841456 63.23713132 -165.84643176 44.06369149 -153.04325426 29.18511307 C-152.39614488 28.39491776 -151.74903551 27.60472245 -151.08231676 26.79058182 C-138.45549447 11.95292604 -122.02772796 2.70138068 -102.53011644 0.85186112 C-98.48225388 0.66209887 -94.44238489 0.56732553 -90.39091051 0.50933182 C-88.7416581 0.47649387 -87.09241216 0.44333056 -85.44317186 0.40989029 C-56.96877654 -0.11045821 -28.47807144 -0.00216722 0 0 Z M-116.66825426 56.74761307 C-120.01366594 62.43481293 -121.29377731 66.94833195 -121.31067979 73.59728348 C-121.31521091 74.33432849 -121.31974202 75.0713735 -121.32441044 75.83075321 C-121.33705065 78.29561694 -121.33543432 80.76025961 -121.3337816 83.22515213 C-121.33976717 84.99451842 -121.34657278 86.7638821 -121.35413682 88.53324234 C-121.37180306 93.33713033 -121.37649252 98.14094706 -121.3777684 102.94486439 C-121.37919042 105.94791573 -121.38346103 108.95094898 -121.38876283 111.95399582 C-121.40726652 122.43583175 -121.41543319 132.91761682 -121.41385972 143.39946854 C-121.41265885 153.16120605 -121.43374974 162.92272226 -121.46534705 172.68440378 C-121.49152601 181.07184754 -121.50222631 189.45921912 -121.50094891 197.84670341 C-121.50043967 202.85318368 -121.50610159 207.85946736 -121.52730501 212.86590683 C-121.54671415 217.57737767 -121.54679356 222.28846496 -121.53227174 226.99994957 C-121.53018573 228.7248406 -121.53487213 230.44975579 -121.54699266 232.17460549 C-121.61646762 242.75025766 -120.81034334 250.42368271 -114.91825426 259.43511307 C-105.92184149 268.04037746 -96.00308382 267.90706904 -84.26786363 267.83208573 C-82.47967203 267.83887046 -80.69148742 267.84777838 -78.9033159 267.85863602 C-74.07057019 267.88133422 -69.23836113 267.87263236 -64.40560663 267.85674059 C-59.33473516 267.84403231 -54.26390792 267.85583536 -49.19303453 267.86367142 C-40.67931991 267.87275366 -32.16582256 267.86081752 -23.65214097 267.83696854 C-13.82604612 267.80976006 -4.0004701 267.81857523 5.82561219 267.84610057 C14.28029757 267.86883129 22.73482727 267.87197236 31.18953335 267.85890722 C36.23118998 267.85113449 41.27260318 267.85001101 46.31424391 267.86658967 C51.05545438 267.88109294 55.79599956 267.87090621 60.53713858 267.84211838 C62.27127222 267.83553875 64.0054624 267.83735144 65.73957312 267.84843171 C75.90419817 267.90736389 84.97418731 267.73110907 92.85020125 260.42982781 C98.36492129 254.6448434 100.4124904 248.34707676 100.35115492 240.46323502 C100.35724603 239.71701962 100.36333713 238.97080423 100.36961281 238.20197624 C100.38617435 235.71792606 100.38147693 233.23439233 100.37666762 230.75029862 C100.384012 228.96255316 100.39259931 227.17481245 100.4023329 225.3870784 C100.42452035 220.54189256 100.42748091 215.69687693 100.42558539 210.85164726 C100.42546554 206.80113827 100.43403555 202.75066515 100.4423629 198.70016617 C100.46158757 189.1401924 100.46448443 179.58030595 100.45772231 170.02031815 C100.45108423 160.17215931 100.47393869 150.32437527 100.51103604 140.47629243 C100.54176981 132.00895188 100.55308901 123.54173166 100.54919922 115.07433647 C100.54713529 110.02254633 100.5525559 104.9710478 100.57709181 99.91931069 C100.59941677 95.16587248 100.59743343 90.41304181 100.57716429 85.65960038 C100.57376424 83.92061556 100.57879982 82.1815894 100.59314787 80.44266045 C100.67457665 69.83731817 100.26024368 60.94056127 92.71065199 52.74761307 C91.98748793 52.23198807 91.26432387 51.71636307 90.51924574 51.18511307 C89.79865981 50.64886307 89.07807387 50.11261307 88.33565199 49.56011307 C83.1221046 46.5466998 78.4095945 45.93124449 72.44450819 45.90422928 C71.70872546 45.89828704 70.97294272 45.89234479 70.21486354 45.88622248 C67.76012519 45.8689401 65.30558297 45.86583988 62.85078871 45.86284745 C61.08614117 45.85358446 59.32149761 45.84353424 57.55685866 45.83275712 C52.7693723 45.80656604 47.98194196 45.79363002 43.19439518 45.7847358 C40.19952296 45.77886423 37.20466589 45.77065265 34.20980132 45.76172745 C24.82854274 45.73439057 15.44731898 45.71505173 6.06602335 45.70732367 C-4.74265366 45.69836952 -15.5508239 45.66330177 -26.35934687 45.60532248 C-34.72732481 45.56200203 -43.09516063 45.54191046 -51.46324944 45.53924143 C-56.45483914 45.53715124 -61.44595205 45.5254638 -66.43742311 45.48960221 C-71.13755435 45.45648992 -75.83685432 45.45240108 -80.5370611 45.46988022 C-82.25425965 45.4714131 -83.97150429 45.4628397 -85.6885885 45.44296372 C-97.66010005 45.31260634 -109.10858348 46.10444892 -116.66825426 56.74761307 Z " fill="#D35500" transform="translate(1662.0432542562485,311.8148869276047)"/>
</svg>
