<svg xmlns="http://www.w3.org/2000/svg" width="701" height="769" viewBox="0 0 701 769" version="1.1"><path d="M 282.500 0.613 C 219.212 6.735, 189.633 16.642, 175.495 36.455 C 165.231 50.838, 163.751 59.683, 163.610 107.500 L 163.500 144.500 240.250 144.756 L 317 145.012 317 153.970 L 317 162.927 204.250 163.281 C 82.746 163.662, 88.518 163.419, 72.996 168.811 C 44.901 178.571, 23.556 200.644, 13.710 230.117 C 9.085 243.964, 3.254 272.640, 1.026 292.500 C -0.463 305.778, -0.216 334.776, 1.509 349.030 C 3.186 362.887, 6.865 382.437, 10.576 397.212 C 19.622 433.222, 35.654 456.389, 59.219 467.503 C 73.032 474.017, 75.078 474.300, 111.673 474.752 L 144.845 475.163 145.258 433.331 C 145.728 385.744, 146.108 382.913, 154.370 365.544 C 166.370 340.315, 187.987 321.898, 215.712 313.283 L 224.500 310.552 315 309.963 C 414.479 309.316, 410.122 309.592, 424.589 303.032 C 447.506 292.641, 464.782 270.241, 468.960 245.500 C 469.823 240.390, 470.055 215.954, 469.821 155 L 469.500 71.500 466.692 63.500 C 459.480 42.950, 443.976 26.021, 422.500 15.245 C 402.354 5.137, 373.182 0.897, 321 0.493 C 302.025 0.346, 284.700 0.400, 282.500 0.613 M 223.803 48.351 C 214.352 50.993, 206.224 58.741, 203.917 67.309 C 200.854 78.685, 203.938 90.062, 212.068 97.371 C 221.074 105.468, 232.456 106.947, 243.644 101.474 C 256.337 95.263, 262.249 79.578, 257.067 65.857 C 254.717 59.633, 247.448 51.921, 241.647 49.497 C 236.566 47.374, 229.030 46.890, 223.803 48.351 M 290 707.678 C 252.682 710.402, 224.581 718.384, 220.873 727.314 C 219.879 729.707, 220.001 730.529, 221.688 732.814 C 234.428 750.064, 325.765 757.436, 383.813 745.899 C 399.651 742.751, 408.916 739.190, 414.250 734.199 C 425.891 723.308, 398.178 711.902, 350.696 708.041 C 339.074 707.096, 301.084 706.869, 290 707.678 M 302.500 718 L 300.500 718.859 302.500 718.965 C 304.311 719.061, 304.270 719.198, 302.057 720.424 C 300.189 721.458, 299.176 721.509, 297.747 720.638 C 296.264 719.735, 295.632 719.832, 294.684 721.106 C 293.754 722.357, 293.098 722.467, 291.717 721.606 C 290.396 720.782, 289.750 720.809, 289.186 721.712 C 288.361 723.033, 284 722.335, 284 720.883 C 284 720.398, 283.212 720.002, 282.250 720.005 C 280.908 720.009, 281.200 720.605, 283.500 722.558 C 285.580 724.324, 285.830 724.783, 284.316 724.053 C 281.492 722.692, 280.710 722.721, 281.595 724.155 C 282.031 724.859, 281.870 725.038, 281.184 724.614 C 279.495 723.570, 274 726.792, 274 728.826 C 274 730.743, 275.814 733, 277.355 733 C 277.880 733, 277.521 732.128, 276.557 731.063 C 274.595 728.895, 275.067 727.516, 278.306 725.950 C 280.296 724.988, 280.337 725.021, 278.750 726.305 C 276.816 727.870, 276.440 730.536, 278.016 731.510 C 278.575 731.856, 278.726 732.634, 278.352 733.239 C 277.910 733.954, 278.273 734.109, 279.388 733.681 C 280.407 733.290, 280.856 733.424, 280.493 734.011 C 279.684 735.320, 280.643 735.260, 283.316 733.836 C 285.290 732.784, 285.368 732.832, 284.128 734.336 C 282.563 736.233, 283.261 736.466, 286.043 734.977 C 287.586 734.151, 287.842 734.248, 287.371 735.477 C 286.666 737.312, 289.062 737.538, 290.800 735.800 C 291.733 734.867, 292 734.978, 292 736.300 C 292 738.194, 294.038 738.562, 295.642 736.958 C 296.366 736.234, 297.077 736.388, 297.965 737.458 C 298.903 738.588, 298.929 739, 298.063 739 C 297.414 739, 297.160 739.450, 297.500 740 C 297.840 740.550, 299.554 740.955, 301.309 740.900 C 304.356 740.805, 304.387 740.765, 302 740 C 299.703 739.264, 299.676 739.191, 301.667 739.100 C 302.858 739.045, 303.993 738.522, 304.187 737.938 C 304.437 737.188, 305.364 737.188, 307.336 737.938 C 310.781 739.248, 325.351 739.333, 329.757 738.070 C 331.757 737.496, 333 737.496, 333 738.070 C 333 738.581, 334.012 739.045, 335.250 739.100 C 337.409 739.195, 337.398 739.232, 335 740 C 332.550 740.785, 332.560 740.802, 335.500 740.885 C 337.150 740.931, 339.175 740.533, 340 740 C 341.262 739.185, 341.202 739.028, 339.628 739.015 C 338.054 739.002, 337.959 738.754, 339.035 737.458 C 339.923 736.388, 340.634 736.234, 341.358 736.958 C 343.010 738.610, 346 738.186, 346 736.300 C 346 734.978, 346.267 734.867, 347.200 735.800 C 348.670 737.270, 351.367 737.402, 350.475 735.960 C 350.054 735.279, 350.776 735.157, 352.565 735.606 C 354.373 736.060, 355.078 735.935, 354.648 735.239 C 354.258 734.609, 354.700 734.360, 355.749 734.618 C 357.976 735.167, 364 731.494, 364 729.587 C 364 728.067, 359.436 724, 357.730 724 C 357.180 724, 357.916 724.933, 359.365 726.073 C 362.584 728.604, 362.700 730.397, 359.777 732.443 C 356.477 734.755, 355.312 734.329, 358.365 731.927 C 361.735 729.277, 361.679 728.384, 358.004 726.148 C 356.356 725.146, 355.306 724.028, 355.670 723.663 C 356.719 722.614, 355.075 722.890, 352.684 724.164 C 350.710 725.216, 350.632 725.168, 351.872 723.664 C 353.437 721.767, 352.739 721.534, 349.957 723.023 C 348.414 723.849, 348.158 723.752, 348.629 722.523 C 349.327 720.705, 346.945 720.455, 345.233 722.167 C 344.343 723.057, 343.913 722.938, 343.426 721.667 C 342.692 719.755, 339.363 719.412, 338.771 721.188 C 338.490 722.030, 337.674 721.885, 335.965 720.688 C 334.434 719.615, 334.092 718.994, 335.027 718.985 C 336.306 718.971, 336.302 718.841, 335 718 C 334.175 717.467, 331.025 717.094, 328 717.172 L 322.500 717.314 327.500 718 C 331.402 718.535, 331.773 718.720, 329.191 718.843 C 327.371 718.929, 326.091 719.337, 326.345 719.750 C 326.600 720.163, 323.070 720.500, 318.500 720.500 C 313.930 720.500, 310.400 720.163, 310.655 719.750 C 310.909 719.337, 309.854 718.929, 308.309 718.843 C 306.659 718.751, 307.562 718.403, 310.500 718 L 315.500 717.314 310 717.227 C 306.975 717.180, 303.600 717.527, 302.500 718 M 292.500 719 C 291.762 720.194, 293.722 720.194, 296.500 719 C 298.286 718.233, 298.212 718.133, 295.809 718.070 C 294.329 718.032, 292.840 718.450, 292.500 719 M 270.291 724.085 C 263.449 727.472, 263.543 731.132, 270.557 734.460 C 275.100 736.616, 277.130 735.365, 273.083 732.904 C 271.387 731.873, 270 730.287, 270 729.379 C 270 727.247, 274.290 723.263, 275.979 723.826 C 276.747 724.082, 276.993 723.798, 276.580 723.130 C 275.637 721.604, 275.156 721.677, 270.291 724.085 M 361 722.969 C 361 723.501, 361.788 723.655, 362.750 723.309 C 363.712 722.964, 364.178 723.038, 363.784 723.473 C 363.390 723.909, 364.178 725.138, 365.534 726.205 C 368.510 728.546, 368.600 729.505, 366.051 731.688 C 364.979 732.606, 364.378 733.803, 364.715 734.348 C 365.077 734.933, 364.645 735.078, 363.664 734.701 C 362.749 734.350, 362 734.485, 362 735 C 362 735.515, 361.325 735.678, 360.500 735.362 C 359.675 735.045, 359 735.284, 359 735.893 C 359 737.457, 360.880 737.238, 365.500 735.137 C 373.253 731.610, 373.928 727.939, 367.492 724.294 C 363.206 721.866, 361 721.416, 361 722.969 M 269.133 726.091 C 266.406 728.631, 266.677 730.739, 270 732.846 C 272.471 734.414, 272.480 734.408, 270.750 732.387 C 268.395 729.635, 268.547 727.431, 271.223 725.557 C 272.445 724.701, 272.980 724, 272.411 724 C 271.842 724, 270.367 724.941, 269.133 726.091 M 366.750 725.851 C 369.589 728.661, 369.597 730.469, 366.777 732.443 C 365.555 733.299, 365.035 734, 365.623 734 C 367.376 734, 370.201 730.277, 369.838 728.444 C 369.652 727.506, 368.375 726.038, 367 725.182 L 364.500 723.625 366.750 725.851 M 314.750 740.732 C 317.087 740.943, 320.913 740.943, 323.250 740.732 C 325.587 740.522, 323.675 740.349, 319 740.349 C 314.325 740.349, 312.413 740.522, 314.750 740.732" stroke="none" fill="#3d7eaf" fill-rule="evenodd"/><path d="M 488.759 203.750 C 488.340 243.580, 488.273 244.715, 485.783 254.011 C 480.882 272.312, 472.706 286.550, 459.617 299.579 C 446.910 312.227, 434.018 319.952, 416.933 325.156 C 409.513 327.416, 409.343 327.420, 319 328.006 C 228.599 328.591, 228.492 328.594, 221.027 330.861 C 193.807 339.127, 173.568 359.897, 165.780 387.558 C 163.548 395.486, 163.544 395.645, 163.522 478.500 C 163.497 571.329, 163.187 566.879, 170.727 581.919 C 177.539 595.509, 194.338 610.729, 212.500 619.766 C 227.876 627.417, 253.188 634.860, 278.500 639.172 C 289.341 641.019, 295.485 641.397, 315.500 641.444 C 340.644 641.503, 347.751 640.828, 369.432 636.327 C 427.126 624.347, 459.612 602.296, 468.025 569.404 C 469.801 562.459, 470 558.267, 470 527.840 L 470 494 393.500 494 L 317 494 317 484.527 L 317 475.054 438.750 474.777 L 560.500 474.500 568.657 471.736 C 590.987 464.169, 605.265 446.571, 618.860 409.859 C 631.344 376.148, 635.757 350.267, 634.685 317.044 C 633.850 291.181, 630.232 267.774, 622.544 238.500 C 610.445 192.432, 589.651 168.701, 557.284 164.020 C 553.553 163.481, 536.705 163.031, 519.844 163.020 L 489.188 163 488.759 203.750 M 394.205 534.835 C 386.778 537.483, 382.027 541.682, 378.250 548.934 C 375.520 554.176, 375 556.256, 375 561.928 C 375 580.944, 392.596 594.748, 410.282 589.606 C 422.388 586.087, 431 574.935, 431 562.779 C 431 554.824, 429.526 550.230, 425.092 544.363 C 418.037 535.030, 404.965 530.997, 394.205 534.835 M 302.500 718 L 300.500 718.859 302.500 718.965 C 304.311 719.061, 304.270 719.198, 302.057 720.424 C 300.189 721.458, 299.176 721.509, 297.747 720.638 C 296.264 719.735, 295.632 719.832, 294.684 721.106 C 293.754 722.357, 293.098 722.467, 291.717 721.606 C 290.396 720.782, 289.750 720.809, 289.186 721.712 C 288.361 723.033, 284 722.335, 284 720.883 C 284 720.398, 283.212 720.002, 282.250 720.005 C 280.908 720.009, 281.200 720.605, 283.500 722.558 C 285.580 724.324, 285.830 724.783, 284.316 724.053 C 281.492 722.692, 280.710 722.721, 281.595 724.155 C 282.031 724.859, 281.870 725.038, 281.184 724.614 C 279.495 723.570, 274 726.792, 274 728.826 C 274 730.743, 275.814 733, 277.355 733 C 277.880 733, 277.521 732.128, 276.557 731.063 C 274.595 728.895, 275.067 727.516, 278.306 725.950 C 280.296 724.988, 280.337 725.021, 278.750 726.305 C 276.816 727.870, 276.440 730.536, 278.016 731.510 C 278.575 731.856, 278.726 732.634, 278.352 733.239 C 277.910 733.954, 278.273 734.109, 279.388 733.681 C 280.407 733.290, 280.856 733.424, 280.493 734.011 C 279.684 735.320, 280.643 735.260, 283.316 733.836 C 285.290 732.784, 285.368 732.832, 284.128 734.336 C 282.563 736.233, 283.261 736.466, 286.043 734.977 C 287.586 734.151, 287.842 734.248, 287.371 735.477 C 286.666 737.312, 289.062 737.538, 290.800 735.800 C 291.733 734.867, 292 734.978, 292 736.300 C 292 738.194, 294.038 738.562, 295.642 736.958 C 296.366 736.234, 297.077 736.388, 297.965 737.458 C 298.903 738.588, 298.929 739, 298.063 739 C 297.414 739, 297.160 739.450, 297.500 740 C 297.840 740.550, 299.554 740.955, 301.309 740.900 C 304.356 740.805, 304.387 740.765, 302 740 C 299.703 739.264, 299.676 739.191, 301.667 739.100 C 302.858 739.045, 303.993 738.522, 304.187 737.938 C 304.437 737.188, 305.364 737.188, 307.336 737.938 C 310.781 739.248, 325.351 739.333, 329.757 738.070 C 331.757 737.496, 333 737.496, 333 738.070 C 333 738.581, 334.012 739.045, 335.250 739.100 C 337.409 739.195, 337.398 739.232, 335 740 C 332.550 740.785, 332.560 740.802, 335.500 740.885 C 337.150 740.931, 339.175 740.533, 340 740 C 341.262 739.185, 341.202 739.028, 339.628 739.015 C 338.054 739.002, 337.959 738.754, 339.035 737.458 C 339.923 736.388, 340.634 736.234, 341.358 736.958 C 343.010 738.610, 346 738.186, 346 736.300 C 346 734.978, 346.267 734.867, 347.200 735.800 C 348.670 737.270, 351.367 737.402, 350.475 735.960 C 350.054 735.279, 350.776 735.157, 352.565 735.606 C 354.373 736.060, 355.078 735.935, 354.648 735.239 C 354.258 734.609, 354.700 734.360, 355.749 734.618 C 357.976 735.167, 364 731.494, 364 729.587 C 364 728.067, 359.436 724, 357.730 724 C 357.180 724, 357.916 724.933, 359.365 726.073 C 362.584 728.604, 362.700 730.397, 359.777 732.443 C 356.477 734.755, 355.312 734.329, 358.365 731.927 C 361.735 729.277, 361.679 728.384, 358.004 726.148 C 356.356 725.146, 355.306 724.028, 355.670 723.663 C 356.719 722.614, 355.075 722.890, 352.684 724.164 C 350.710 725.216, 350.632 725.168, 351.872 723.664 C 353.437 721.767, 352.739 721.534, 349.957 723.023 C 348.414 723.849, 348.158 723.752, 348.629 722.523 C 349.327 720.705, 346.945 720.455, 345.233 722.167 C 344.343 723.057, 343.913 722.938, 343.426 721.667 C 342.692 719.755, 339.363 719.412, 338.771 721.188 C 338.490 722.030, 337.674 721.885, 335.965 720.688 C 334.434 719.615, 334.092 718.994, 335.027 718.985 C 336.306 718.971, 336.302 718.841, 335 718 C 334.175 717.467, 331.025 717.094, 328 717.172 L 322.500 717.314 327.500 718 C 331.402 718.535, 331.773 718.720, 329.191 718.843 C 327.371 718.929, 326.091 719.337, 326.345 719.750 C 326.600 720.163, 323.070 720.500, 318.500 720.500 C 313.930 720.500, 310.400 720.163, 310.655 719.750 C 310.909 719.337, 309.854 718.929, 308.309 718.843 C 306.659 718.751, 307.562 718.403, 310.500 718 L 315.500 717.314 310 717.227 C 306.975 717.180, 303.600 717.527, 302.500 718 M 292.500 719 C 291.762 720.194, 293.722 720.194, 296.500 719 C 298.286 718.233, 298.212 718.133, 295.809 718.070 C 294.329 718.032, 292.840 718.450, 292.500 719 M 270.291 724.085 C 263.449 727.472, 263.543 731.132, 270.557 734.460 C 275.100 736.616, 277.130 735.365, 273.083 732.904 C 271.387 731.873, 270 730.287, 270 729.379 C 270 727.247, 274.290 723.263, 275.979 723.826 C 276.747 724.082, 276.993 723.798, 276.580 723.130 C 275.637 721.604, 275.156 721.677, 270.291 724.085 M 361 722.969 C 361 723.501, 361.788 723.655, 362.750 723.309 C 363.712 722.964, 364.178 723.038, 363.784 723.473 C 363.390 723.909, 364.178 725.138, 365.534 726.205 C 368.510 728.546, 368.600 729.505, 366.051 731.688 C 364.979 732.606, 364.378 733.803, 364.715 734.348 C 365.077 734.933, 364.645 735.078, 363.664 734.701 C 362.749 734.350, 362 734.485, 362 735 C 362 735.515, 361.325 735.678, 360.500 735.362 C 359.675 735.045, 359 735.284, 359 735.893 C 359 737.457, 360.880 737.238, 365.500 735.137 C 373.253 731.610, 373.928 727.939, 367.492 724.294 C 363.206 721.866, 361 721.416, 361 722.969 M 269.133 726.091 C 266.406 728.631, 266.677 730.739, 270 732.846 C 272.471 734.414, 272.480 734.408, 270.750 732.387 C 268.395 729.635, 268.547 727.431, 271.223 725.557 C 272.445 724.701, 272.980 724, 272.411 724 C 271.842 724, 270.367 724.941, 269.133 726.091 M 366.750 725.851 C 369.589 728.661, 369.597 730.469, 366.777 732.443 C 365.555 733.299, 365.035 734, 365.623 734 C 367.376 734, 370.201 730.277, 369.838 728.444 C 369.652 727.506, 368.375 726.038, 367 725.182 L 364.500 723.625 366.750 725.851 M 314.750 740.732 C 317.087 740.943, 320.913 740.943, 323.250 740.732 C 325.587 740.522, 323.675 740.349, 319 740.349 C 314.325 740.349, 312.413 740.522, 314.750 740.732" stroke="none" fill="#fcdf57" fill-rule="evenodd"/></svg>