<?xml version="1.0" encoding="UTF-8"?>
<svg version="1.1" xmlns="http://www.w3.org/2000/svg" width="724" height="561">
<path d="M0 0 C1.34763115 -0.00702147 2.69526196 -0.01410829 4.04289246 -0.02125549 C8.32417277 -0.0406512 12.60539893 -0.04568931 16.88671875 -0.046875 C17.61589508 -0.04731686 18.34507141 -0.04775871 19.09634399 -0.04821396 C40.73721367 -0.05509321 62.09600552 0.2321171 83.57421875 3.203125 C84.91294146 3.37757717 86.25181445 3.55087921 87.59082031 3.72314453 C165.21975285 13.80127665 242.39083614 41.02355554 302.57421875 92.203125 C303.32058594 92.83734375 304.06695313 93.4715625 304.8359375 94.125 C318.32839435 105.94521687 331.01753793 118.68080408 341.57421875 133.203125 C342.20199219 134.04746094 342.82976563 134.89179688 343.4765625 135.76171875 C363.21802808 163.02374265 378.44493081 197.06708789 378.8125 231.20703125 C378.82224854 231.95917908 378.83199707 232.7113269 378.84204102 233.48626709 C379.01279126 250.07849488 378.89244871 266.05609183 374.57421875 282.203125 C374.38166504 282.93176758 374.18911133 283.66041016 373.99072266 284.41113281 C372.71551779 289.08794932 371.21062885 293.6404286 369.57421875 298.203125 C369.1565625 299.38390625 368.73890625 300.5646875 368.30859375 301.78125 C354.17118741 339.31850133 327.23926448 372.8106504 295.57421875 397.203125 C294.52540922 398.03044887 293.47725957 398.85860979 292.4296875 399.6875 C285.36992207 405.2354348 278.10806608 410.31236776 270.57421875 415.203125 C275.83457882 424.44215076 281.13717653 433.65488363 286.51171875 442.828125 C286.87083344 443.44163818 287.22994812 444.05515137 287.59994507 444.68725586 C293.45158881 454.67684424 299.42752749 464.58572008 305.46310425 474.46499634 C310.63592415 482.93755293 315.65826076 491.48214184 320.54907227 500.12060547 C323.57617518 505.46697347 326.66753801 510.76399667 329.84814453 516.02026367 C333.92588795 522.76338337 337.93536253 529.54687243 341.94921875 536.328125 C343.33196229 538.66410335 344.7147816 541.00003676 346.09765625 543.3359375 C346.69497559 544.34543457 347.29229492 545.35493164 347.90771484 546.39501953 C349.0134901 548.25828161 350.14137542 550.10860828 351.29150391 551.94482422 C352.57421875 554.203125 352.57421875 554.203125 352.57421875 556.203125 C333.09149675 556.51495483 313.6086976 556.78672328 294.1247406 557.0087738 C284.8762247 557.11585135 275.6289645 557.24916674 266.38148975 557.424757 C260.316239 557.53828261 254.2510212 557.62358675 248.18503857 557.6868 C244.62683276 557.72497204 241.07011347 557.77733755 237.51272583 557.86376953 C233.56845984 557.95921009 229.62504297 557.99213272 225.6796875 558.01953125 C224.51849396 558.0576442 223.35730042 558.09575714 222.16091919 558.13502502 C214.54291592 558.11654364 214.54291592 558.11654364 211.8144989 555.54382324 C210.49481021 553.48106229 209.50993753 551.4629108 208.57421875 549.203125 C208.08622803 548.32188965 207.5982373 547.4406543 207.09545898 546.53271484 C206.69528564 545.75105957 206.2951123 544.9694043 205.8828125 544.1640625 C205.4194751 543.26574707 204.9561377 542.36743164 204.47875977 541.44189453 C203.99463623 540.49685059 203.5105127 539.55180664 203.01171875 538.578125 C198.97989775 530.77456015 194.87169604 523.02329439 190.63671875 515.328125 C185.12413208 505.29756072 179.83768676 495.15719395 174.578125 484.9921875 C170.97297171 478.02838712 167.28472567 471.11122864 163.57421875 464.203125 C162.62587158 464.44546875 161.67752441 464.6878125 160.70043945 464.9375 C150.42684518 467.54506044 140.11918614 469.9524743 129.76171875 472.203125 C128.96716278 472.37610107 128.17260681 472.54907715 127.35397339 472.72729492 C92.81365293 480.203125 92.81365293 480.203125 77.57421875 480.203125 C77.57421875 505.283125 77.57421875 530.363125 77.57421875 556.203125 C36.98421875 556.203125 -3.60578125 556.203125 -45.42578125 556.203125 C-45.42578125 531.123125 -45.42578125 506.043125 -45.42578125 480.203125 C-54.99578125 478.883125 -64.56578125 477.563125 -74.42578125 476.203125 C-80.0534925 475.17489326 -85.6006272 474.12623117 -91.17578125 472.890625 C-91.85336487 472.74316833 -92.53094849 472.59571167 -93.22906494 472.44378662 C-106.44905671 469.56405958 -119.49548367 466.1920635 -132.42578125 462.203125 C-133.5048877 461.87086914 -134.58399414 461.53861328 -135.69580078 461.19628906 C-157.66165334 454.34373497 -179.07727203 445.95499191 -199.45800781 435.23193359 C-201.61235605 434.10557833 -203.77998367 433.0075501 -205.94921875 431.91015625 C-227.81607295 420.75428581 -247.73336572 407.09903742 -266.42578125 391.203125 C-267.54533203 390.25179687 -267.54533203 390.25179687 -268.6875 389.28125 C-282.16605867 377.47320879 -294.9316116 364.75504025 -305.42578125 350.203125 C-306.18890625 349.1615625 -306.95203125 348.12 -307.73828125 347.046875 C-328.817762 317.47704784 -341.98564229 283.70164683 -343.42578125 247.203125 C-343.48765625 245.92888672 -343.48765625 245.92888672 -343.55078125 244.62890625 C-344.31566406 214.17700939 -335.71559216 184.82292075 -321.42578125 158.203125 C-320.53826172 156.5015625 -320.53826172 156.5015625 -319.6328125 154.765625 C-311.09283319 139.03312581 -299.96056152 124.92608379 -287.42578125 112.203125 C-286.73403809 111.49236816 -286.04229492 110.78161133 -285.32958984 110.04931641 C-276.75368877 101.24807398 -268.24162221 92.62652561 -258.42578125 85.203125 C-257.24040373 84.27796058 -256.05554511 83.35213109 -254.87109375 82.42578125 C-244.81855764 74.6439088 -234.30507004 67.76799135 -223.42578125 61.203125 C-222.21825195 60.46860107 -222.21825195 60.46860107 -220.98632812 59.71923828 C-155.98912505 20.44901579 -75.74731435 0.26748513 0 0 Z M-61.42578125 116.203125 C-62.24095215 116.48269043 -63.05612305 116.76225586 -63.89599609 117.05029297 C-99.28292997 129.2987912 -132.37527088 147.05807105 -159.42578125 173.203125 C-160.82763672 174.52763672 -160.82763672 174.52763672 -162.2578125 175.87890625 C-184.11440644 197.00185228 -200.06941422 226.19006515 -200.66723633 257.08642578 C-200.783641 285.07010789 -190.53846562 310.96957553 -172.42578125 332.203125 C-171.69746094 333.0590625 -170.96914062 333.915 -170.21875 334.796875 C-168.00480733 337.31797728 -165.733062 339.76724172 -163.42578125 342.203125 C-162.55695313 343.13640625 -161.688125 344.0696875 -160.79296875 345.03125 C-138.81329645 368.15669149 -109.19248291 384.66734366 -79.86328125 396.515625 C-78.485354 397.0737085 -78.485354 397.0737085 -77.07958984 397.64306641 C-66.67343562 401.7058776 -56.12303416 404.79945362 -45.42578125 408.203125 C-45.42578125 322.733125 -45.42578125 237.263125 -45.42578125 149.203125 C-4.85640625 149.326875 35.71296875 149.450625 77.51171875 149.578125 C96.70058228 149.62912354 96.70058228 149.62912354 116.27709961 149.68115234 C131.94250488 149.7355957 131.94250488 149.7355957 139.28468323 149.76358032 C144.39393106 149.78238846 149.50317024 149.79593718 154.61244202 149.80581665 C161.14493839 149.81846861 167.67735377 149.84129129 174.20979798 149.87035871 C176.5976414 149.87941751 178.9854999 149.88525983 181.37335956 149.88737941 C217.54907626 149.92484463 253.37149334 155.79692032 281.57421875 180.203125 C282.60546875 180.986875 283.63671875 181.770625 284.69921875 182.578125 C303.04449697 199.32816164 312.5497614 225.41323974 313.69824219 249.84106445 C314.54981988 279.85392142 309.92046972 309.72505988 289.45703125 332.93359375 C287.52561753 335.06474356 287.52561753 335.06474356 286.56640625 337.37890625 C285.28096622 339.74229401 283.98701673 340.09466246 281.57421875 341.203125 C280.25204898 342.35656599 278.96303434 343.54852633 277.69921875 344.765625 C258.90062323 361.66907756 234.81042288 368.98001555 210.57421875 374.203125 C213.46408988 376.12970575 215.96334998 377.20186361 219.203125 378.41015625 C220.88051758 379.0434082 220.88051758 379.0434082 222.59179688 379.68945312 C224.92724598 380.56315557 227.26317246 381.43558321 229.59960938 382.30664062 C234.95559788 384.33083068 239.98140889 386.37633248 244.953125 389.2265625 C248.65310541 391.13040676 249.15073966 391.3113666 253.41015625 390.22265625 C254.6149162 389.52879975 255.79483764 388.79040731 256.94921875 388.015625 C257.58496826 387.63212891 258.22071777 387.24863281 258.87573242 386.85351562 C260.80311008 385.6754461 262.68814053 384.44595973 264.57421875 383.203125 C265.65574219 382.52636719 266.73726562 381.84960938 267.8515625 381.15234375 C278.24205609 374.47942702 287.54056113 366.59261688 296.57421875 358.203125 C297.17878906 357.65269531 297.78335937 357.10226562 298.40625 356.53515625 C322.14296085 334.02141411 334.90499374 299.70845463 335.79296875 267.48828125 C336.47346045 228.31103395 326.5028981 193.33606187 299.57421875 164.203125 C298.7853125 163.33171875 297.99640625 162.4603125 297.18359375 161.5625 C254.94719666 117.02752348 187.91531744 103.57247431 129.57421875 97.203125 C128.49172852 97.08308105 127.40923828 96.96303711 126.29394531 96.83935547 C63.83392263 90.27645612 -1.97390716 95.65031527 -61.42578125 116.203125 Z M79.57421875 238.203125 C79.24421875 260.973125 78.91421875 283.743125 78.57421875 307.203125 C91.66014771 307.26137349 91.66014771 307.26137349 104.74609375 307.30078125 C110.08955904 307.31269988 115.43295527 307.32674348 120.77636719 307.35400391 C125.08818439 307.3758618 129.39992744 307.38772073 133.71179581 307.39287949 C135.35028372 307.39655214 136.98876794 307.4037234 138.62722397 307.41458511 C152.82559085 307.5048979 166.30277783 306.95984218 177.75 297.3828125 C185.46076676 289.22624124 187.15891843 280.63144907 186.97021484 269.74658203 C186.57927659 259.77661117 184.25420557 253.78870158 177.23828125 246.44140625 C168.46200541 239.06779033 157.81460479 238.07096219 146.78125 238.08959961 C146.048564 238.08945358 145.31587799 238.08930756 144.56098938 238.0891571 C142.16953438 238.08984677 139.77815993 238.09759424 137.38671875 238.10546875 C135.71663455 238.1073363 134.04654979 238.10875861 132.37646484 238.10975647 C128.00354471 238.11355512 123.63065835 238.12336246 119.25775146 238.13446045 C113.99880165 238.14654119 108.73984048 238.15108945 103.48088074 238.15691376 C95.51196999 238.16657587 87.54313321 238.18575091 79.57421875 238.203125 Z M77.57421875 397.203125 C77.57421875 406.113125 77.57421875 415.023125 77.57421875 424.203125 C97.99355472 424.4666003 118.28411325 423.61447587 138.57421875 421.203125 C135.53566799 412.40564556 128.67829899 405.36311534 121.0078125 400.32421875 C115.02653623 397.56879935 109.08883206 396.90899815 102.57421875 397.0078125 C101.85306885 397.0106424 101.13191895 397.01347229 100.38891602 397.01638794 C98.11717128 397.02745804 95.84584148 397.05253605 93.57421875 397.078125 C92.02083908 397.0881719 90.46745315 397.09729473 88.9140625 397.10546875 C85.13383157 397.12564074 81.35448187 397.16481152 77.57421875 397.203125 Z " fill="#1F65B7" transform="translate(343.42578125,2.796875)"/>
<path d="M0 0 C1.34763115 -0.00702147 2.69526196 -0.01410829 4.04289246 -0.02125549 C8.32417277 -0.0406512 12.60539893 -0.04568931 16.88671875 -0.046875 C17.61589508 -0.04731686 18.34507141 -0.04775871 19.09634399 -0.04821396 C40.73721367 -0.05509321 62.09600552 0.2321171 83.57421875 3.203125 C84.91294146 3.37757717 86.25181445 3.55087921 87.59082031 3.72314453 C165.21975285 13.80127665 242.39083614 41.02355554 302.57421875 92.203125 C303.32058594 92.83734375 304.06695313 93.4715625 304.8359375 94.125 C318.32839435 105.94521687 331.01753793 118.68080408 341.57421875 133.203125 C342.20199219 134.04746094 342.82976563 134.89179688 343.4765625 135.76171875 C363.21802808 163.02374265 378.44493081 197.06708789 378.8125 231.20703125 C378.82224854 231.95917908 378.83199707 232.7113269 378.84204102 233.48626709 C379.01279126 250.07849488 378.89244871 266.05609183 374.57421875 282.203125 C374.38166504 282.93176758 374.18911133 283.66041016 373.99072266 284.41113281 C372.71551779 289.08794932 371.21062885 293.6404286 369.57421875 298.203125 C369.1565625 299.38390625 368.73890625 300.5646875 368.30859375 301.78125 C354.17118741 339.31850133 327.23926448 372.8106504 295.57421875 397.203125 C294.52540922 398.03044887 293.47725957 398.85860979 292.4296875 399.6875 C272.69188371 415.203125 272.69188371 415.203125 268.57421875 415.203125 C268.08115234 414.16865234 268.08115234 414.16865234 267.578125 413.11328125 C262.87577727 403.82327719 256.70101567 397.58744525 248.57421875 391.203125 C249.12658203 390.90245117 249.67894531 390.60177734 250.24804688 390.29199219 C286.46972651 370.44059113 316.43105549 343.83447429 328.88671875 303.328125 C339.8667949 265.20669581 336.35018262 224.37551081 317.546875 189.359375 C312.31337668 180.01212593 305.81627911 172.05826983 298.57421875 164.203125 C297.50107422 163.00623047 297.50107422 163.00623047 296.40625 161.78515625 C254.79527971 117.59865202 187.09549839 104.48297113 129.57421875 98.203125 C128.49172852 98.08308105 127.40923828 97.96303711 126.29394531 97.83935547 C63.83392263 91.27645612 -1.97390716 96.65031527 -61.42578125 117.203125 C-62.24095215 117.48269043 -63.05612305 117.76225586 -63.89599609 118.05029297 C-99.29224683 130.30201605 -132.35939677 148.06473085 -159.42578125 174.203125 C-160.286875 175.01265625 -161.14796875 175.8221875 -162.03515625 176.65625 C-183.59968278 197.41712958 -199.08070654 226.77366975 -199.66723633 257.08642578 C-199.78363205 285.06795649 -189.54018131 310.97258217 -171.42578125 332.203125 C-170.68585938 333.07066406 -169.9459375 333.93820312 -169.18359375 334.83203125 C-166.97896782 337.33871447 -164.71952694 339.77786607 -162.42578125 342.203125 C-161.63042969 343.06292969 -160.83507812 343.92273438 -160.015625 344.80859375 C-130.27946903 375.89027714 -88.39183451 393.95983014 -48.0703125 406.60571289 C-46.42578125 407.203125 -46.42578125 407.203125 -45.42578125 408.203125 C-45.33141596 410.44242386 -45.30835798 412.6847425 -45.31225586 414.92602539 C-45.31210983 415.6284285 -45.31196381 416.3308316 -45.31181335 417.05451965 C-45.31251253 419.38663778 -45.32030508 421.718677 -45.328125 424.05078125 C-45.32998917 425.66360938 -45.33141307 427.27643807 -45.33241272 428.88926697 C-45.33623802 433.14227857 -45.3460684 437.39525624 -45.3571167 441.64825439 C-45.36733056 445.9848993 -45.37191029 450.32154967 -45.37695312 454.65820312 C-45.38769066 463.17319269 -45.40476722 471.68815463 -45.42578125 480.203125 C-76.72056949 476.09429411 -76.72056949 476.09429411 -91.17578125 472.890625 C-91.85336487 472.74316833 -92.53094849 472.59571167 -93.22906494 472.44378662 C-106.44905671 469.56405958 -119.49548367 466.1920635 -132.42578125 462.203125 C-133.5048877 461.87086914 -134.58399414 461.53861328 -135.69580078 461.19628906 C-157.66165334 454.34373497 -179.07727203 445.95499191 -199.45800781 435.23193359 C-201.61235605 434.10557833 -203.77998367 433.0075501 -205.94921875 431.91015625 C-227.81607295 420.75428581 -247.73336572 407.09903742 -266.42578125 391.203125 C-267.54533203 390.25179687 -267.54533203 390.25179687 -268.6875 389.28125 C-282.16605867 377.47320879 -294.9316116 364.75504025 -305.42578125 350.203125 C-306.18890625 349.1615625 -306.95203125 348.12 -307.73828125 347.046875 C-328.817762 317.47704784 -341.98564229 283.70164683 -343.42578125 247.203125 C-343.48765625 245.92888672 -343.48765625 245.92888672 -343.55078125 244.62890625 C-344.31566406 214.17700939 -335.71559216 184.82292075 -321.42578125 158.203125 C-320.53826172 156.5015625 -320.53826172 156.5015625 -319.6328125 154.765625 C-311.09283319 139.03312581 -299.96056152 124.92608379 -287.42578125 112.203125 C-286.73403809 111.49236816 -286.04229492 110.78161133 -285.32958984 110.04931641 C-276.75368877 101.24807398 -268.24162221 92.62652561 -258.42578125 85.203125 C-257.24040373 84.27796058 -256.05554511 83.35213109 -254.87109375 82.42578125 C-244.81855764 74.6439088 -234.30507004 67.76799135 -223.42578125 61.203125 C-222.21825195 60.46860107 -222.21825195 60.46860107 -220.98632812 59.71923828 C-155.98912505 20.44901579 -75.74731435 0.26748513 0 0 Z " fill="#AEB0B4" transform="translate(343.42578125,2.796875)"/>
<path d="M0 0 C3.09268995 4.15966799 5.64709649 8.49683758 8.15625 13.02734375 C8.93693848 14.41723511 8.93693848 14.41723511 9.73339844 15.83520508 C11.2814142 18.60153121 12.8153517 21.37513837 14.34375 24.15234375 C14.78315918 24.94850098 15.22256836 25.7446582 15.67529297 26.56494141 C16.82286919 28.65231543 17.9615776 30.74408138 19.09375 32.83984375 C19.59612183 33.76482666 19.59612183 33.76482666 20.10864258 34.70849609 C22.34375 38.91158101 22.34375 38.91158101 22.34375 41.15234375 C11.18886576 44.8434723 0.02317066 47.78146231 -11.46875 50.21484375 C-12.66058395 50.47056152 -12.66058395 50.47056152 -13.87649536 50.73144531 C-48.56356053 58.15234375 -48.56356053 58.15234375 -63.65625 58.15234375 C-63.65625 39.67234375 -63.65625 21.19234375 -63.65625 2.15234375 C-44.96875 1.27734375 -44.96875 1.27734375 -38.92773438 0.99633789 C-28.7511319 0.50304671 -18.60758491 -0.05479131 -8.53442383 -1.67724609 C-4.85846172 -2.16378847 -3.08830924 -2.14819157 0 0 Z " fill="#93939A" transform="translate(484.65625,424.84765625)"/>
</svg>
