<?xml version="1.0" encoding="UTF-8"?>
<svg version="1.1" xmlns="http://www.w3.org/2000/svg" width="225" height="225">
<path d="M0 0 C74.25 0 148.5 0 225 0 C225 74.25 225 148.5 225 225 C150.75 225 76.5 225 0 225 C0 150.75 0 76.5 0 0 Z " fill="#75AADB" transform="translate(0,0)"/>
<path d="M0 0 C0.9486644 -0.00960754 1.8973288 -0.01921509 2.8747406 -0.02911377 C3.91002396 -0.03336365 4.94530731 -0.03761353 6.01196289 -0.04199219 C7.07443741 -0.04769226 8.13691193 -0.05339233 9.23158264 -0.05926514 C11.4904785 -0.06873757 13.74938833 -0.07525797 16.00830078 -0.07910156 C19.43881101 -0.0887385 22.8687046 -0.11971215 26.29907227 -0.15136719 C28.49503225 -0.15790395 30.69099653 -0.16315177 32.88696289 -0.16699219 C33.90402817 -0.17933899 34.92109344 -0.19168579 35.96897888 -0.20440674 C46.32845159 -0.17258614 55.64788414 2.18113817 63.54711914 9.16113281 C69.33351173 16.45281607 70.15158421 23.01432179 69.54711914 32.16113281 C68.34054589 39.26773858 64.92407633 44.42901366 59.54711914 49.16113281 C56.31633879 51.36993162 53.00229267 53.32578913 49.54711914 55.16113281 C52.40200731 59.75060803 55.28072267 64.32289055 58.19946289 68.87207031 C60.32258503 72.18736523 62.35096908 75.53062462 64.30102539 78.95019531 C68.76714854 86.93133419 68.76714854 86.93133419 76.34790039 91.37207031 C79.86295148 91.6334912 83.0561407 91.60960887 86.54711914 91.16113281 C86.54711914 95.12113281 86.54711914 99.08113281 86.54711914 103.16113281 C79.81352679 104.47991998 73.16599465 105.44936739 66.54711914 103.16113281 C59.54827914 97.77820756 55.34050918 89.32288012 50.92211914 81.84863281 C49.6395918 79.79830644 48.35057617 77.75202359 47.05493164 75.70996094 C44.22680865 71.22653726 41.46387951 66.71012489 38.7539978 62.15434265 C37.72944083 60.4622446 36.64437625 58.80701848 35.54711914 57.16113281 C30.59711914 56.83113281 25.64711914 56.50113281 20.54711914 56.16113281 C20.54711914 67.71113281 20.54711914 79.26113281 20.54711914 91.16113281 C25.82711914 91.16113281 31.10711914 91.16113281 36.54711914 91.16113281 C36.54711914 95.12113281 36.54711914 99.08113281 36.54711914 103.16113281 C22.68711914 103.16113281 8.82711914 103.16113281 -5.45288086 103.16113281 C-5.45288086 92.16113281 -5.45288086 92.16113281 -4.45288086 91.16113281 C-0.16288086 91.16113281 4.12711914 91.16113281 8.54711914 91.16113281 C8.54711914 64.76113281 8.54711914 38.36113281 8.54711914 11.16113281 C5.90711914 11.16113281 3.26711914 11.16113281 0.54711914 11.16113281 C-1.46009009 10.87438864 -3.46466773 10.55877544 -5.45288086 10.16113281 C-5.47977302 8.68206389 -5.49922707 7.20285798 -5.51538086 5.72363281 C-5.52698242 4.89992188 -5.53858398 4.07621094 -5.55053711 3.22753906 C-5.36852317 -0.62387586 -3.35710736 0.02735046 0 0 Z " fill="#FBFCFE" transform="translate(77.452880859375,55.8388671875)"/>
<path d="M0 0 C0.33 0 0.66 0 1 0 C1 33.66 1 67.32 1 102 C-32.66 102 -66.32 102 -101 102 C-101 101.67 -101 101.34 -101 101 C-100.17145508 100.86537354 -100.17145508 100.86537354 -99.32617188 100.72802734 C-76.1095413 96.86660349 -55.99510625 89.64499909 -38 74 C-37.3915625 73.52304688 -36.783125 73.04609375 -36.15625 72.5546875 C-14.38695158 55.23820012 -3.7642191 26.5971797 0 0 Z " fill="#FDFEFE" transform="translate(224,123)"/>
<path d="M0 0 C33.66 0 67.32 0 102 0 C102 33.33 102 66.66 102 101 C101.67 101 101.34 101 101 101 C100.85304688 99.97003906 100.70609375 98.94007812 100.5546875 97.87890625 C97.10172227 75.32095986 88.33608665 52.97037015 71.703125 36.76171875 C70 35 70 35 70 33 C69.42894531 32.75378906 68.85789062 32.50757813 68.26953125 32.25390625 C65.63007863 30.79562004 63.84176687 29.04711885 61.6875 26.9375 C44.73363984 11.45247648 22.3734232 4.16644351 0 1 C0 0.67 0 0.34 0 0 Z " fill="#FEFEFE" transform="translate(123,0)"/>
<path d="M0 0 C0.33 0 0.66 0 1 0 C1.14695313 1.01835938 1.29390625 2.03671875 1.4453125 3.0859375 C4.87720591 25.33609075 12.67229701 44.51576348 27 62 C27.69738281 62.86238281 28.39476563 63.72476563 29.11328125 64.61328125 C47.50819596 86.23655393 74.41745329 97.32959523 102 101 C102 101.33 102 101.66 102 102 C68.34 102 34.68 102 0 102 C0 68.34 0 34.68 0 0 Z " fill="#FEFEFE" transform="translate(0,123)"/>
<path d="M0 0 C33.99 0 67.98 0 103 0 C103 0.33 103 0.66 103 1 C101.82566406 1.14695313 100.65132813 1.29390625 99.44140625 1.4453125 C76.90882789 4.48942705 57.64852969 12.53766467 40 27 C39.13761719 27.69738281 38.27523437 28.39476563 37.38671875 29.11328125 C16.24884568 47.09526658 4.56476689 73.92894851 1 101 C0.67 101 0.34 101 0 101 C0 67.67 0 34.34 0 0 Z " fill="#FEFEFE" transform="translate(0,0)"/>
<path d="M0 0 C5.4759375 -0.0928125 5.4759375 -0.0928125 11.0625 -0.1875 C12.76805054 -0.22846802 12.76805054 -0.22846802 14.50805664 -0.27026367 C21.17941614 -0.32480753 26.40107246 -0.01420476 31.70703125 4.4296875 C35.26079664 9.07595321 37.25410469 12.42317683 37.0625 18.3125 C36.26522339 23.9309552 33.25308169 27.41357199 29 31 C20.12447463 36.43437888 10.14105893 35 0 35 C0 23.45 0 11.9 0 0 Z " fill="#75AADB" transform="translate(98,67)"/>
</svg>
