<?xml version="1.0" encoding="UTF-8"?>
<svg version="1.1" xmlns="http://www.w3.org/2000/svg" width="512" height="512">
<path d="M0 0 C2.77691369 1.3658276 5.55482458 2.72961269 8.33276367 4.09335327 C10.15355856 4.98741699 11.97403739 5.88212468 13.79418945 6.77749634 C20.4265278 10.03940176 27.07615702 13.26121473 33.75 16.4375 C34.61794189 16.85112793 35.48588379 17.26475586 36.38012695 17.69091797 C38.09974579 18.51 39.8195519 19.32868899 41.53955078 20.14697266 C50.7889856 24.55091001 60.02552049 28.98153944 69.25 33.4375 C70.50756104 34.04368164 70.50756104 34.04368164 71.79052734 34.66210938 C73.98915326 35.72550306 76.18299194 36.79804434 78.375 37.875 C79.55320312 38.45121094 80.73140625 39.02742188 81.9453125 39.62109375 C87.38447578 42.61070477 92.18550257 45.53839279 95.5625 50.875 C96.03300781 51.59558594 96.50351562 52.31617187 96.98828125 53.05859375 C99.57122518 57.92860259 100.50015089 62.28382921 100.50726891 67.77290058 C100.5137178 69.03331899 100.52016669 70.2937374 100.526811 71.5923503 C100.523869 72.98338633 100.52073358 74.37442195 100.51742554 75.76545715 C100.52116319 77.24915173 100.52576517 78.73284435 100.53115618 80.21653384 C100.54338737 84.29019141 100.54312558 88.36376686 100.54076743 92.43743861 C100.5403593 96.83224225 100.55139808 101.22701955 100.56088257 105.62181091 C100.57749408 114.23071324 100.58299218 122.83958818 100.58410732 131.4485052 C100.5850577 138.44628717 100.5891675 145.44406011 100.59550858 152.44183922 C100.61312121 172.28231417 100.62234738 192.12276749 100.62084763 211.96325032 C100.62072776 213.56759253 100.62072776 213.56759253 100.62060547 215.2043457 C100.62052371 216.27521322 100.62044195 217.34608073 100.62035771 218.44939878 C100.61954475 235.80559807 100.63868485 253.16171058 100.6668822 270.51788477 C100.69560733 288.33954994 100.70942271 306.16117279 100.70769465 323.9828617 C100.70703063 333.98820802 100.71252816 343.99346336 100.73405075 353.99878883 C100.75225762 362.51729683 100.75661392 371.03567261 100.7430319 379.55419163 C100.73649983 383.89963765 100.73639366 388.24482999 100.7537384 392.59025192 C100.76946362 396.57089851 100.76661136 400.55109015 100.74917014 404.53172561 C100.74609902 405.96911479 100.74973695 407.40653788 100.76089029 408.84388707 C100.8196397 416.95437592 100.39956357 423.36251701 96.25 430.4375 C95.89322973 431.07887163 95.53645945 431.72024327 95.16887796 432.38105041 C89.335206 442.37620594 75.56263278 446.92483339 65.5 451.6875 C64.11769274 452.3482318 62.73569837 453.00961857 61.35400391 453.67163086 C57.94136802 455.30499282 54.5252005 456.93079844 51.10778809 458.55413818 C47.51542956 460.26227292 43.9286903 461.98215079 40.34106445 463.70019531 C38.52507988 464.56925615 36.70850667 465.437088 34.89135742 466.30371094 C29.66238831 468.79802892 24.44224224 471.30980234 19.23046875 473.83984375 C7.42515012 479.56869211 -4.39290051 485.26115554 -16.3125 490.75 C-17.31144287 491.21212891 -18.31038574 491.67425781 -19.33959961 492.15039062 C-20.2600708 492.57126953 -21.18054199 492.99214844 -22.12890625 493.42578125 C-22.9288501 493.79227783 -23.72879395 494.15877441 -24.55297852 494.53637695 C-32.11752689 497.63902703 -41.26840048 497.69643121 -48.9375 494.9375 C-59.77825988 489.88078772 -68.14206395 480.40995098 -76.69921875 472.2734375 C-80.52658427 468.6371321 -84.42229437 465.08698295 -88.36328125 461.57421875 C-91.18051724 459.05207786 -93.96643216 456.49662898 -96.75 453.9375 C-100.37734163 450.60411198 -104.01893197 447.28803585 -107.6875 444 C-112.1420991 440.00301622 -116.53918479 435.94675591 -120.93115234 431.88134766 C-124.99881588 428.12022573 -129.1056163 424.40540461 -133.23046875 420.70703125 C-138.62037666 415.85193591 -143.94951805 410.92970458 -149.29101562 406.02148438 C-154.42473745 401.30524437 -159.56247157 396.59467409 -164.75 391.9375 C-170.97569011 386.34830217 -177.13053078 380.68225942 -183.29101562 375.02148438 C-188.42473745 370.30524437 -193.56247157 365.59467409 -198.75 360.9375 C-204.97569011 355.34830217 -211.13053078 349.68225942 -217.29101562 344.02148438 C-222.40310374 339.3251188 -227.51885156 334.6342486 -232.6875 330 C-237.13322194 326.01098144 -241.52188083 321.96316359 -245.90478516 317.90551758 C-250.81092999 313.36861316 -255.76793064 308.89099767 -260.75 304.4375 C-266.29483808 307.413133 -271.08950988 310.89107932 -276 314.8125 C-282.33341641 319.80787069 -288.73402371 324.68278007 -295.25 329.4375 C-302.42307628 334.67967523 -309.47152604 340.05980843 -316.46826172 345.53466797 C-321.49496183 349.46730196 -326.55274999 353.34422878 -331.68359375 357.140625 C-334.0544769 358.91652219 -336.3928318 360.71839119 -338.72265625 362.546875 C-339.76945557 363.35777588 -339.76945557 363.35777588 -340.83740234 364.18505859 C-342.19298289 365.23554684 -343.54155699 366.295169 -344.88134766 367.36572266 C-350.64996813 371.80232961 -357.32557794 375.25939196 -364.8125 374.4375 C-365.94365234 374.3446875 -365.94365234 374.3446875 -367.09765625 374.25 C-374.63050089 371.94244229 -380.22330804 366.43807147 -385.75 361.0625 C-387.08203297 359.78249957 -388.41536515 358.50384976 -389.75 357.2265625 C-390.40460205 356.59967529 -391.0592041 355.97278809 -391.73364258 355.3269043 C-394.39856083 352.82977361 -397.14273136 350.43248173 -399.90893555 348.04858398 C-411.26017731 338.11530664 -411.26017731 338.11530664 -412.0625 330.453125 C-412.35743446 322.45302783 -411.44774681 316.63192735 -406.05053711 310.50976562 C-404.08511841 308.56620445 -402.06530577 306.7118937 -400 304.875 C-399.32195312 304.25431641 -398.64390625 303.63363281 -397.9453125 302.99414062 C-394.57195225 299.91899569 -391.14653453 296.90642401 -387.703125 293.91015625 C-383.80051387 290.50708317 -380.01757933 286.98872134 -376.25 283.4375 C-371.83754281 279.29764374 -367.40485852 275.20726989 -362.8203125 271.2578125 C-360.00358694 268.78121984 -357.25245195 266.23493953 -354.5 263.6875 C-353.94747559 263.17622559 -353.39495117 262.66495117 -352.82568359 262.13818359 C-351.6980917 261.09423804 -350.57065139 260.05012874 -349.44335938 259.00585938 C-346.71557522 256.47943414 -343.98496992 253.95614461 -341.25 251.4375 C-340.3115625 250.57125 -339.373125 249.705 -338.40625 248.8125 C-335.92049419 246.58994186 -333.37535403 244.49212489 -330.75 242.4375 C-331.83318867 239.18793399 -332.45216017 238.60357364 -335 236.5 C-338.7540041 233.31580009 -342.3929522 230.03548987 -346 226.6875 C-347.12624451 225.64446908 -348.25254711 224.60150088 -349.37890625 223.55859375 C-349.93980957 223.03894043 -350.50071289 222.51928711 -351.07861328 221.98388672 C-357.24311365 216.28041822 -363.43507875 210.60701003 -369.6875 205 C-373.573707 201.51301811 -377.41838627 197.98413607 -381.25 194.4375 C-385.12501502 190.85136204 -389.01204028 187.28106503 -392.9375 183.75 C-393.72769531 183.03585938 -394.51789063 182.32171875 -395.33203125 181.5859375 C-397.01724906 180.08857111 -398.72497549 178.61631948 -400.44921875 177.1640625 C-406.71470118 171.80410235 -411.2013058 167.69205388 -412.08203125 159.2578125 C-412.29137426 152.41927405 -412.01902886 147.2950855 -407.41430664 141.86132812 C-405.83769375 140.19379089 -404.21617939 138.59106687 -402.5625 137 C-401.97734619 136.42652832 -401.39219238 135.85305664 -400.78930664 135.26220703 C-397.23843862 131.80510589 -393.62776739 128.44232461 -389.83203125 125.25390625 C-388.15749012 123.79300264 -386.54264235 122.26382038 -384.94921875 120.71484375 C-378.05134087 114.01547393 -372.00587753 109.33119679 -362.25 107.9375 C-351.79644283 109.43086531 -344.79495264 115.24665077 -336.86962891 121.73046875 C-332.85225883 124.9658352 -328.73343647 128.06919785 -324.625 131.1875 C-323.73578857 131.86409668 -322.84657715 132.54069336 -321.93041992 133.23779297 C-314.88161001 138.59511631 -307.80067411 143.90901054 -300.71069336 149.21166992 C-296.17526203 152.60682089 -291.66559989 156.02961412 -287.1875 159.5 C-278.82529024 165.96867274 -270.27833107 172.19052118 -261.75 178.4375 C-253.40150051 171.31808101 -245.29111605 163.94693619 -237.2121582 156.5246582 C-234.07422842 153.64399344 -230.92021866 150.78256803 -227.75 147.9375 C-222.04338306 142.81430716 -216.39684646 137.62630061 -210.75 132.4375 C-199.47339154 122.07559743 -199.47339154 122.07559743 -193.8125 117 C-189.92629402 113.51301903 -186.08157193 109.98418015 -182.25 106.4375 C-177.62377683 102.15525392 -172.96321377 97.91542188 -168.26953125 93.70703125 C-163.39789755 89.31878446 -158.57787676 84.87376191 -153.75 80.4375 C-147.29632094 74.50731329 -140.82667264 68.59738822 -134.3046875 62.7421875 C-129.42405968 58.33917464 -124.59007959 53.88497491 -119.75 49.4375 C-113.29632094 43.50731329 -106.82667264 37.59738822 -100.3046875 31.7421875 C-95.42405968 27.33917464 -90.59007959 22.88497491 -85.75 18.4375 C-81.75439716 14.76600183 -77.75453504 11.09925554 -73.75 7.4375 C-72.88375 6.64214844 -72.0175 5.84679687 -71.125 5.02734375 C-68.68693673 2.80642049 -66.22850508 0.61316523 -63.75 -1.5625 C-62.92757813 -2.28695313 -62.10515625 -3.01140625 -61.2578125 -3.7578125 C-40.32615565 -21.42908667 -21.44007782 -10.60715577 0 0 Z M-32.484375 129.15625 C-33.27553711 129.75074951 -34.06669922 130.34524902 -34.88183594 130.95776367 C-35.74583008 131.61107666 -36.60982422 132.26438965 -37.5 132.9375 C-38.39235352 133.60950439 -39.28470703 134.28150879 -40.20410156 134.97387695 C-47.54681272 140.51040427 -54.8614372 146.08374986 -62.17089844 151.6640625 C-67.34584876 155.61311347 -72.53601389 159.54015688 -77.75 163.4375 C-87.46765708 170.70374454 -97.10507084 178.07516954 -106.75 185.4375 C-117.21200931 193.4235379 -127.67787302 201.40201208 -138.21826172 209.28442383 C-143.28193234 213.07538296 -148.30200359 216.91899088 -153.30859375 220.78515625 C-158.16583597 224.53473323 -163.04757124 228.25242453 -167.92749023 231.97241211 C-171.56952426 234.75295428 -175.18658067 237.5561414 -178.75 240.4375 C-177.19797143 245.05017234 -173.47056391 247.15932133 -169.6875 249.875 C-168.22071989 250.95095878 -166.75459446 252.02781051 -165.2890625 253.10546875 C-164.15645996 253.93377197 -164.15645996 253.93377197 -163.00097656 254.77880859 C-159.48598636 257.36892176 -156.02428642 260.02693103 -152.5625 262.6875 C-151.14338266 263.77493992 -149.72410766 264.86217412 -148.3046875 265.94921875 C-147.20592285 266.79105713 -147.20592285 266.79105713 -146.08496094 267.64990234 C-134.94653527 276.17724997 -123.78931076 284.67842403 -112.55517578 293.0793457 C-105.69200273 298.21762889 -98.89051183 303.43570662 -92.08496094 308.64990234 C-81.052545 317.09609113 -70.00929488 325.52766836 -58.8737793 333.83764648 C-54.97338177 336.75340063 -51.0972948 339.69878902 -47.234375 342.6640625 C-46.28433594 343.39238281 -45.33429688 344.12070312 -44.35546875 344.87109375 C-42.48608529 346.30573687 -40.61881118 347.74313375 -38.75390625 349.18359375 C-37.90183594 349.83714844 -37.04976562 350.49070312 -36.171875 351.1640625 C-35.41487305 351.74752441 -34.65787109 352.33098633 -33.87792969 352.93212891 C-31.53007851 354.67368192 -31.53007851 354.67368192 -27.75 356.4375 C-27.75 280.5375 -27.75 204.6375 -27.75 126.4375 C-29.61547036 126.4375 -31.0529747 128.07791525 -32.484375 129.15625 Z " fill="#0084CF" transform="translate(411.75,14.5625)"/>
<path d="M0 0 C2.77691369 1.3658276 5.55482458 2.72961269 8.33276367 4.09335327 C10.15355856 4.98741699 11.97403739 5.88212468 13.79418945 6.77749634 C20.4265278 10.03940176 27.07615702 13.26121473 33.75 16.4375 C34.61794189 16.85112793 35.48588379 17.26475586 36.38012695 17.69091797 C38.09974579 18.51 39.8195519 19.32868899 41.53955078 20.14697266 C50.7889856 24.55091001 60.02552049 28.98153944 69.25 33.4375 C70.50756104 34.04368164 70.50756104 34.04368164 71.79052734 34.66210938 C73.98915326 35.72550306 76.18299194 36.79804434 78.375 37.875 C79.55320312 38.45121094 80.73140625 39.02742188 81.9453125 39.62109375 C87.38447578 42.61070477 92.18550257 45.53839279 95.5625 50.875 C96.03300781 51.59558594 96.50351562 52.31617187 96.98828125 53.05859375 C99.57122518 57.92860259 100.50015089 62.28382921 100.50726891 67.77290058 C100.5137178 69.03331899 100.52016669 70.2937374 100.526811 71.5923503 C100.523869 72.98338633 100.52073358 74.37442195 100.51742554 75.76545715 C100.52116319 77.24915173 100.52576517 78.73284435 100.53115618 80.21653384 C100.54338737 84.29019141 100.54312558 88.36376686 100.54076743 92.43743861 C100.5403593 96.83224225 100.55139808 101.22701955 100.56088257 105.62181091 C100.57749408 114.23071324 100.58299218 122.83958818 100.58410732 131.4485052 C100.5850577 138.44628717 100.5891675 145.44406011 100.59550858 152.44183922 C100.61312121 172.28231417 100.62234738 192.12276749 100.62084763 211.96325032 C100.62076772 213.03281179 100.6206878 214.10237327 100.62060547 215.2043457 C100.62052371 216.27521322 100.62044195 217.34608073 100.62035771 218.44939878 C100.61954475 235.80559807 100.63868485 253.16171058 100.6668822 270.51788477 C100.69560733 288.33954994 100.70942271 306.16117279 100.70769465 323.9828617 C100.70703063 333.98820802 100.71252816 343.99346336 100.73405075 353.99878883 C100.75225762 362.51729683 100.75661392 371.03567261 100.7430319 379.55419163 C100.73649983 383.89963765 100.73639366 388.24482999 100.7537384 392.59025192 C100.76946362 396.57089851 100.76661136 400.55109015 100.74917014 404.53172561 C100.74609902 405.96911479 100.74973695 407.40653788 100.76089029 408.84388707 C100.8196397 416.95437592 100.39956357 423.36251701 96.25 430.4375 C95.71484459 431.39955745 95.71484459 431.39955745 95.16887796 432.38105041 C89.335206 442.37620594 75.56263278 446.92483339 65.5 451.6875 C64.11769274 452.3482318 62.73569837 453.00961857 61.35400391 453.67163086 C57.94136802 455.30499282 54.5252005 456.93079844 51.10778809 458.55413818 C47.51542956 460.26227292 43.9286903 461.98215079 40.34106445 463.70019531 C38.52507988 464.56925615 36.70850667 465.437088 34.89135742 466.30371094 C29.66238831 468.79802892 24.44224224 471.30980234 19.23046875 473.83984375 C7.42515012 479.56869211 -4.39290051 485.26115554 -16.3125 490.75 C-17.31144287 491.21212891 -18.31038574 491.67425781 -19.33959961 492.15039062 C-20.2600708 492.57126953 -21.18054199 492.99214844 -22.12890625 493.42578125 C-22.9288501 493.79227783 -23.72879395 494.15877441 -24.55297852 494.53637695 C-28.87499259 496.30907991 -32.57917403 496.5732129 -37.25 496.5625 C-38.3740625 496.56507813 -39.498125 496.56765625 -40.65625 496.5703125 C-43.2220699 496.46016367 -45.31266427 496.19020662 -47.75 495.4375 C-47.75 494.4475 -47.75 493.4575 -47.75 492.4375 C-47.16992188 492.33953125 -46.58984375 492.2415625 -45.9921875 492.140625 C-40.77988543 491.14289061 -36.82331132 490.03717047 -32.75 486.4375 C-29.21594759 481.10997625 -28.16624914 476.37301212 -28.24384212 470.0728302 C-28.23772877 469.26570709 -28.23161541 468.45858398 -28.22531679 467.6270026 C-28.20974727 464.92917656 -28.22257034 462.23225342 -28.2353363 459.53442383 C-28.23000984 457.57806023 -28.22294358 455.62170072 -28.21428925 453.66534901 C-28.19564853 448.29443477 -28.20197191 442.92379601 -28.21244228 437.55287027 C-28.21943012 431.75864154 -28.20343955 425.96446963 -28.19044495 420.17025757 C-28.16879327 408.82137877 -28.16893478 397.4726002 -28.17707049 386.12370753 C-28.1833678 376.90103483 -28.18223592 367.67839138 -28.17579842 358.45571899 C-28.17489676 357.14359147 -28.17399511 355.83146394 -28.17306613 354.47957498 C-28.17167904 352.48232589 -28.1702919 350.48507681 -28.16887999 348.48782774 C-28.15590086 329.92160519 -28.15078298 311.35539355 -28.1624136 292.78916931 C-28.16285157 292.08942342 -28.16328954 291.38967754 -28.16374078 290.66872723 C-28.16734757 284.98637776 -28.17118236 279.30402845 -28.17503171 273.62167914 C-28.18988138 251.45314408 -28.18109605 229.2847322 -28.15307617 207.11621094 C-28.12165145 182.20627839 -28.10667702 157.29641877 -28.11687618 132.38646603 C-28.11789875 129.7307377 -28.11889336 127.07500936 -28.1198597 124.41928101 C-28.12057428 122.459227 -28.12057428 122.459227 -28.1213033 120.45957595 C-28.12346898 111.24692256 -28.11365524 102.03432647 -28.09908867 92.82168579 C-28.08158698 81.59604063 -28.08165181 70.37056292 -28.10444032 59.1449244 C-28.11560169 53.41632134 -28.11870181 47.68801356 -28.10013962 41.95942307 C-28.08336876 36.71626219 -28.08964021 31.47365493 -28.11435641 26.23053014 C-28.11925118 24.33292995 -28.11569287 22.4352854 -28.10286897 20.53772223 C-28.08669524 17.95853729 -28.10132316 15.38126858 -28.12358761 12.8021698 C-28.11159593 12.06501295 -28.09960425 11.3278561 -28.08724919 10.56836116 C-28.21014764 3.59852801 -31.40369216 -1.21619216 -36.25 -6.0625 C-42.27873761 -8.64624469 -49.44709263 -8.72718604 -55.65234375 -6.5390625 C-56.34457031 -6.21679688 -57.03679687 -5.89453125 -57.75 -5.5625 C-42.79964494 -24.59022462 -16.12276064 -7.97649314 0 0 Z " fill="#22A8F1" transform="translate(411.75,14.5625)"/>
<path d="M0 0 C5.70236588 2.70112068 9.54593683 7.20254139 12 13 C12.29637527 15.35840416 12.29637527 15.35840416 12.3616333 18.0184021 C12.39039551 19.03019531 12.41915771 20.04198853 12.4487915 21.08444214 C12.46987976 22.18885651 12.49096802 23.29327087 12.51269531 24.43115234 C12.54190063 25.59918396 12.57110596 26.76721558 12.60119629 27.97064209 C12.85335762 38.75305724 12.99360595 49.53879876 13.09688187 60.32362938 C13.17451144 68.28251888 13.31083931 76.23570328 13.52597737 84.19208944 C13.67248968 89.80243657 13.74867239 95.41124097 13.77493358 101.02342188 C13.79255851 104.36955825 13.84933135 107.70309472 13.96427155 111.04813766 C14.62637569 131.31215011 14.62637569 131.31215011 10.23220253 137.48226929 C6.03944575 141.75554433 1.30884314 144.90153195 -3.90031052 147.80709267 C-6.60017059 149.34097799 -9.01630935 151.16436255 -11.45703125 153.078125 C-12.90724908 154.13761718 -14.35901091 155.19500004 -15.8125 156.25 C-22.08547299 160.84032224 -28.2958471 165.49012743 -34.44140625 170.25 C-45.21928225 178.59660975 -56.08276359 186.83666106 -67 195 C-75.80319808 201.58273351 -84.53902804 208.25323651 -93.27685547 214.92236328 C-96.88051126 217.67179047 -100.48665552 220.41794236 -104.09301758 223.16381836 C-106.71398851 225.16007197 -109.33358891 227.15811412 -111.953125 229.15625 C-115.26992015 231.68527444 -118.59312886 234.20547982 -121.921875 236.71875 C-122.69563477 237.30503174 -123.46939453 237.89131348 -124.26660156 238.49536133 C-125.70373321 239.58420692 -127.14302005 240.67021681 -128.58496094 241.75268555 C-132.35184065 244.61281135 -135.7401112 247.57084774 -139 251 C-141.86679674 249.64913667 -144.36480222 248.11382476 -146.9140625 246.234375 C-148.0421936 245.40425903 -148.0421936 245.40425903 -149.19311523 244.55737305 C-149.99563721 243.96093994 -150.79815918 243.36450684 -151.625 242.75 C-152.88002319 241.82151245 -152.88002319 241.82151245 -154.16040039 240.87426758 C-161.50940333 235.41372734 -168.73536344 229.80217337 -175.9453125 224.16015625 C-180.12054843 220.89638837 -184.35203995 217.71318592 -188.6015625 214.546875 C-193.32093588 211.02141717 -198.00165833 207.44481634 -202.6875 203.875 C-203.56704346 203.20549316 -204.44658691 202.53598633 -205.3527832 201.84619141 C-210.92771312 197.59697825 -216.47544991 193.31450651 -222 189 C-216.63896398 182.29870497 -210.37228044 176.70522118 -204 171 C-203.14921875 170.23429688 -202.2984375 169.46859375 -201.421875 168.6796875 C-199.80311884 167.22280695 -198.18332103 165.76708298 -196.5625 164.3125 C-193.17601679 161.25640539 -189.81755186 158.17014388 -186.45874023 155.08374023 C-183.34366875 152.22397796 -180.21148325 149.38484641 -177.0625 146.5625 C-172.60713196 142.56482627 -168.20916481 138.50799115 -163.81665039 134.44165039 C-159.77550116 130.70473118 -155.69289404 127.01700894 -151.59375 123.34375 C-148.54108319 120.58531613 -145.51917344 117.79497956 -142.5 115 C-137.87380193 110.71772721 -133.21321325 106.47792141 -128.51953125 102.26953125 C-123.64789755 97.88128446 -118.82787676 93.43626191 -114 89 C-107.54632094 83.06981329 -101.07667264 77.15988822 -94.5546875 71.3046875 C-89.67405968 66.90167464 -84.84007959 62.44747491 -80 58 C-73.54632094 52.06981329 -67.07667264 46.15988822 -60.5546875 40.3046875 C-55.67405968 35.90167464 -50.84007959 31.44747491 -46 27 C-40.20163231 21.67196885 -34.40058828 16.34705102 -28.5625 11.0625 C-27.80066406 10.37285156 -27.03882813 9.68320313 -26.25390625 8.97265625 C-17.73152709 1.51372822 -11.51312443 -1.31997605 0 0 Z " fill="#0075B6" transform="translate(372,6)"/>
<path d="M0 0 C3.006818 1.33999498 4.99762609 2.79845291 7.25 5.1875 C9.62823921 7.63598256 12.03799459 9.96071053 14.625 12.1875 C18.2814379 15.34082338 21.83486126 18.59270803 25.375 21.875 C29.22600689 25.44432001 33.088775 28.99645969 37 32.5 C41.42886122 36.46871979 45.79854353 40.49819569 50.16162109 44.53881836 C54.3956079 48.45509887 58.67253706 52.32085116 62.9765625 56.16015625 C66.73358124 59.57628719 66.73358124 59.57628719 68 61 C68 61.66 68 62.32 68 63 C66.58911133 64.25830078 66.58911133 64.25830078 64.58203125 65.6953125 C63.8331665 66.23792725 63.08430176 66.78054199 62.31274414 67.33959961 C61.48766357 67.92878174 60.66258301 68.51796387 59.8125 69.125 C58.05615046 70.39816675 56.30098355 71.67296623 54.546875 72.94921875 C53.63099609 73.6148584 52.71511719 74.28049805 51.77148438 74.96630859 C47.32297654 78.2305854 42.94241341 81.5820437 38.5625 84.9375 C31.56915214 90.28737546 24.551156 95.60153075 17.5 100.875 C12.05738577 104.94634183 6.62849293 109.03177647 1.25 113.1875 C0.2496875 113.95578125 -0.750625 114.7240625 -1.78125 115.515625 C-3.5126924 116.84699927 -5.2367513 118.18632327 -6.953125 119.53710938 C-9.04367954 121.18165275 -11.14609586 122.81008556 -13.25 124.4375 C-13.88776367 124.94627686 -14.52552734 125.45505371 -15.18261719 125.97924805 C-20.93164486 130.39024211 -27.61252963 133.81783551 -35.0625 133 C-35.81660156 132.938125 -36.57070313 132.87625 -37.34765625 132.8125 C-44.88050089 130.50494229 -50.47330804 125.00057147 -56 119.625 C-57.33203297 118.34499957 -58.66536515 117.06634976 -60 115.7890625 C-60.65460205 115.16217529 -61.3092041 114.53528809 -61.98364258 113.8894043 C-64.64856083 111.39227361 -67.39273136 108.99498173 -70.15893555 106.61108398 C-81.51017731 96.67780664 -81.51017731 96.67780664 -82.3125 89.015625 C-82.60743446 81.01552783 -81.69774681 75.19442735 -76.30053711 69.07226562 C-74.33511841 67.12870445 -72.31530577 65.2743937 -70.25 63.4375 C-69.57195312 62.81681641 -68.89390625 62.19613281 -68.1953125 61.55664062 C-64.82195225 58.48149569 -61.39653453 55.46892401 -57.953125 52.47265625 C-54.05051387 49.06958317 -50.26757933 45.55122134 -46.5 42 C-42.08754281 37.86014374 -37.65485852 33.76976989 -33.0703125 29.8203125 C-30.25358733 27.34372018 -27.50243688 24.7974554 -24.75 22.25 C-24.19675049 21.73800049 -23.64350098 21.22600098 -23.07348633 20.69848633 C-21.9451772 19.65379194 -20.81700426 18.60895045 -19.68896484 17.56396484 C-16.98403783 15.05922901 -14.27524015 12.55877071 -11.5625 10.0625 C-10.17224609 8.78052734 -10.17224609 8.78052734 -8.75390625 7.47265625 C-5.89232251 4.90331936 -2.96870436 2.4440438 0 0 Z " fill="#006CAD" transform="translate(82,256)"/>
</svg>
